<svg width="685" height="642" viewBox="0 0 685 642" fill="none" xmlns="http://www.w3.org/2000/svg">
<path d="M98.6385 179.838L101.526 185.666L107.977 186.61L103.308 191.155L104.413 197.571L98.6385 194.541L92.8819 197.571L93.9868 191.155L89.3174 186.61L95.7691 185.666L98.6385 179.838Z" fill="#EBEBEB"/>
<path d="M675.459 454.712L678.346 460.558L684.798 461.502L680.128 466.029L681.233 472.463L675.459 469.433L669.702 472.463L670.807 466.029L666.138 461.502L672.589 460.558L675.459 454.712Z" fill="#F5F5F5"/>
<path d="M561.217 624.185L564.105 630.012L570.539 630.957L565.869 635.502L566.974 641.918L561.217 638.888L555.461 641.918L556.548 635.502L551.896 630.957L558.33 630.012L561.217 624.185Z" fill="#F5F5F5"/>
<path d="M299.835 76.2898L300.904 78.4641L303.31 78.8205C303.445 78.8381 303.571 78.8935 303.675 78.9804C303.779 79.0672 303.856 79.1818 303.897 79.3108C303.938 79.4399 303.942 79.5779 303.907 79.7089C303.873 79.8398 303.802 79.9582 303.702 80.0503L301.92 81.7434L302.33 84.1316C302.351 84.2645 302.335 84.4007 302.284 84.525C302.232 84.6494 302.147 84.7572 302.039 84.8364C301.93 84.9157 301.801 84.9634 301.667 84.9742C301.533 84.9851 301.399 84.9587 301.279 84.898L299.14 83.7573L297.001 84.898C296.881 84.9587 296.747 84.9851 296.612 84.9742C296.478 84.9634 296.35 84.9157 296.241 84.8364C296.132 84.7572 296.047 84.6494 295.996 84.525C295.945 84.4007 295.929 84.2645 295.95 84.1316L296.342 81.7434L294.56 80.0503C294.46 79.9571 294.389 79.8372 294.355 79.7049C294.322 79.5726 294.327 79.4334 294.37 79.3039C294.413 79.1743 294.492 79.0599 294.599 78.9743C294.705 78.8886 294.834 78.8352 294.969 78.8205L297.358 78.4641L298.427 76.2898C298.47 76.1359 298.562 76.0004 298.689 75.9038C298.816 75.8072 298.971 75.7549 299.131 75.7549C299.291 75.7549 299.446 75.8072 299.573 75.9038C299.7 76.0004 299.792 76.1359 299.835 76.2898Z" fill="#EBEBEB"/>
<path d="M5.48107 596.435L6.55041 598.591L8.93861 598.948C9.07419 598.967 9.2018 599.023 9.3069 599.111C9.41201 599.198 9.49039 599.314 9.53311 599.444C9.57583 599.574 9.58118 599.713 9.54854 599.846C9.51591 599.979 9.4466 600.1 9.34852 600.195L7.56629 601.871L7.9762 604.259C7.99725 604.392 7.98118 604.528 7.92978 604.652C7.87837 604.777 7.79362 604.885 7.68486 604.964C7.57611 605.043 7.44757 605.091 7.31344 605.102C7.1793 605.112 7.04477 605.086 6.92468 605.025L4.786 603.903L2.64731 605.025C2.52722 605.086 2.3927 605.112 2.25856 605.102C2.12443 605.091 1.99589 605.043 1.88714 604.964C1.77838 604.885 1.69362 604.777 1.64222 604.652C1.59081 604.528 1.57474 604.392 1.59579 604.259L2.00571 601.871L0.22348 600.195C0.12572 600.101 0.0561625 599.982 0.0226262 599.85C-0.0109102 599.718 -0.00710088 599.58 0.0336196 599.45C0.0743402 599.321 0.150361 599.205 0.253156 599.116C0.355951 599.028 0.48145 598.969 0.615567 598.948L3.00376 598.591L4.09093 596.435C4.13855 596.288 4.23147 596.16 4.35634 596.069C4.48121 595.979 4.63162 595.93 4.786 595.93C4.94037 595.93 5.09079 595.979 5.21566 596.069C5.34053 596.16 5.43344 596.288 5.48107 596.435Z" fill="#F5F5F5"/>
<path d="M53.5479 53.3884L54.6173 55.5627L57.0233 55.9014C57.1574 55.9228 57.2829 55.9811 57.3857 56.0699C57.4885 56.1587 57.5645 56.2743 57.6052 56.4039C57.6459 56.5334 57.6497 56.6718 57.6162 56.8034C57.5827 56.935 57.5131 57.0547 57.4154 57.1489L55.6331 58.9312L56.043 61.3015C56.0715 61.4361 56.0605 61.576 56.0112 61.7044C55.962 61.8328 55.8766 61.9443 55.7655 62.0253C55.6543 62.1063 55.5221 62.1534 55.3848 62.161C55.2475 62.1685 55.1109 62.1362 54.9915 62.0679L52.8528 60.9451L50.7142 62.0679C50.5948 62.1362 50.4582 62.1685 50.3209 62.161C50.1836 62.1534 50.0514 62.1063 49.9402 62.0253C49.8291 61.9443 49.7437 61.8328 49.6945 61.7044C49.6452 61.576 49.6342 61.4361 49.6626 61.3015L50.0547 58.9312L48.2725 57.1489C48.1744 57.0535 48.1051 56.9324 48.0725 56.7995C48.0398 56.6666 48.0452 56.5272 48.0879 56.3972C48.1306 56.2671 48.209 56.1517 48.3141 56.0641C48.4192 55.9764 48.5468 55.92 48.6824 55.9014L51.0706 55.5627L52.2112 53.3884C52.2685 53.2589 52.3621 53.1488 52.4808 53.0715C52.5994 52.9943 52.738 52.9531 52.8796 52.9531C53.0212 52.9531 53.1597 52.9943 53.2784 53.0715C53.397 53.1488 53.4907 53.2589 53.5479 53.3884Z" fill="#EBEBEB"/>
<path d="M50.6607 482.942C50.6642 483.412 50.5282 483.872 50.2699 484.264C50.0116 484.656 49.6427 484.963 49.2099 485.145C48.7771 485.327 48.2999 485.377 47.8389 485.287C47.378 485.198 46.9539 484.973 46.6206 484.643C46.2874 484.312 46.0598 483.89 45.9669 483.429C45.874 482.969 45.9199 482.491 46.0988 482.057C46.2776 481.623 46.5814 481.252 46.9716 480.991C47.3618 480.729 47.8208 480.59 48.2904 480.59C48.9159 480.59 49.5162 480.837 49.9602 481.278C50.4042 481.719 50.656 482.317 50.6607 482.942Z" fill="#EBEBEB"/>
<path d="M388.466 186.325C388.469 186.795 388.333 187.255 388.075 187.647C387.816 188.039 387.447 188.346 387.015 188.528C386.582 188.71 386.105 188.76 385.644 188.67C385.183 188.581 384.759 188.356 384.425 188.026C384.092 187.695 383.865 187.272 383.772 186.812C383.679 186.352 383.725 185.874 383.904 185.44C384.082 185.006 384.386 184.635 384.776 184.373C385.167 184.112 385.626 183.973 386.095 183.973C386.406 183.97 386.713 184.029 387.001 184.147C387.288 184.264 387.55 184.437 387.77 184.655C387.991 184.874 388.165 185.134 388.285 185.421C388.404 185.707 388.466 186.015 388.466 186.325Z" fill="#EBEBEB"/>
<path d="M265.563 55.3489C265.563 55.8177 265.423 56.276 265.163 56.6658C264.903 57.0556 264.532 57.3594 264.099 57.5388C263.666 57.7182 263.19 57.7652 262.73 57.6737C262.27 57.5823 261.848 57.3565 261.516 57.025C261.185 56.6935 260.959 56.2711 260.867 55.8113C260.776 55.3515 260.823 54.8749 261.002 54.4418C261.182 54.0087 261.485 53.6385 261.875 53.378C262.265 53.1175 262.723 52.9785 263.192 52.9785C263.819 52.9832 264.42 53.2344 264.863 53.6779C265.307 54.1215 265.558 54.7217 265.563 55.3489Z" fill="#F5F5F5"/>
<path d="M269.316 633.049C276.358 631.387 280.718 624.332 279.056 617.291C277.395 610.249 270.339 605.889 263.298 607.55C256.257 609.212 251.896 616.268 253.558 623.309C255.22 630.35 262.275 634.711 269.316 633.049Z" fill="#F0F0F0"/>
<path d="M261.802 612.636C259.119 612.63 256.503 613.479 254.334 615.06C253.227 617.6 252.955 620.427 253.558 623.133C254.161 625.838 255.608 628.282 257.689 630.112C259.771 631.942 262.38 633.064 265.141 633.315C267.901 633.566 270.67 632.934 273.048 631.51C274.101 629.563 274.629 627.376 274.583 625.163C274.536 622.95 273.916 620.788 272.782 618.887C271.648 616.986 270.04 615.412 268.116 614.319C266.191 613.227 264.015 612.653 261.802 612.654V612.636Z" fill="#E6E6E6"/>
<path d="M160.357 392.618H51.9083V343.66L160.357 214.733H212.256V346.441H239.15V392.618H212.256V432.683H160.357V392.618ZM160.357 346.441V279.001L103.041 346.441H160.357Z" fill="url(#paint0_linear_403:5820)"/>
<path d="M257.703 324.662C257.703 283.92 265.034 255.404 279.696 239.115C294.358 222.825 316.701 214.686 346.726 214.698C361.138 214.698 372.978 216.48 382.246 220.045C390.665 223.079 398.374 227.803 404.898 233.929C410.397 239.179 415.056 245.244 418.71 251.911C422.326 258.872 425.051 266.262 426.819 273.904C430.849 290.231 432.86 306.99 432.808 323.807C432.808 362.683 426.231 391.134 413.078 409.158C399.925 427.182 377.273 436.2 345.122 436.212C327.085 436.212 312.513 433.337 301.403 427.586C290.205 421.742 280.772 413.011 274.082 402.296C268.913 394.407 264.891 383.613 262.016 369.913C259.031 355.017 257.586 339.854 257.703 324.662ZM316.766 324.805C316.766 352.132 319.172 370.769 323.984 380.713C328.796 390.658 335.789 395.654 344.961 395.702C347.872 395.735 350.76 395.189 353.459 394.097C356.157 393.005 358.612 391.387 360.681 389.339C365.124 385.098 368.392 378.396 370.483 369.236C372.574 360.075 373.62 345.817 373.62 326.462C373.62 298.018 371.208 278.894 366.384 269.092C361.56 259.29 354.324 254.395 344.676 254.406C334.838 254.406 327.709 259.403 323.289 269.395C318.869 279.387 316.695 297.857 316.766 324.805Z" fill="url(#paint1_linear_403:5820)"/>
<path d="M559.685 392.618H451.236V343.66L559.685 214.733H611.583V346.441H638.566V392.618H611.583V432.683H559.685V392.618ZM559.685 346.441V279.001L502.386 346.441H559.685Z" fill="url(#paint2_linear_403:5820)"/>
<g opacity="0.3">
<path opacity="0.3" d="M255.386 139.506C255.386 140.166 255.19 140.811 254.823 141.359C254.456 141.908 253.935 142.335 253.324 142.586C252.714 142.838 252.043 142.903 251.396 142.773C250.749 142.643 250.156 142.324 249.69 141.856C249.225 141.388 248.909 140.793 248.782 140.145C248.656 139.497 248.724 138.827 248.979 138.218C249.234 137.609 249.664 137.09 250.215 136.726C250.765 136.362 251.411 136.169 252.071 136.173C252.508 136.173 252.94 136.259 253.344 136.427C253.747 136.595 254.113 136.84 254.421 137.15C254.729 137.46 254.973 137.827 255.139 138.232C255.304 138.636 255.388 139.069 255.386 139.506Z" fill="url(#paint3_linear_403:5820)"/>
<path opacity="0.3" d="M27.2066 267.523C28.5058 267.523 29.5591 266.47 29.5591 265.171C29.5591 263.872 28.5058 262.818 27.2066 262.818C25.9073 262.818 24.854 263.872 24.854 265.171C24.854 266.47 25.9073 267.523 27.2066 267.523Z" fill="url(#paint4_linear_403:5820)"/>
<path opacity="0.3" d="M415.876 611.085C417.737 611.085 419.245 609.577 419.245 607.717C419.245 605.857 417.737 604.349 415.876 604.349C414.016 604.349 412.508 605.857 412.508 607.717C412.508 609.577 414.016 611.085 415.876 611.085Z" fill="url(#paint5_linear_403:5820)"/>
<path opacity="0.3" d="M496.879 474.031C498.178 474.031 499.231 472.978 499.231 471.679C499.231 470.379 498.178 469.326 496.879 469.326C495.58 469.326 494.526 470.379 494.526 471.679C494.526 472.978 495.58 474.031 496.879 474.031Z" fill="url(#paint6_linear_403:5820)"/>
<path opacity="0.3" d="M653.127 50.3945C653.127 50.8598 652.989 51.3147 652.731 51.7015C652.472 52.0884 652.105 52.39 651.675 52.568C651.245 52.7461 650.772 52.7927 650.316 52.7019C649.859 52.6111 649.44 52.3871 649.111 52.058C648.782 51.729 648.558 51.3098 648.467 50.8535C648.377 50.3971 648.423 49.9241 648.601 49.4943C648.779 49.0644 649.081 48.697 649.468 48.4385C649.855 48.18 650.31 48.042 650.775 48.042C651.399 48.042 651.997 48.2899 652.438 48.731C652.879 49.1722 653.127 49.7706 653.127 50.3945Z" fill="url(#paint7_linear_403:5820)"/>
<path opacity="0.3" d="M205.038 2.95118C205.038 3.41647 204.9 3.87131 204.641 4.25819C204.383 4.64506 204.015 4.94659 203.586 5.12465C203.156 5.30271 202.683 5.34931 202.226 5.25853C201.77 5.16776 201.351 4.94369 201.022 4.61468C200.693 4.28567 200.469 3.8665 200.378 3.41015C200.287 2.9538 200.334 2.48077 200.512 2.0509C200.69 1.62103 200.991 1.25361 201.378 0.995105C201.765 0.736603 202.22 0.598633 202.685 0.598633C203.308 0.603296 203.903 0.852651 204.344 1.29283C204.784 1.73301 205.033 2.32869 205.038 2.95118Z" fill="url(#paint8_linear_403:5820)"/>
<path opacity="0.3" d="M392.084 126.389C393.383 126.389 394.436 125.335 394.436 124.036C394.436 122.737 393.383 121.684 392.084 121.684C390.784 121.684 389.731 122.737 389.731 124.036C389.731 125.335 390.784 126.389 392.084 126.389Z" fill="url(#paint9_linear_403:5820)"/>
</g>
<path d="M148.862 126.406C170.428 126.406 187.911 108.923 187.911 87.3574C187.911 65.7913 170.428 48.3086 148.862 48.3086C127.296 48.3086 109.813 65.7913 109.813 87.3574C109.813 108.923 127.296 126.406 148.862 126.406Z" fill="url(#paint10_linear_403:5820)"/>
<path opacity="0.7" d="M148.862 126.406C170.428 126.406 187.911 108.923 187.911 87.3574C187.911 65.7913 170.428 48.3086 148.862 48.3086C127.296 48.3086 109.813 65.7913 109.813 87.3574C109.813 108.923 127.296 126.406 148.862 126.406Z" fill="white"/>
<path opacity="0.2" d="M135.406 57.8976C130.088 57.8813 124.823 58.9549 119.936 61.0522C113.93 67.6534 110.365 76.1121 109.835 85.021C109.304 93.9299 111.84 102.752 117.02 110.019C122.2 117.287 129.713 122.561 138.308 124.966C146.902 127.37 156.061 126.759 164.26 123.234C169.344 117.632 172.691 110.674 173.897 103.206C175.102 95.738 174.113 88.0805 171.05 81.1635C167.987 74.2466 162.981 68.3677 156.641 64.2408C150.301 60.1139 142.9 57.9165 135.335 57.9155L135.406 57.8976Z" fill="url(#paint11_linear_403:5820)"/>
<path opacity="0.2" d="M131.521 68.2168C131.521 68.9218 131.312 69.6109 130.92 70.1971C130.528 70.7833 129.972 71.2402 129.32 71.5099C128.669 71.7797 127.952 71.8503 127.261 71.7128C126.569 71.5753 125.934 71.2358 125.436 70.7373C124.937 70.2388 124.598 69.6036 124.46 68.9122C124.323 68.2208 124.393 67.5041 124.663 66.8527C124.933 66.2014 125.39 65.6447 125.976 65.2531C126.562 64.8614 127.251 64.6523 127.956 64.6523C128.902 64.6523 129.808 65.0279 130.477 65.6963C131.145 66.3648 131.521 67.2715 131.521 68.2168Z" fill="url(#paint12_linear_403:5820)"/>
<path opacity="0.2" d="M173.51 64.6524C173.51 65.3573 173.301 66.0465 172.909 66.6327C172.518 67.2188 171.961 67.6757 171.31 67.9455C170.658 68.2153 169.942 68.2859 169.25 68.1483C168.559 68.0108 167.924 67.6713 167.425 67.1728C166.927 66.6743 166.587 66.0392 166.45 65.3477C166.312 64.6563 166.383 63.9396 166.653 63.2883C166.922 62.637 167.379 62.0803 167.965 61.6886C168.552 61.2969 169.241 61.0879 169.946 61.0879C170.891 61.0879 171.798 61.4634 172.466 62.1319C173.135 62.8004 173.51 63.707 173.51 64.6524Z" fill="url(#paint13_linear_403:5820)"/>
<path opacity="0.2" d="M166.381 90.1026C166.381 91.2587 166.038 92.3889 165.396 93.3503C164.754 94.3116 163.841 95.0609 162.773 95.5033C161.704 95.9458 160.529 96.0615 159.395 95.836C158.261 95.6104 157.22 95.0536 156.402 94.2361C155.584 93.4186 155.028 92.377 154.802 91.243C154.577 90.109 154.692 88.9337 155.135 87.8655C155.577 86.7973 156.327 85.8844 157.288 85.242C158.249 84.5997 159.379 84.2568 160.536 84.2568C162.086 84.2568 163.573 84.8727 164.669 85.969C165.765 87.0653 166.381 88.5522 166.381 90.1026Z" fill="url(#paint14_linear_403:5820)"/>
<path opacity="0.2" d="M147.81 106.766C147.81 108.31 147.353 109.819 146.495 111.103C145.637 112.387 144.418 113.387 142.991 113.978C141.565 114.569 139.996 114.724 138.481 114.422C136.967 114.121 135.576 113.378 134.484 112.286C133.393 111.194 132.649 109.803 132.348 108.289C132.047 106.775 132.201 105.205 132.792 103.779C133.383 102.352 134.384 101.133 135.667 100.276C136.951 99.4178 138.46 98.96 140.004 98.96C142.075 98.96 144.06 99.7824 145.524 101.246C146.988 102.71 147.81 104.696 147.81 106.766Z" fill="url(#paint15_linear_403:5820)"/>
<path d="M611.654 558.378C616.002 539.956 604.593 521.497 586.171 517.149C567.749 512.801 549.29 524.21 544.942 542.632C540.594 561.054 552.004 579.513 570.426 583.861C588.848 588.209 607.306 576.8 611.654 558.378Z" fill="url(#paint16_linear_403:5820)"/>
<path opacity="0.3" d="M611.654 558.378C616.002 539.956 604.593 521.497 586.171 517.149C567.749 512.801 549.29 524.21 544.942 542.632C540.594 561.054 552.004 579.513 570.426 583.861C588.848 588.209 607.306 576.8 611.654 558.378Z" fill="white"/>
<path opacity="0.4" d="M599.945 523.97C592.348 521.677 584.19 522.093 576.865 525.147C569.54 528.201 563.503 533.704 559.785 540.715C556.067 547.726 554.899 555.811 556.48 563.587C558.061 571.364 562.293 578.351 568.453 583.354C571.649 584.324 574.97 584.817 578.309 584.815C585.385 584.814 592.286 582.622 598.066 578.542C603.847 574.462 608.222 568.692 610.593 562.026C612.964 555.359 613.213 548.123 611.306 541.309C609.4 534.495 605.431 528.438 599.945 523.97Z" fill="url(#paint17_linear_403:5820)"/>
<path d="M545.587 560.791C508.998 578.007 536.284 591.285 587.844 572.75C635.59 555.587 653.787 533.95 611.013 540.669C613.312 549.67 553.518 572.963 545.587 560.791Z" fill="url(#paint18_linear_403:5820)"/>
<path opacity="0.2" d="M599.536 214.734C551.611 247.118 489.572 289.891 472.444 392.619H468.791C485.455 291.032 545.231 247.242 593.173 214.734H599.536Z" fill="black"/>
<path d="M351.627 536.32C321.329 536.32 291.369 522.65 276.773 500.337C267.773 486.542 257.311 457.652 288.464 419.103L291.227 421.348C269.198 448.616 265.135 475.974 279.767 498.394C297.589 525.662 339.632 539.386 375.526 529.619C412.294 519.621 434.608 487.647 436.764 441.897C444.125 285.399 527.266 237.19 587.969 201.991C625.699 180.123 652.949 164.332 646.961 130.986C646.123 126.371 644.287 123.18 641.311 121.22C633.558 116.105 618.409 119.651 600.872 123.733C566.457 131.753 519.335 142.731 491.265 94.9854L494.348 93.2031C521.082 138.704 564.871 128.491 600.07 120.293C618.409 116.034 634.236 112.344 643.272 118.279C647.103 120.792 649.456 124.766 650.401 130.398C656.834 166.186 627.231 183.366 589.715 205.11C529.708 239.899 447.547 287.538 440.275 442.147C438.029 489.554 414.753 522.722 376.4 533.148C368.319 535.3 359.989 536.366 351.627 536.32Z" fill="url(#paint19_linear_403:5820)"/>
<path opacity="0.2" d="M351.627 536.32C321.329 536.32 291.369 522.65 276.773 500.337C267.773 486.542 257.311 457.652 288.464 419.103L291.227 421.348C269.198 448.616 265.135 475.974 279.767 498.394C297.589 525.662 339.632 539.386 375.526 529.619C412.294 519.621 434.608 487.647 436.764 441.897C444.125 285.399 527.266 237.19 587.969 201.991C625.699 180.123 652.949 164.332 646.961 130.986C646.123 126.371 644.287 123.18 641.311 121.22C633.558 116.105 618.409 119.651 600.872 123.733C566.457 131.753 519.335 142.731 491.265 94.9854L494.348 93.2031C521.082 138.704 564.871 128.491 600.07 120.293C618.409 116.034 634.236 112.344 643.272 118.279C647.103 120.792 649.456 124.766 650.401 130.398C656.834 166.186 627.231 183.366 589.715 205.11C529.708 239.899 447.547 287.538 440.275 442.147C438.029 489.554 414.753 522.722 376.4 533.148C368.319 535.3 359.989 536.366 351.627 536.32Z" fill="white"/>
<path d="M454.569 52.8535C462.781 52.9009 470.939 54.1805 478.771 56.6497C478.771 56.6497 498.376 90.1022 500.693 97.7658C499.873 105.323 487.13 117.709 487.13 117.709L454.569 52.8535Z" fill="url(#paint20_linear_403:5820)"/>
<path opacity="0.3" d="M454.569 52.8535C462.781 52.9009 470.939 54.1805 478.771 56.6497C478.771 56.6497 498.376 90.1022 500.693 97.7658C499.873 105.323 487.13 117.709 487.13 117.709L454.569 52.8535Z" fill="white"/>
<path d="M512.634 215.269C505.084 206.037 498.199 196.282 492.031 186.076C490.534 183.497 489.114 180.871 487.772 178.198C487.005 176.683 486.275 175.168 485.562 173.636C484.626 172.144 483.9 170.531 483.405 168.841C481.266 146.26 489.001 129.632 481.623 111.507L452.252 122.984C452.252 122.984 454.747 155.279 460.45 174.669C464.014 186.664 471.999 197.036 479.716 206.643C482.122 209.637 484.439 212.72 486.845 215.732C489.251 218.744 491.675 221.186 493.974 224.019C497.449 228.314 498.59 232.431 495.97 237.493L495.524 238.295C494.776 239.614 498.269 241.111 500.479 238.295C504.043 233.697 503.544 233.982 506.645 230.061C508.535 227.691 510.691 225.106 512.562 222.932C513.465 221.863 513.966 220.512 513.979 219.113C513.992 217.714 513.516 216.354 512.634 215.269Z" fill="url(#paint21_linear_403:5820)"/>
<path opacity="0.7" d="M512.634 215.269C505.084 206.037 498.199 196.282 492.031 186.076C490.534 183.497 489.114 180.871 487.772 178.198C487.005 176.683 486.275 175.168 485.562 173.636C484.626 172.144 483.9 170.531 483.405 168.841C481.266 146.26 489.001 129.632 481.623 111.507L452.252 122.984C452.252 122.984 454.747 155.279 460.45 174.669C464.014 186.664 471.999 197.036 479.716 206.643C482.122 209.637 484.439 212.72 486.845 215.732C489.251 218.744 491.675 221.186 493.974 224.019C497.449 228.314 498.59 232.431 495.97 237.493L495.524 238.295C494.776 239.614 498.269 241.111 500.479 238.295C504.043 233.697 503.544 233.982 506.645 230.061C508.535 227.691 510.691 225.106 512.562 222.932C513.465 221.863 513.966 220.512 513.979 219.113C513.992 217.714 513.516 216.354 512.634 215.269Z" fill="white"/>
<path opacity="0.3" d="M505.451 205.983C500.791 210.979 495.617 215.472 490.017 219.386C490.784 220.241 491.532 221.168 492.298 221.988C497.905 218.2 502.998 213.701 507.447 208.603L505.451 205.983Z" fill="url(#paint22_linear_403:5820)"/>
<path opacity="0.3" d="M512.634 215.269L512.42 215.02C511.048 216.593 510.251 218.584 510.156 220.669C510.042 222.099 510.274 223.536 510.834 224.857L512.527 222.844C513.412 221.785 513.906 220.455 513.925 219.075C513.944 217.696 513.489 216.352 512.634 215.269Z" fill="url(#paint23_linear_403:5820)"/>
<path d="M447.582 74.2403C444.398 79.008 440.579 83.3191 436.229 87.0546C433.818 89.1333 431.174 90.9273 428.352 92.4013C426.869 93.161 425.332 93.8103 423.754 94.3439L422.542 94.736L422.15 94.8429L421.312 95.0746C420.796 95.197 420.272 95.2804 419.744 95.3241C418.24 95.4391 416.728 95.3005 415.27 94.9142C413.432 94.3925 411.67 93.6315 410.031 92.6508C408.711 91.8794 407.432 91.0406 406.199 90.1378C403.97 88.4804 401.84 86.6952 399.818 84.7911C395.92 81.0973 392.343 77.0788 389.125 72.7788C388.505 71.9412 388.198 70.9135 388.255 69.8731C388.312 68.8328 388.731 67.845 389.438 67.0803C390.146 66.3156 391.098 65.8219 392.131 65.6844C393.164 65.5469 394.212 65.7742 395.095 66.3272H395.238C399.444 69.0005 403.686 71.8164 407.821 74.3294C409.924 75.5591 411.955 76.8067 413.969 77.7691C414.889 78.2505 415.835 78.6789 416.803 79.0523C417.406 79.3186 418.052 79.4755 418.71 79.5157C418.817 79.5157 418.71 79.3909 418.051 79.4088C417.843 79.3963 417.635 79.3963 417.427 79.4088L417.035 79.4979L417.623 79.1949C418.415 78.7688 419.182 78.2988 419.922 77.7869C421.517 76.6625 423.008 75.3981 424.378 74.0086C427.491 70.7456 430.407 67.2998 433.111 63.6895C434.592 62.0325 436.638 60.9887 438.849 60.7629C441.06 60.5371 443.276 61.1457 445.061 62.4691C446.846 63.7925 448.073 65.7353 448.5 67.9164C448.927 70.0974 448.523 72.3592 447.368 74.2581L447.582 74.2403Z" fill="url(#paint24_linear_403:5820)"/>
<path opacity="0.7" d="M447.582 74.2403C444.398 79.008 440.579 83.3191 436.229 87.0546C433.818 89.1333 431.174 90.9273 428.352 92.4013C426.869 93.161 425.332 93.8103 423.754 94.3439L422.542 94.736L422.15 94.8429L421.312 95.0746C420.796 95.197 420.272 95.2804 419.744 95.3241C418.24 95.4391 416.728 95.3005 415.27 94.9142C413.432 94.3925 411.67 93.6315 410.031 92.6508C408.711 91.8794 407.432 91.0406 406.199 90.1378C403.97 88.4804 401.84 86.6952 399.818 84.7911C395.92 81.0973 392.343 77.0788 389.125 72.7788C388.505 71.9412 388.198 70.9135 388.255 69.8731C388.312 68.8328 388.731 67.845 389.438 67.0803C390.146 66.3156 391.098 65.8219 392.131 65.6844C393.164 65.5469 394.212 65.7742 395.095 66.3272H395.238C399.444 69.0005 403.686 71.8164 407.821 74.3294C409.924 75.5591 411.955 76.8067 413.969 77.7691C414.889 78.2505 415.835 78.6789 416.803 79.0523C417.406 79.3186 418.052 79.4755 418.71 79.5157C418.817 79.5157 418.71 79.3909 418.051 79.4088C417.843 79.3963 417.635 79.3963 417.427 79.4088L417.035 79.4979L417.623 79.1949C418.415 78.7688 419.182 78.2988 419.922 77.7869C421.517 76.6625 423.008 75.3981 424.378 74.0086C427.491 70.7456 430.407 67.2998 433.111 63.6895C434.592 62.0325 436.638 60.9887 438.849 60.7629C441.06 60.5371 443.276 61.1457 445.061 62.4691C446.846 63.7925 448.073 65.7353 448.5 67.9164C448.927 70.0974 448.523 72.3592 447.368 74.2581L447.582 74.2403Z" fill="white"/>
<path d="M382.442 62.513L384.527 66.0775C384.527 66.0775 386.113 70.7469 389.303 71.6024L397.965 68.8043L397.519 68.0736C396.414 66.3983 396.539 63.1368 396.913 60.4278C397.288 57.7188 395.897 57.6297 394.864 58.3069C394.131 59.1496 393.617 60.1595 393.367 61.2476C392.941 60.6591 392.471 60.1049 391.959 59.5901L389.321 56.9524C388.768 56.4116 388.03 56.0999 387.257 56.0801C386.483 56.0603 385.731 56.3337 385.15 56.8455L383.012 58.7525C382.504 59.2218 382.172 59.8496 382.068 60.5329C381.964 61.2162 382.096 61.9144 382.442 62.513Z" fill="url(#paint25_linear_403:5820)"/>
<path opacity="0.7" d="M382.442 62.513L384.527 66.0775C384.527 66.0775 386.113 70.7469 389.303 71.6024L397.965 68.8043L397.519 68.0736C396.414 66.3983 396.539 63.1368 396.913 60.4278C397.288 57.7188 395.897 57.6297 394.864 58.3069C394.131 59.1496 393.617 60.1595 393.367 61.2476C392.941 60.6591 392.471 60.1049 391.959 59.5901L389.321 56.9524C388.768 56.4116 388.03 56.0999 387.257 56.0801C386.483 56.0603 385.731 56.3337 385.15 56.8455L383.012 58.7525C382.504 59.2218 382.172 59.8496 382.068 60.5329C381.964 61.2162 382.096 61.9144 382.442 62.513Z" fill="white"/>
<path d="M463.319 49.6814C453.712 52.2279 444.509 56.1094 435.98 61.2124C434.649 62.0452 433.605 63.2648 432.987 64.7078C432.369 66.1508 432.207 67.7482 432.522 69.2859C435.962 86.1102 443.786 108.638 452.234 122.985L491.639 106.677C491.906 99.7265 482.336 77.2347 472.587 55.4914C470.84 51.5884 467.472 48.6833 463.319 49.6814Z" fill="url(#paint26_linear_403:5820)"/>
<path opacity="0.8" d="M463.319 49.6814C453.712 52.2279 444.509 56.1094 435.98 61.2124C434.649 62.0452 433.605 63.2648 432.987 64.7078C432.369 66.1508 432.207 67.7482 432.522 69.2859C435.962 86.1102 443.786 108.638 452.234 122.985L491.639 106.677C491.906 99.7265 482.336 77.2347 472.587 55.4914C470.84 51.5884 467.472 48.6833 463.319 49.6814Z" fill="white"/>
<path opacity="0.3" d="M478.7 69.2683L470.876 66.6484C472.658 71.2288 478.95 77.0211 483.352 80.4251C481.926 76.8606 480.34 73.118 478.7 69.2683Z" fill="url(#paint27_linear_403:5820)"/>
<path d="M460.735 32.037C457.474 25.8348 450.434 22.7159 441.986 23.411C434.857 24.017 428.548 31.2885 429.296 35.2094C430.045 39.1303 436.033 40.8056 437.174 42.1601L432.237 45.7246C431.652 46.1467 431.159 46.6828 430.787 47.3005C430.415 47.9183 430.171 48.605 430.071 49.3193C429.971 50.0336 430.017 50.7607 430.205 51.4569C430.394 52.1531 430.721 52.804 431.168 53.3704C433.253 56.0081 435.998 58.7171 437.584 60.7132C451.236 60.3567 461.341 55.1526 464.995 50.1445C463.622 43.7998 463.907 38.2035 460.735 32.037Z" fill="url(#paint28_linear_403:5820)"/>
<path opacity="0.8" d="M460.735 32.037C457.474 25.8348 450.434 22.7159 441.986 23.411C434.857 24.017 428.548 31.2885 429.296 35.2094C430.045 39.1303 436.033 40.8056 437.174 42.1601L432.237 45.7246C431.652 46.1467 431.159 46.6828 430.787 47.3005C430.415 47.9183 430.171 48.605 430.071 49.3193C429.971 50.0336 430.017 50.7607 430.205 51.4569C430.394 52.1531 430.721 52.804 431.168 53.3704C433.253 56.0081 435.998 58.7171 437.584 60.7132C451.236 60.3567 461.341 55.1526 464.995 50.1445C463.622 43.7998 463.907 38.2035 460.735 32.037Z" fill="white"/>
<path d="M454.034 35.8868C455.003 38.3724 455.214 41.0894 454.639 43.6946C454.064 46.2997 452.73 48.676 450.805 50.523C448.88 52.37 446.451 53.6049 443.824 54.0716C441.197 54.5382 438.491 54.2156 436.048 53.1446C433.605 52.0736 431.534 50.3023 430.097 48.0545C428.66 45.8067 427.922 43.1834 427.975 40.5161C428.029 37.8489 428.872 35.2575 430.399 33.0694C431.925 30.8813 434.066 29.1949 436.55 28.2232C439.885 26.924 443.599 27.0013 446.877 28.4382C450.156 29.875 452.729 32.554 454.034 35.8868Z" fill="#263238"/>
<path d="M569.754 196.501C569.558 190.638 569.291 191.155 569.131 186.218C569.024 183.188 569.006 179.82 568.988 176.915C568.982 175.535 568.5 174.2 567.623 173.135C566.746 172.07 565.529 171.34 564.176 171.069C561.823 170.588 559.453 170.142 557.047 169.643C553.964 168.984 550.916 168.271 547.904 167.398C545.552 166.72 543.235 165.972 540.936 165.134C538.637 164.296 536.052 163.352 533.664 162.247C530.848 161.053 528.068 159.77 525.323 158.433C522.24 156.971 519.192 155.439 516.145 153.888C504.418 134.48 504.168 121.683 491.586 106.677L464.567 118.903C464.567 118.903 484.421 154.12 497.93 169.055C505.719 177.645 517.927 181.531 528.816 184.347C536.676 186.36 544.643 187.911 552.609 189.39C555.71 189.961 559.079 190.174 561.752 192.028C563.73 193.545 565.086 195.731 565.566 198.177C565.685 198.676 565.792 199.175 565.887 199.674C566.226 201.171 569.879 200.03 569.754 196.501Z" fill="url(#paint29_linear_403:5820)"/>
<path opacity="0.8" d="M569.754 196.501C569.558 190.638 569.291 191.155 569.131 186.218C569.024 183.188 569.006 179.82 568.988 176.915C568.982 175.535 568.5 174.2 567.623 173.135C566.746 172.07 565.529 171.34 564.176 171.069C561.823 170.588 559.453 170.142 557.047 169.643C553.964 168.984 550.916 168.271 547.904 167.398C545.552 166.72 543.235 165.972 540.936 165.134C538.637 164.296 536.052 163.352 533.664 162.247C530.848 161.053 528.068 159.77 525.323 158.433C522.24 156.971 519.192 155.439 516.145 153.888C504.418 134.48 504.168 121.683 491.586 106.677L464.567 118.903C464.567 118.903 484.421 154.12 497.93 169.055C505.719 177.645 517.927 181.531 528.816 184.347C536.676 186.36 544.643 187.911 552.609 189.39C555.71 189.961 559.079 190.174 561.752 192.028C563.73 193.545 565.086 195.731 565.566 198.177C565.685 198.676 565.792 199.175 565.887 199.674C566.226 201.171 569.879 200.03 569.754 196.501Z" fill="white"/>
<path opacity="0.3" d="M556.049 169.411C554.98 169.18 553.91 168.948 552.823 168.681C552.912 174.847 550.025 185.469 548.974 188.695L552.36 189.337C554.579 182.917 555.823 176.2 556.049 169.411Z" fill="url(#paint30_linear_403:5820)"/>
<path opacity="0.3" d="M569.059 176.915C569.054 175.538 568.575 174.205 567.701 173.14C566.828 172.075 565.615 171.344 564.265 171.069L562.483 170.73C562.769 172.757 563.806 174.601 565.388 175.899C566.405 176.84 567.625 177.535 568.952 177.931C569.059 177.61 569.059 177.253 569.059 176.915Z" fill="url(#paint31_linear_403:5820)"/>
<path d="M451.521 35.9934C452.234 38.7023 449.204 41.5361 446.798 39.2014C444.552 36.7937 442.095 34.5927 439.455 32.6249C436.978 31.0744 440.275 28.3654 444.178 29.4169C445.844 29.8353 447.382 30.6526 448.662 31.7984C449.941 32.9441 450.922 34.3838 451.521 35.9934Z" fill="white"/>
<path d="M451.717 122.111C450.469 122.575 452.751 124.713 452.751 124.713C452.751 124.713 477.702 116.177 492.851 107.39C492.888 106.858 492.797 106.325 492.586 105.835C492.375 105.346 492.051 104.913 491.639 104.574C478.674 111.17 465.345 117.025 451.717 122.111Z" fill="url(#paint32_linear_403:5820)"/>
<path opacity="0.5" d="M451.717 122.111C450.469 122.575 452.751 124.713 452.751 124.713C452.751 124.713 477.702 116.177 492.851 107.39C492.888 106.858 492.797 106.325 492.586 105.835C492.375 105.346 492.051 104.913 491.639 104.574C478.674 111.17 465.345 117.025 451.717 122.111Z" fill="white"/>
<path d="M470.074 48.5048C474.993 51 479.609 53.6199 484.332 56.5249C486.631 57.9863 488.912 59.4656 491.176 61.0696C493.439 62.6736 495.685 64.3133 497.948 66.1668L498.786 66.8619L499.837 67.8243C500.464 68.3849 501.059 68.9799 501.62 69.6065C502.19 70.2303 502.671 70.8363 503.135 71.3887C503.598 71.9412 504.097 72.6007 504.507 73.171C506.168 75.4622 507.703 77.842 509.105 80.2999C511.867 85.0662 514.251 90.0421 516.234 95.1816C516.6 96.1526 516.619 97.2207 516.288 98.2041C515.956 99.1875 515.293 100.026 514.413 100.576C513.533 101.126 512.49 101.355 511.46 101.223C510.431 101.09 509.479 100.606 508.766 99.851L508.677 99.7441C505.113 95.9479 501.673 91.9557 498.216 88.2309C494.758 84.506 491.247 80.7276 488.342 79.0702C484.296 76.5572 479.787 74.0443 475.314 71.5848L461.84 64.0994C459.751 62.9933 458.187 61.1026 457.491 58.8432C456.796 56.5838 457.027 54.1407 458.133 52.0515C459.239 49.9623 461.13 48.398 463.389 47.7028C465.649 47.0076 468.092 47.2384 470.181 48.3444L470.074 48.5048Z" fill="url(#paint33_linear_403:5820)"/>
<path opacity="0.8" d="M470.074 48.5048C474.993 51 479.609 53.6199 484.332 56.5249C486.631 57.9863 488.912 59.4656 491.176 61.0696C493.439 62.6736 495.685 64.3133 497.948 66.1668L498.786 66.8619L499.837 67.8243C500.464 68.3849 501.059 68.9799 501.62 69.6065C502.19 70.2303 502.671 70.8363 503.135 71.3887C503.598 71.9412 504.097 72.6007 504.507 73.171C506.168 75.4622 507.703 77.842 509.105 80.2999C511.867 85.0662 514.251 90.0421 516.234 95.1816C516.6 96.1526 516.619 97.2207 516.288 98.2041C515.956 99.1875 515.293 100.026 514.413 100.576C513.533 101.126 512.49 101.355 511.46 101.223C510.431 101.09 509.479 100.606 508.766 99.851L508.677 99.7441C505.113 95.9479 501.673 91.9557 498.216 88.2309C494.758 84.506 491.247 80.7276 488.342 79.0702C484.296 76.5572 479.787 74.0443 475.314 71.5848L461.84 64.0994C459.751 62.9933 458.187 61.1026 457.491 58.8432C456.796 56.5838 457.027 54.1407 458.133 52.0515C459.239 49.9623 461.13 48.398 463.389 47.7028C465.649 47.0076 468.092 47.2384 470.181 48.3444L470.074 48.5048Z" fill="white"/>
<path d="M520.458 104.075L518.943 100.278C518.943 100.278 518.105 95.4307 515.093 94.0762L506.182 95.4841L506.485 96.2683C507.305 98.0506 506.681 101.312 505.879 103.914C505.077 106.516 506.432 106.855 507.572 106.338C508.214 106.053 508.838 104.894 509.515 103.665C509.847 104.284 510.222 104.88 510.638 105.447L512.83 108.459C513.288 109.083 513.965 109.511 514.725 109.656C515.486 109.802 516.273 109.654 516.929 109.243L519.353 107.692C519.92 107.304 520.339 106.735 520.539 106.077C520.74 105.42 520.711 104.713 520.458 104.075Z" fill="url(#paint34_linear_403:5820)"/>
<path opacity="0.8" d="M520.458 104.075L518.943 100.278C518.943 100.278 518.105 95.4307 515.093 94.0762L506.182 95.4841L506.485 96.2683C507.305 98.0506 506.681 101.312 505.879 103.914C505.077 106.516 506.432 106.855 507.572 106.338C508.214 106.053 508.838 104.894 509.515 103.665C509.847 104.284 510.222 104.88 510.638 105.447L512.83 108.459C513.288 109.083 513.965 109.511 514.725 109.656C515.486 109.802 516.273 109.654 516.929 109.243L519.353 107.692C519.92 107.304 520.339 106.735 520.539 106.077C520.74 105.42 520.711 104.713 520.458 104.075Z" fill="white"/>
<path opacity="0.3" d="M462.553 69L460.379 69.1782L447.03 101.401C447.759 101.454 448.493 101.393 449.204 101.223C449.204 101.223 466.599 94.7355 471.856 92.3116C468.327 85.0223 462.553 69 462.553 69Z" fill="url(#paint35_linear_403:5820)"/>
<path d="M438.19 77.4483C439.812 85.8715 442.823 93.9663 447.101 101.402C453.624 99.1559 464.496 94.9142 469.771 92.4903C466.225 84.889 463.078 77.1079 460.343 69.1787C454.765 69.553 442.521 74.2403 438.19 77.4483Z" fill="white"/>
<path opacity="0.3" d="M451.432 84.4171C451.171 85.2887 450.658 86.0634 449.957 86.6432C449.256 87.223 448.399 87.5819 447.494 87.6744C446.589 87.767 445.677 87.589 444.873 87.1631C444.07 86.7372 443.41 86.0824 442.979 85.2816C442.547 84.4808 442.363 83.5701 442.449 82.6645C442.535 81.7589 442.888 80.8993 443.463 80.1943C444.038 79.4893 444.809 78.9706 445.678 78.704C446.548 78.4373 447.477 78.4346 448.349 78.6962C449.516 79.0466 450.496 79.8459 451.074 80.9186C451.652 81.9913 451.781 83.2496 451.432 84.4171Z" fill="url(#paint36_linear_403:5820)"/>
<path opacity="0.6" d="M454.836 78.2861C454.766 78.5836 454.609 78.8531 454.383 79.0594C454.158 79.2656 453.875 79.3988 453.573 79.4416C453.27 79.4844 452.962 79.4348 452.688 79.2992C452.415 79.1636 452.188 78.9484 452.039 78.6818C451.89 78.4153 451.824 78.1098 451.852 77.8056C451.879 77.5013 451.998 77.2125 452.193 76.9769C452.387 76.7414 452.648 76.5702 452.942 76.4858C453.236 76.4013 453.548 76.4076 453.838 76.5039C454.199 76.6193 454.503 76.8675 454.688 77.1983C454.873 77.5291 454.926 77.9179 454.836 78.2861Z" fill="url(#paint37_linear_403:5820)"/>
<path opacity="0.6" d="M458.828 76.7358C458.786 76.9425 458.702 77.1383 458.58 77.3105C458.458 77.4827 458.302 77.6275 458.121 77.7357C457.939 77.8439 457.738 77.9131 457.528 77.9389C457.319 77.9647 457.107 77.9464 456.905 77.8854C456.703 77.8243 456.516 77.7218 456.356 77.5843C456.196 77.4468 456.066 77.2774 455.976 77.087C455.885 76.8965 455.835 76.6893 455.829 76.4784C455.823 76.2676 455.861 76.0578 455.941 75.8625C455.998 75.6739 456.092 75.4984 456.217 75.3461C456.342 75.1938 456.496 75.0677 456.669 74.975C456.843 74.8822 457.034 74.8247 457.23 74.8058C457.426 74.7868 457.624 74.8068 457.812 74.8645C458.194 74.98 458.514 75.2412 458.704 75.5915C458.895 75.9418 458.939 76.353 458.828 76.7358Z" fill="url(#paint38_linear_403:5820)"/>
<path opacity="0.5" d="M464.424 90.6187L447.939 97.1238L446.958 93.8801L463.426 87.375L464.424 90.6187Z" fill="url(#paint39_linear_403:5820)"/>
<path opacity="0.2" d="M373.477 338.315C373.439 348.693 372.436 359.045 370.483 369.237C368.38 378.397 365.112 385.099 360.68 389.34C358.616 391.39 356.165 393.007 353.469 394.1C350.773 395.192 347.887 395.737 344.979 395.703C335.818 395.703 328.826 390.707 324.002 380.714C323.154 378.92 322.434 377.067 321.846 375.172C311.658 383.922 302.171 393.456 293.472 403.687L284.009 414.844C289.102 420.006 294.978 424.331 301.421 427.658C312.518 433.397 327.085 436.273 345.122 436.285C348.294 436.285 351.359 436.195 354.336 436.017C365.247 419.871 374.277 402.53 381.247 384.332L407.714 315.324L373.477 338.315Z" fill="black"/>
<path d="M134.889 432.47L166.078 463.659L253.408 381.374C223.306 369.878 164.777 402.511 134.889 432.47Z" fill="#263238"/>
<path d="M243.659 541.187C233.696 531.206 212.47 509.997 212.47 509.997L294.756 422.668C306.18 452.699 273.547 511.281 243.659 541.187Z" fill="#263238"/>
<path d="M363.033 344.606L397.056 279.002L331.452 313.06C310.38 323.989 290.923 337.784 273.636 354.052L161.801 459.328L216.747 514.275L322.024 402.44C338.299 385.149 352.1 365.686 363.033 344.606Z" fill="url(#paint40_linear_403:5820)"/>
<path opacity="0.6" d="M363.033 344.606L397.056 279.002L331.452 313.06C310.38 323.989 290.923 337.784 273.636 354.052L161.801 459.328L216.747 514.275L322.024 402.44C338.299 385.149 352.1 365.686 363.033 344.606Z" fill="white"/>
<path d="M293.169 405.879C305.867 405.879 316.16 395.586 316.16 382.888C316.16 370.191 305.867 359.897 293.169 359.897C280.472 359.897 270.179 370.191 270.179 382.888C270.179 395.586 280.472 405.879 293.169 405.879Z" fill="white"/>
<path d="M293.169 397.664C301.329 397.664 307.944 391.049 307.944 382.889C307.944 374.729 301.329 368.114 293.169 368.114C285.01 368.114 278.395 374.729 278.395 382.889C278.395 391.049 285.01 397.664 293.169 397.664Z" fill="url(#paint41_linear_403:5820)"/>
<path opacity="0.3" d="M235.336 494.528L181.53 440.722L225.587 399.268L276.791 450.489L235.336 494.528Z" fill="url(#paint42_linear_403:5820)"/>
<path d="M147.062 481.695C106.783 484.957 93.4343 510.746 88.8718 545.018C86.5549 562.502 85.5212 580.199 70.8534 590.429C69.971 591.029 69.3067 591.899 68.9598 592.908C68.613 593.917 68.6023 595.011 68.9294 596.026C69.2566 597.042 69.9039 597.924 70.7744 598.541C71.645 599.158 72.6919 599.476 73.7585 599.448C127.831 597.754 153.05 571.288 156.222 560.238C155.39 566.015 153.901 571.677 151.785 577.116C151.396 578.076 151.32 579.134 151.567 580.14C151.815 581.145 152.373 582.047 153.163 582.716C153.953 583.386 154.934 583.789 155.967 583.868C156.999 583.948 158.031 583.699 158.914 583.158C174.08 573.659 193.115 556.157 194.38 527.766C183.223 511.958 147.062 481.695 147.062 481.695Z" fill="url(#paint43_linear_403:5820)"/>
<path opacity="0.2" d="M147.062 481.695C106.783 484.957 93.4343 510.746 88.8718 545.018C86.5549 562.502 85.5212 580.199 70.8534 590.429C69.971 591.029 69.3067 591.899 68.9598 592.908C68.613 593.917 68.6023 595.011 68.9294 596.026C69.2566 597.042 69.9039 597.924 70.7744 598.541C71.645 599.158 72.6919 599.476 73.7585 599.448C127.831 597.754 153.05 571.288 156.222 560.238C155.39 566.015 153.901 571.677 151.785 577.116C151.396 578.076 151.32 579.134 151.567 580.14C151.815 581.145 152.373 582.047 153.163 582.716C153.953 583.386 154.934 583.789 155.967 583.868C156.999 583.948 158.031 583.699 158.914 583.158C174.08 573.659 193.115 556.157 194.38 527.766C183.223 511.958 147.062 481.695 147.062 481.695Z" fill="white"/>
<path d="M200.636 539.939L136.119 475.422L170.48 467.99L208.068 505.578L200.636 539.939Z" fill="url(#paint44_linear_403:5820)"/>
<defs>
<linearGradient id="paint0_linear_403:5820" x1="51.9083" y1="214.733" x2="243.171" y2="218.321" gradientUnits="userSpaceOnUse">
<stop stop-color="#FE0000"/>
<stop offset="1" stop-color="#FE8900"/>
</linearGradient>
<linearGradient id="paint1_linear_403:5820" x1="257.696" y1="214.698" x2="436.578" y2="217.786" gradientUnits="userSpaceOnUse">
<stop stop-color="#FE0000"/>
<stop offset="1" stop-color="#FE8900"/>
</linearGradient>
<linearGradient id="paint2_linear_403:5820" x1="451.236" y1="214.733" x2="642.589" y2="218.324" gradientUnits="userSpaceOnUse">
<stop stop-color="#FE0000"/>
<stop offset="1" stop-color="#FE8900"/>
</linearGradient>
<linearGradient id="paint3_linear_403:5820" x1="248.72" y1="136.173" x2="255.528" y2="136.321" gradientUnits="userSpaceOnUse">
<stop stop-color="#FE0000"/>
<stop offset="1" stop-color="#FE8900"/>
</linearGradient>
<linearGradient id="paint4_linear_403:5820" x1="24.854" y1="262.818" x2="29.6595" y2="262.923" gradientUnits="userSpaceOnUse">
<stop stop-color="#FE0000"/>
<stop offset="1" stop-color="#FE8900"/>
</linearGradient>
<linearGradient id="paint5_linear_403:5820" x1="412.508" y1="604.349" x2="419.388" y2="604.499" gradientUnits="userSpaceOnUse">
<stop stop-color="#FE0000"/>
<stop offset="1" stop-color="#FE8900"/>
</linearGradient>
<linearGradient id="paint6_linear_403:5820" x1="494.526" y1="469.326" x2="499.332" y2="469.431" gradientUnits="userSpaceOnUse">
<stop stop-color="#FE0000"/>
<stop offset="1" stop-color="#FE8900"/>
</linearGradient>
<linearGradient id="paint7_linear_403:5820" x1="648.422" y1="48.042" x2="653.228" y2="48.1469" gradientUnits="userSpaceOnUse">
<stop stop-color="#FE0000"/>
<stop offset="1" stop-color="#FE8900"/>
</linearGradient>
<linearGradient id="paint8_linear_403:5820" x1="200.333" y1="0.598633" x2="205.138" y2="0.703548" gradientUnits="userSpaceOnUse">
<stop stop-color="#FE0000"/>
<stop offset="1" stop-color="#FE8900"/>
</linearGradient>
<linearGradient id="paint9_linear_403:5820" x1="389.731" y1="121.684" x2="394.536" y2="121.789" gradientUnits="userSpaceOnUse">
<stop stop-color="#FE0000"/>
<stop offset="1" stop-color="#FE8900"/>
</linearGradient>
<linearGradient id="paint10_linear_403:5820" x1="109.813" y1="48.3086" x2="189.578" y2="50.05" gradientUnits="userSpaceOnUse">
<stop stop-color="#FE0000"/>
<stop offset="1" stop-color="#FE8900"/>
</linearGradient>
<linearGradient id="paint11_linear_403:5820" x1="109.766" y1="57.8975" x2="175.779" y2="59.257" gradientUnits="userSpaceOnUse">
<stop stop-color="#FE0000"/>
<stop offset="1" stop-color="#FE8900"/>
</linearGradient>
<linearGradient id="paint12_linear_403:5820" x1="124.392" y1="64.6523" x2="131.673" y2="64.8113" gradientUnits="userSpaceOnUse">
<stop stop-color="#FE0000"/>
<stop offset="1" stop-color="#FE8900"/>
</linearGradient>
<linearGradient id="paint13_linear_403:5820" x1="166.381" y1="61.0879" x2="173.662" y2="61.2469" gradientUnits="userSpaceOnUse">
<stop stop-color="#FE0000"/>
<stop offset="1" stop-color="#FE8900"/>
</linearGradient>
<linearGradient id="paint14_linear_403:5820" x1="154.69" y1="84.2568" x2="166.631" y2="84.5175" gradientUnits="userSpaceOnUse">
<stop stop-color="#FE0000"/>
<stop offset="1" stop-color="#FE8900"/>
</linearGradient>
<linearGradient id="paint15_linear_403:5820" x1="132.198" y1="98.96" x2="148.144" y2="99.3081" gradientUnits="userSpaceOnUse">
<stop stop-color="#FE0000"/>
<stop offset="1" stop-color="#FE8900"/>
</linearGradient>
<linearGradient id="paint16_linear_403:5820" x1="537.07" y1="575.988" x2="554.639" y2="508.204" gradientUnits="userSpaceOnUse">
<stop stop-color="#FE0000"/>
<stop offset="1" stop-color="#FE8900"/>
</linearGradient>
<linearGradient id="paint17_linear_403:5820" x1="555.793" y1="522.509" x2="613.79" y2="523.663" gradientUnits="userSpaceOnUse">
<stop stop-color="#FE0000"/>
<stop offset="1" stop-color="#FE8900"/>
</linearGradient>
<linearGradient id="paint18_linear_403:5820" x1="528.786" y1="539.414" x2="637.096" y2="545.357" gradientUnits="userSpaceOnUse">
<stop stop-color="#FE0000"/>
<stop offset="1" stop-color="#FE8900"/>
</linearGradient>
<linearGradient id="paint19_linear_403:5820" x1="267.557" y1="93.2031" x2="659.521" y2="100.614" gradientUnits="userSpaceOnUse">
<stop stop-color="#FE0000"/>
<stop offset="1" stop-color="#FE8900"/>
</linearGradient>
<linearGradient id="paint20_linear_403:5820" x1="454.569" y1="52.8535" x2="501.688" y2="53.5851" gradientUnits="userSpaceOnUse">
<stop stop-color="#FE0000"/>
<stop offset="1" stop-color="#FE8900"/>
</linearGradient>
<linearGradient id="paint21_linear_403:5820" x1="452.252" y1="111.507" x2="515.32" y2="112.169" gradientUnits="userSpaceOnUse">
<stop stop-color="#FE0000"/>
<stop offset="1" stop-color="#FE8900"/>
</linearGradient>
<linearGradient id="paint22_linear_403:5820" x1="490.017" y1="205.983" x2="507.818" y2="206.407" gradientUnits="userSpaceOnUse">
<stop stop-color="#FE0000"/>
<stop offset="1" stop-color="#FE8900"/>
</linearGradient>
<linearGradient id="paint23_linear_403:5820" x1="510.128" y1="215.02" x2="514.008" y2="215.052" gradientUnits="userSpaceOnUse">
<stop stop-color="#FE0000"/>
<stop offset="1" stop-color="#FE8900"/>
</linearGradient>
<linearGradient id="paint24_linear_403:5820" x1="388.248" y1="60.7168" x2="449.895" y2="63.0638" gradientUnits="userSpaceOnUse">
<stop stop-color="#FE0000"/>
<stop offset="1" stop-color="#FE8900"/>
</linearGradient>
<linearGradient id="paint25_linear_403:5820" x1="382.034" y1="56.0791" x2="398.304" y2="56.4437" gradientUnits="userSpaceOnUse">
<stop stop-color="#FE0000"/>
<stop offset="1" stop-color="#FE8900"/>
</linearGradient>
<linearGradient id="paint26_linear_403:5820" x1="432.365" y1="49.4834" x2="492.92" y2="50.5496" gradientUnits="userSpaceOnUse">
<stop stop-color="#FE0000"/>
<stop offset="1" stop-color="#FE8900"/>
</linearGradient>
<linearGradient id="paint27_linear_403:5820" x1="470.876" y1="66.6484" x2="483.619" y2="66.9004" gradientUnits="userSpaceOnUse">
<stop stop-color="#FE0000"/>
<stop offset="1" stop-color="#FE8900"/>
</linearGradient>
<linearGradient id="paint28_linear_403:5820" x1="429.236" y1="23.3154" x2="465.759" y2="24.0779" gradientUnits="userSpaceOnUse">
<stop stop-color="#FE0000"/>
<stop offset="1" stop-color="#FE8900"/>
</linearGradient>
<linearGradient id="paint29_linear_403:5820" x1="464.567" y1="106.677" x2="571.989" y2="109.311" gradientUnits="userSpaceOnUse">
<stop stop-color="#FE0000"/>
<stop offset="1" stop-color="#FE8900"/>
</linearGradient>
<linearGradient id="paint30_linear_403:5820" x1="548.974" y1="168.681" x2="556.203" y2="168.735" gradientUnits="userSpaceOnUse">
<stop stop-color="#FE0000"/>
<stop offset="1" stop-color="#FE8900"/>
</linearGradient>
<linearGradient id="paint31_linear_403:5820" x1="562.483" y1="170.73" x2="569.2" y2="170.864" gradientUnits="userSpaceOnUse">
<stop stop-color="#FE0000"/>
<stop offset="1" stop-color="#FE8900"/>
</linearGradient>
<linearGradient id="paint32_linear_403:5820" x1="451.344" y1="104.574" x2="493.68" y2="106.48" gradientUnits="userSpaceOnUse">
<stop stop-color="#FE0000"/>
<stop offset="1" stop-color="#FE8900"/>
</linearGradient>
<linearGradient id="paint33_linear_403:5820" x1="457.097" y1="47.3086" x2="517.786" y2="48.768" gradientUnits="userSpaceOnUse">
<stop stop-color="#FE0000"/>
<stop offset="1" stop-color="#FE8900"/>
</linearGradient>
<linearGradient id="paint34_linear_403:5820" x1="505.637" y1="94.0762" x2="520.993" y2="94.3985" gradientUnits="userSpaceOnUse">
<stop stop-color="#FE0000"/>
<stop offset="1" stop-color="#FE8900"/>
</linearGradient>
<linearGradient id="paint35_linear_403:5820" x1="447.03" y1="69" x2="472.391" y2="69.424" gradientUnits="userSpaceOnUse">
<stop stop-color="#FE0000"/>
<stop offset="1" stop-color="#FE8900"/>
</linearGradient>
<linearGradient id="paint36_linear_403:5820" x1="442.428" y1="78.502" x2="451.821" y2="78.707" gradientUnits="userSpaceOnUse">
<stop stop-color="#FE0000"/>
<stop offset="1" stop-color="#FE8900"/>
</linearGradient>
<linearGradient id="paint37_linear_403:5820" x1="451.846" y1="76.4268" x2="454.944" y2="76.4945" gradientUnits="userSpaceOnUse">
<stop stop-color="#FE0000"/>
<stop offset="1" stop-color="#FE8900"/>
</linearGradient>
<linearGradient id="paint38_linear_403:5820" x1="455.828" y1="74.7988" x2="458.953" y2="74.8651" gradientUnits="userSpaceOnUse">
<stop stop-color="#FE0000"/>
<stop offset="1" stop-color="#FE8900"/>
</linearGradient>
<linearGradient id="paint39_linear_403:5820" x1="446.958" y1="87.375" x2="464.778" y2="88.072" gradientUnits="userSpaceOnUse">
<stop stop-color="#FE0000"/>
<stop offset="1" stop-color="#FE8900"/>
</linearGradient>
<linearGradient id="paint40_linear_403:5820" x1="161.801" y1="279.002" x2="402.077" y2="284.247" gradientUnits="userSpaceOnUse">
<stop stop-color="#FE0000"/>
<stop offset="1" stop-color="#FE8900"/>
</linearGradient>
<linearGradient id="paint41_linear_403:5820" x1="278.395" y1="368.114" x2="308.575" y2="368.773" gradientUnits="userSpaceOnUse">
<stop stop-color="#FE0000"/>
<stop offset="1" stop-color="#FE8900"/>
</linearGradient>
<linearGradient id="paint42_linear_403:5820" x1="181.53" y1="399.268" x2="278.824" y2="401.392" gradientUnits="userSpaceOnUse">
<stop stop-color="#FE0000"/>
<stop offset="1" stop-color="#FE8900"/>
</linearGradient>
<linearGradient id="paint43_linear_403:5820" x1="68.6917" y1="481.695" x2="197.054" y2="484.687" gradientUnits="userSpaceOnUse">
<stop stop-color="#FE0000"/>
<stop offset="1" stop-color="#FE8900"/>
</linearGradient>
<linearGradient id="paint44_linear_403:5820" x1="136.119" y1="467.99" x2="209.603" y2="469.595" gradientUnits="userSpaceOnUse">
<stop stop-color="#FE0000"/>
<stop offset="1" stop-color="#FE8900"/>
</linearGradient>
</defs>
</svg>
