<svg class="animated" id="freepik_stories-teenager" xmlns="http://www.w3.org/2000/svg" viewBox="0 0 500 500" version="1.1" xmlns:xlink="http://www.w3.org/1999/xlink" xmlns:svgjs="http://svgjs.com/svgjs"><style>svg#freepik_stories-teenager:not(.animated) .animable {opacity: 0;}svg#freepik_stories-teenager.animated #freepik--background-complete--inject-22 {animation: 1s 1 forwards cubic-bezier(.36,-0.01,.5,1.38) lightSpeedLeft;animation-delay: 0s;}svg#freepik_stories-teenager.animated #freepik--Plant--inject-22 {animation: 1s 1 forwards cubic-bezier(.36,-0.01,.5,1.38) slideLeft;animation-delay: 0s;}svg#freepik_stories-teenager.animated #freepik--Skateboard--inject-22 {animation: 1s 1 forwards cubic-bezier(.36,-0.01,.5,1.38) slideUp;animation-delay: 0s;}svg#freepik_stories-teenager.animated #freepik--Floor--inject-22 {animation: 1s 1 forwards cubic-bezier(.36,-0.01,.5,1.38) fadeIn;animation-delay: 0s;}svg#freepik_stories-teenager.animated #freepik--character-3--inject-22 {animation: 1s 1 forwards cubic-bezier(.36,-0.01,.5,1.38) zoomOut;animation-delay: 0s;}svg#freepik_stories-teenager.animated #freepik--character-1--inject-22 {animation: 1s 1 forwards cubic-bezier(.36,-0.01,.5,1.38) slideDown;animation-delay: 0s;}svg#freepik_stories-teenager.animated #freepik--character-2--inject-22 {animation: 1s 1 forwards cubic-bezier(.36,-0.01,.5,1.38) fadeIn;animation-delay: 0s;}            @keyframes lightSpeedLeft {              from {                transform: translate3d(-50%, 0, 0) skewX(20deg);                opacity: 0;              }              60% {                transform: skewX(-10deg);                opacity: 1;              }              80% {                transform: skewX(2deg);              }              to {                opacity: 1;                transform: translate3d(0, 0, 0);              }            }                    @keyframes slideLeft {                0% {                    opacity: 0;                    transform: translateX(-30px);                }                100% {                    opacity: 1;                    transform: translateX(0);                }            }                    @keyframes slideUp {                0% {                    opacity: 0;                    transform: translateY(30px);                }                100% {                    opacity: 1;                    transform: inherit;                }            }                    @keyframes fadeIn {                0% {                    opacity: 0;                }                100% {                    opacity: 1;                }            }                    @keyframes zoomOut {                0% {                    opacity: 0;                    transform: scale(1.5);                }                100% {                    opacity: 1;                    transform: scale(1);                }            }                    @keyframes slideDown {                0% {                    opacity: 0;                    transform: translateY(-30px);                }                100% {                    opacity: 1;                    transform: translateY(0);                }            }        </style><g id="freepik--background-complete--inject-22" class="animable" style="transform-origin: 249.19px 181.035px;"><rect x="90.65" y="27.06" width="48.65" height="12.87" style="fill: rgb(224, 224, 224); transform-origin: 114.975px 33.495px;" id="elplsb3zqwyrg" class="animable"></rect><path d="M118.73,53.49s0-.09,0-.24l0-.66c0-.6,0-1.45,0-2.53,0-2.22,0-5.42-.08-9.44l.15.15-48.65.09.25-.24h0v3.27c0,1.09,0,2.17,0,3.25v6.33l-.24-.25,34.67.11,10.23.07,2.77,0h.72a1.33,1.33,0,0,1,.26,0h-.22l-.7,0-2.71,0-10.18.07-34.84.11h-.24v-.24c0-2.07,0-4.19,0-6.33V40.64h0l.25-.25,48.65.1h.15v.15c0,4.06-.06,7.29-.08,9.53,0,1.07,0,1.9,0,2.5,0,.26,0,.47,0,.63A.85.85,0,0,1,118.73,53.49Z" style="fill: rgb(224, 224, 224); transform-origin: 94.445px 46.985px;" id="elrnvkn59dfi" class="animable"></path><path d="M318.12,131.76a1,1,0,0,1,0-.23v-.66c0-.61,0-1.45,0-2.53,0-2.23-.05-5.42-.08-9.45l.15.15-48.65.1c.11-.11-.25.25.24-.25h0v12.86l-.24-.24,34.67.11,10.23.07,2.77,0,.72,0h.26a.94.94,0,0,1-.23,0h-.69l-2.72,0-10.17.07-34.84.11h-.25V118.9h0l.25-.25,48.65.1h.15v.15c0,4.07-.06,7.29-.08,9.54,0,1.06,0,1.9,0,2.5l0,.63A1.23,1.23,0,0,1,318.12,131.76Z" style="fill: rgb(224, 224, 224); transform-origin: 293.815px 125.26px;" id="eltpm8tfbm0ec" class="animable"></path><path d="M474.9,314.32a2.07,2.07,0,0,1,0-.23l0-.66c0-.61,0-1.45,0-2.53,0-2.22,0-5.42-.09-9.45l.15.15-48.65.1.25-.25h0V308c0,2.15,0,4.26,0,6.33l-.24-.24,34.67.11,10.24.07,2.76,0,.73,0h.25s-.07,0-.22,0l-.7,0-2.71,0-10.18.07-34.84.11H426v-.25q0-3.1,0-6.33v-6.53h0l.25-.24,48.65.09h.16v.15c0,4.07-.06,7.29-.08,9.54,0,1.07,0,1.9,0,2.5v.63C474.91,314.26,474.91,314.33,474.9,314.32Z" style="fill: rgb(224, 224, 224); transform-origin: 450.53px 307.775px;" id="eltroc93lvat" class="animable"></path><rect x="371.6" y="53.54" width="48.65" height="12.87" style="fill: rgb(224, 224, 224); transform-origin: 395.925px 59.975px;" id="elp6fbadmxug" class="animable"></rect><path d="M434.67,53.54a1.35,1.35,0,0,1,0-.24c0-.17,0-.39,0-.66,0-.6,0-1.45,0-2.53,0-2.22-.05-5.42-.09-9.44l.16.15L386,40.91l.24-.24h0v6.52c0,2.14,0,4.26,0,6.33l-.24-.25,34.67.11,10.24.07,2.77,0h.72l.26,0h-.23l-.69,0-2.72,0-10.18.07L386,53.78h-.24V47.21c0-1.08,0-2.16,0-3.25V40.69h0c.5-.5.14-.14.26-.25l48.65.09h.15v.15c0,4.06-.07,7.29-.09,9.53,0,1.07,0,1.9,0,2.5,0,.26,0,.47,0,.63A1.66,1.66,0,0,1,434.67,53.54Z" style="fill: rgb(224, 224, 224); transform-origin: 410.29px 47.0981px;" id="el6ft4wi1hg29" class="animable"></path><path d="M371.33,247.05s0-.09,0-.24l0-.66c0-.6,0-1.45,0-2.53,0-2.22,0-5.42-.09-9.44l.15.15-48.65.09c.11-.11-.25.25.25-.24h0v6.52c0,2.14,0,4.26,0,6.33l-.24-.25,34.67.11,10.24.07,2.76,0h.73a1.27,1.27,0,0,1,.25,0h-.22l-.69,0-2.72,0-10.18.07-34.84.11h-.24v-6.57c0-1.08,0-2.16,0-3.25V234.2h0l.25-.25,48.65.09h.16v.15c0,4.06-.07,7.29-.09,9.53,0,1.07,0,1.9,0,2.5l0,.63A.85.85,0,0,1,371.33,247.05Z" style="fill: rgb(224, 224, 224); transform-origin: 347.04px 240.545px;" id="ela3mj3azs5x" class="animable"></path><path d="M377.93,234.18s0-.09,0-.25l0-.68c0-.63,0-1.5,0-2.58,0-2.26-.06-5.45-.1-9.37l.18.18-29.23.07c-.22.22.3-.3.25-.24h0v3.33c0,1.11,0,2.2,0,3.27,0,2.16,0,4.25,0,6.25l-.23-.24,20.91.11,6.09.07,1.64,0,.59,0a4.89,4.89,0,0,1-.53,0l-1.59,0-6,.07-21.07.11h-.24v-.23c0-2,0-4.09,0-6.25v-6.6h0l.25-.25,29.23.07h.18v.17c0,4-.07,7.19-.1,9.48,0,1.07,0,1.91,0,2.54A6.84,6.84,0,0,1,377.93,234.18Z" style="fill: rgb(224, 224, 224); transform-origin: 363.43px 227.615px;" id="elw01nhheok5o" class="animable"></path><rect x="392.94" y="164.93" width="48.65" height="12.87" style="fill: rgb(224, 224, 224); transform-origin: 417.265px 171.365px;" id="el9fp5q7rwp2v" class="animable"></rect><rect x="34.28" y="322.14" width="48.65" height="12.87" style="fill: rgb(224, 224, 224); transform-origin: 58.605px 328.575px;" id="elas03c77kp1c" class="animable"></rect><path d="M409.55,150l.5-.31,1.47-.84c1.3-.74,3.21-1.83,5.66-3.27,4.89-2.88,11.92-7.15,20.3-12.91q3.15-2.16,6.53-4.6a43,43,0,0,0,6.53-5.61,16.13,16.13,0,0,0,4.22-8,14.72,14.72,0,0,0-1.6-9.38,15.06,15.06,0,0,0-7.32-6.82,18,18,0,0,0-10.45-1.13,19,19,0,0,0-9.69,5,23.11,23.11,0,0,0-6,9.6l-.43,1.35-.08-1.42c0-.86-.08-1.79-.13-2.72a48.71,48.71,0,0,0-1.73-11.58,20.77,20.77,0,0,0-5.84-9.53A14.07,14.07,0,0,0,406.82,85a13.07,13.07,0,0,0-5.29-.65,16.61,16.61,0,0,0-9.45,4,18.36,18.36,0,0,0-5.35,8.26,25.13,25.13,0,0,0-1.15,9.3,38.86,38.86,0,0,0,5,16.08c1.23,2.3,2.54,4.41,3.82,6.38s2.48,3.83,3.61,5.57c2.26,3.47,4.26,6.44,5.95,8.81s3.08,4.16,4.06,5.35c.48.6.87,1,1.13,1.34s.37.46.37.46-.58-.56-1.58-1.73-2.42-2.94-4.14-5.3-3.75-5.31-6-8.77l-3.64-5.55c-1.29-2-2.62-4.08-3.87-6.38A39.13,39.13,0,0,1,385.15,106a25.61,25.61,0,0,1,1.14-9.47,18.94,18.94,0,0,1,5.47-8.48,17.15,17.15,0,0,1,9.73-4.16,13.77,13.77,0,0,1,5.5.67,14.81,14.81,0,0,1,4.85,2.89,21.27,21.27,0,0,1,6,9.76,48.6,48.6,0,0,1,1.76,11.7c.05.93.09,1.86.13,2.73l-.5-.07a23.59,23.59,0,0,1,6.13-9.82A21.84,21.84,0,0,1,430,98.42a18.94,18.94,0,0,1,5.32-1.82A18.52,18.52,0,0,1,446,97.78a15.69,15.69,0,0,1,7.55,7,15.31,15.31,0,0,1,1.62,9.69,16.51,16.51,0,0,1-4.36,8.2,42.55,42.55,0,0,1-6.61,5.64q-3.39,2.43-6.55,4.58c-8.42,5.72-15.49,9.95-20.41,12.78-2.46,1.42-4.39,2.48-5.71,3.19l-1.5.8Z" style="fill: rgb(224, 224, 224); transform-origin: 420.23px 116.922px;" id="el21o6hlmggqg" class="animable"></path><path d="M401.78,118.15a8,8,0,0,1-.26-1.29c-.13-.94-.31-2.13-.51-3.55-.42-3-.95-7.16-1.52-11.76l.5.09-.09.16c-2.1,4.18-4,8-5.45,10.66l-1.7,3.21a6.2,6.2,0,0,1-.69,1.14,6.94,6.94,0,0,1,.51-1.23l1.55-3.28c1.34-2.76,3.22-6.56,5.32-10.73l.08-.17.39-.76.1.85c.56,4.6,1,8.76,1.36,11.77.14,1.43.26,2.63.35,3.57A5.51,5.51,0,0,1,401.78,118.15Z" style="fill: rgb(224, 224, 224); transform-origin: 396.928px 109.395px;" id="el037xrca4emmh" class="animable"></path><path d="M402.65,112.9a17.7,17.7,0,0,1-4.23-.63,17.43,17.43,0,0,1-4.12-1.13,18,18,0,0,1,4.23.62A17.33,17.33,0,0,1,402.65,112.9Z" style="fill: rgb(224, 224, 224); transform-origin: 398.475px 112.02px;" id="elpmvd4pz8qm" class="animable"></path><path d="M407.51,127a59,59,0,0,1,6-4.77,54.79,54.79,0,0,1,6.35-4.36,59.84,59.84,0,0,1-6,4.78A55.41,55.41,0,0,1,407.51,127Z" style="fill: rgb(224, 224, 224); transform-origin: 413.685px 122.435px;" id="elpybmjcrvic" class="animable"></path><path d="M415.44,130a5.89,5.89,0,0,1-1.19-1.51,29.44,29.44,0,0,1-2.26-4.06,30.35,30.35,0,0,1-1.64-4.35,6.13,6.13,0,0,1-.38-1.88c.15,0,1,2.76,2.49,6S415.57,129.91,415.44,130Z" style="fill: rgb(224, 224, 224); transform-origin: 412.709px 124.1px;" id="el57ebcwtd5qu" class="animable"></path><path d="M430.33,126.05a1.34,1.34,0,0,1,.2-.3,6.19,6.19,0,0,1,.71-.76c.65-.64,1.74-1.38,3-2.37a7.6,7.6,0,0,0,1.79-1.9,3.4,3.4,0,0,0,.34-2.82,3.26,3.26,0,0,0-2.29-2.1,3.3,3.3,0,0,0-3.18,1.07l-.36-.36a9,9,0,0,0,3-3.61,2.84,2.84,0,0,0-1.55-3.56,1.54,1.54,0,0,0-1.75.45,2.92,2.92,0,0,0-.6,1.83,23.83,23.83,0,0,0,.46,3.87c.19,1.21.36,2.35.53,3.4.3,2,.55,3.68.73,4.93l.18,1.34a1.52,1.52,0,0,1,0,.47,1.93,1.93,0,0,1-.13-.45c-.07-.37-.16-.8-.27-1.33-.22-1.24-.53-2.89-.89-4.9-.19-1-.39-2.18-.6-3.39a23.21,23.21,0,0,1-.51-4,3.36,3.36,0,0,1,.71-2.14,2.05,2.05,0,0,1,2.29-.6,3.29,3.29,0,0,1,1.76,1.7,3.23,3.23,0,0,1,.12,2.5,9.31,9.31,0,0,1-3.2,3.85l-.36-.36a3.78,3.78,0,0,1,3.68-1.22,3.67,3.67,0,0,1,2.61,2.43,3.8,3.8,0,0,1-.42,3.17,8,8,0,0,1-1.93,1.95c-1.33,1-2.44,1.66-3.11,2.24S430.36,126.08,430.33,126.05Z" style="fill: rgb(224, 224, 224); transform-origin: 433.031px 117.37px;" id="elpi75dzz6w0p" class="animable"></path><path d="M283.82,79A53.76,53.76,0,0,1,286.66,72,55,55,0,0,1,290,65.33a54.19,54.19,0,0,1-2.84,6.93A54.34,54.34,0,0,1,283.82,79Z" style="fill: rgb(224, 224, 224); transform-origin: 286.91px 72.165px;" id="el4fahyb0zzs2" class="animable"></path><path d="M296.21,76a16.07,16.07,0,0,1-2.3-1.27c-1.39-.82-3.33-1.94-5.5-3.11s-4.18-2.16-5.64-2.87a15.92,15.92,0,0,1-2.33-1.21,10.82,10.82,0,0,1,2.49.88c1.5.62,3.54,1.57,5.73,2.74s4.1,2.35,5.45,3.26A11.07,11.07,0,0,1,296.21,76Z" style="fill: rgb(224, 224, 224); transform-origin: 288.325px 71.77px;" id="elbxevhg3lba" class="animable"></path><path d="M309,69.77a17.13,17.13,0,0,1,2.27-6,16.93,16.93,0,0,1,3.9-5c.12.1-1.75,2.25-3.45,5.3S309.11,69.82,309,69.77Z" style="fill: rgb(224, 224, 224); transform-origin: 312.088px 64.2703px;" id="elbq8pmep6cyi" class="animable"></path><path d="M317.83,66.62a46.92,46.92,0,0,1-6.44-2.71,46.67,46.67,0,0,1-6.22-3.19,48.48,48.48,0,0,1,6.44,2.71A46.67,46.67,0,0,1,317.83,66.62Z" style="fill: rgb(224, 224, 224); transform-origin: 311.5px 63.67px;" id="eld0e5qgmhj8f" class="animable"></path><path d="M324.47,72.67c0,.14-8.2,3-18.42,6.5s-18.55,6.14-18.59,6,8.2-3.05,18.42-6.5S324.43,72.53,324.47,72.67Z" style="fill: rgb(224, 224, 224); transform-origin: 305.965px 78.92px;" id="elyz47a2r384g" class="animable"></path><path d="M320.33,74.68a4.29,4.29,0,0,1,.61.92,18.07,18.07,0,0,1,1.34,2.72,8.37,8.37,0,0,1,.54,4.5,5.9,5.9,0,0,1-1.05,2.51A4.46,4.46,0,0,1,319.35,87,6.34,6.34,0,0,1,314,85.69a9.88,9.88,0,0,1-2.7-3.63,21.8,21.8,0,0,1-1.06-2.84,4.56,4.56,0,0,1-.27-1.08c.1,0,.55,1.49,1.66,3.76a10,10,0,0,0,2.66,3.41,5.88,5.88,0,0,0,4.92,1.18A4,4,0,0,0,321.37,85a5.52,5.52,0,0,0,1-2.29,8.24,8.24,0,0,0-.42-4.28,25.93,25.93,0,0,0-1.16-2.75A4.8,4.8,0,0,1,320.33,74.68Z" style="fill: rgb(224, 224, 224); transform-origin: 316.445px 80.9091px;" id="elu304y2irmxt" class="animable"></path><path d="M316.86,82.12a7.28,7.28,0,0,1-1.26-2.4,7.19,7.19,0,0,1-.79-2.59,7.19,7.19,0,0,1,1.27,2.4A7.05,7.05,0,0,1,316.86,82.12Z" style="fill: rgb(224, 224, 224); transform-origin: 315.835px 79.625px;" id="elfxsx0l8xnwl" class="animable"></path><path d="M416.45,268.85a13.25,13.25,0,0,1,1.52.32,8.86,8.86,0,0,0,1.79.2,4.38,4.38,0,0,0,2.24-.58,2.68,2.68,0,0,0,1.41-2.21,8.71,8.71,0,0,0-.78-3.17L420,256.12l-1.39-4,.42.1c-3.23,3.1-6.07,5.8-8.11,7.72l-2.42,2.22a6.39,6.39,0,0,1-.91.77,5.55,5.55,0,0,1,.79-.89l2.31-2.34c2-2,4.77-4.72,8-7.85l.29-.27.13.37,1.4,4c.91,2.58,1.77,5.05,2.56,7.3a9.09,9.09,0,0,1,.75,3.35,3.08,3.08,0,0,1-1.66,2.51,4.57,4.57,0,0,1-2.42.55,9,9,0,0,1-1.83-.29c-.49-.13-.86-.26-1.11-.35S416.44,268.87,416.45,268.85Z" style="fill: rgb(224, 224, 224); transform-origin: 415.705px 260.623px;" id="el73bcip36bqg" class="animable"></path><path d="M425.68,255s0-.09.09-.25a2,2,0,0,1,.54-.58,3,3,0,0,1,2.82-.26,5.23,5.23,0,0,1,2.68,3.24,10.34,10.34,0,0,1,.59,2.45,4.07,4.07,0,0,1-.58,2.7,2.85,2.85,0,0,1-2.49,1.21,4.51,4.51,0,0,1-2.42-.87,4.35,4.35,0,0,1-1.42-1.83,6.69,6.69,0,0,1-.51-1.92,13.53,13.53,0,0,1,0-2.83,4,4,0,0,1,.17-1,4,4,0,0,1,0,1,16.46,16.46,0,0,0,.15,2.77,5,5,0,0,0,1.85,3.41,4.06,4.06,0,0,0,2.14.75,2.34,2.34,0,0,0,2.05-1,3.53,3.53,0,0,0,.5-2.36,9.69,9.69,0,0,0-.53-2.32,4.93,4.93,0,0,0-2.37-3.07,2.9,2.9,0,0,0-2.57.09A3.63,3.63,0,0,0,425.68,255Z" style="fill: rgb(224, 224, 224); transform-origin: 428.671px 258.594px;" id="el30u9k9lybt1" class="animable"></path><path d="M445.4,260.94a3.71,3.71,0,0,1-.53-.63l-1.37-1.84c-1.2-1.69-2.82-4-4.73-6.61l.41,0a19.14,19.14,0,0,0-1.47,8.71c0,.57.11,1.14.18,1.67l.27,1.9-.76-1.75c-2.09-4.78-3.74-9.13-4.83-12.28-.55-1.58-1-2.86-1.24-3.75a8.33,8.33,0,0,1-.37-1.39,7.79,7.79,0,0,1,.55,1.33l1.39,3.68c1.18,3.13,2.88,7.44,5,12.2l-.49.14c-.08-.54-.16-1.13-.19-1.72a19.08,19.08,0,0,1,1.56-8.93l.17-.38.23.34,4.58,6.72,1.26,1.92A3.23,3.23,0,0,1,445.4,260.94Z" style="fill: rgb(224, 224, 224); transform-origin: 438.18px 254.555px;" id="elzc8k1de8gus" class="animable"></path><path d="M452.89,258.74a3.27,3.27,0,0,1-.44-.75l-1.05-2.13c-.88-1.83-2.09-4.4-3.44-7.34h.46a16.51,16.51,0,0,0-1.11,2.61,17.55,17.55,0,0,0-.87,6.48l-.45.06c-.49-2.2-.89-4-1.15-5.34a10.94,10.94,0,0,1-.33-2.07,13.47,13.47,0,0,1,.6,2c.34,1.28.79,3.11,1.32,5.3l-.45.07a17.31,17.31,0,0,1,.83-6.68,17.9,17.9,0,0,1,1.16-2.68l.24-.45.21.47c1.33,2.95,2.48,5.55,3.28,7.41l.92,2.2A3.25,3.25,0,0,1,452.89,258.74Z" style="fill: rgb(224, 224, 224); transform-origin: 448.7px 253.28px;" id="el0edglg7m3ihr" class="animable"></path><path d="M448.34,226.23a2.64,2.64,0,0,1,.29.88,7,7,0,0,1,.06,2.52,8.49,8.49,0,0,1-1.37,3.51,7.56,7.56,0,0,1-8.16,3.23,8.31,8.31,0,0,1-3.39-1.62,7.14,7.14,0,0,1-1.69-1.88,2.41,2.41,0,0,1-.38-.84,11.14,11.14,0,0,0,2.29,2.43,8.58,8.58,0,0,0,3.27,1.44,7.24,7.24,0,0,0,7.67-3,8.67,8.67,0,0,0,1.4-3.29A11.7,11.7,0,0,0,448.34,226.23Z" style="fill: rgb(224, 224, 224); transform-origin: 441.238px 231.41px;" id="eljeltgkc8km9" class="animable"></path><path d="M435.58,229.7a5.43,5.43,0,0,1-1.58-5.13c.15,0,.17,1.22.61,2.62S435.7,229.61,435.58,229.7Z" style="fill: rgb(224, 224, 224); transform-origin: 434.733px 227.135px;" id="ela070v7fo8ag" class="animable"></path><path d="M441.83,227.36c-.13,0-.6-.78-1-1.87a4.68,4.68,0,0,1-.56-2.07c.13,0,.6.78,1,1.87S442,227.3,441.83,227.36Z" style="fill: rgb(224, 224, 224); transform-origin: 441.073px 225.39px;" id="el5w76yj0o1qc" class="animable"></path><path d="M304,229.87s.19-.38.59-1.09l1.77-3.13,6.78-11.85,24.34-42.3.35.27-35.13,35.47-.39-.33c3.85-5.85,7.87-12,12-18.2l19.61-29.79.39.32-38.39,38.13-.73.72.4-.94c6-13.91,11.28-25,15.06-32.66,1.89-3.82,3.4-6.77,4.43-8.77.52-1,.92-1.74,1.19-2.27s.43-.76.43-.76-.12.27-.38.79l-1.13,2.29-4.34,8.82c-3.71,7.66-9,18.79-14.89,32.72l-.32-.22L334,158.88l1.73-1.73-1.35,2c-6.24,9.48-12.81,19.48-19.6,29.79l-12,18.21-.4-.33,35.17-35.41,1.22-1.23-.87,1.5-24.5,42.2-6.88,11.79-1.83,3.1C304.24,229.52,304,229.87,304,229.87Z" style="fill: rgb(224, 224, 224); transform-origin: 316.98px 191.28px;" id="el4n8u4o6qgg3" class="animable"></path><path d="M325.26,204.38a2.18,2.18,0,0,1-.41-.35L323.74,203c-1-.93-2.31-2.31-4-4-3.29-3.45-7.7-8.37-12.27-14s-8.45-11-11.13-15c-1.35-2-2.41-3.58-3.11-4.72-.33-.52-.6-1-.81-1.3a1.73,1.73,0,0,1-.25-.48,2.75,2.75,0,0,1,.34.42l.88,1.25,3.25,4.62c2.76,3.89,6.66,9.19,11.23,14.85s8.93,10.59,12.14,14.11l3.84,4.15,1,1.13A2,2,0,0,1,325.26,204.38Z" style="fill: rgb(224, 224, 224); transform-origin: 308.715px 183.94px;" id="eln3sje1eenc" class="animable"></path><path d="M330.48,198.1s-.14-.12-.35-.37l-.92-1.12c-.8-1-1.92-2.42-3.29-4.21-2.74-3.59-6.41-8.62-10.28-14.31s-7.18-11-9.5-14.84c-1.16-1.93-2.08-3.51-2.7-4.61l-.7-1.27a1.72,1.72,0,0,1-.21-.46,1.92,1.92,0,0,1,.3.41l.79,1.22,2.83,4.52c2.4,3.81,5.76,9.05,9.62,14.74s7.49,10.74,10.14,14.38l3.16,4.3.84,1.18A2,2,0,0,1,330.48,198.1Z" style="fill: rgb(224, 224, 224); transform-origin: 316.505px 177.505px;" id="elgg6xevqpy2n" class="animable"></path><path d="M328.13,188.58c-.13.07-4.35-7.29-9.42-16.43s-9.1-16.62-9-16.69,4.34,7.29,9.42,16.43S328.26,188.51,328.13,188.58Z" style="fill: rgb(224, 224, 224); transform-origin: 318.921px 172.02px;" id="elin5viv6plsa" class="animable"></path><path d="M47,117.87s0-.08.08-.22.16-.36.3-.63c.28-.54.71-1.32,1.34-2.29,1.22-2,3.37-4.53,5.79-7.85a29.26,29.26,0,0,0,3.3-5.79,13.75,13.75,0,0,0,1-7.42,6.14,6.14,0,0,0-1.78-3.52,5.26,5.26,0,0,0-3.85-1.26,8,8,0,0,0-4.08,1.41,11.62,11.62,0,0,0-3,3.35,34.9,34.9,0,0,0-2.42,4.86l-.27.62-.21-.65a14.75,14.75,0,0,0-1.73-3.7,5.15,5.15,0,0,0-3-2.29,3.72,3.72,0,0,0-3.37.94,5.47,5.47,0,0,0-1.72,3,13.5,13.5,0,0,0,.75,6.58,21.51,21.51,0,0,0,2.52,5.25,22.78,22.78,0,0,0,5.75,6.07,21.5,21.5,0,0,0,1.9,1.26,5.33,5.33,0,0,1,.67.42,4.78,4.78,0,0,1-.72-.34,16.69,16.69,0,0,1-2-1.18,22.42,22.42,0,0,1-5.93-6,22.09,22.09,0,0,1-2.62-5.31,13.73,13.73,0,0,1-.81-6.8,6,6,0,0,1,1.85-3.3A4.25,4.25,0,0,1,38.66,92a5.65,5.65,0,0,1,3.28,2.49,15.61,15.61,0,0,1,1.8,3.83l-.48,0a35.85,35.85,0,0,1,2.45-4.93,12.34,12.34,0,0,1,3.17-3.5,8.45,8.45,0,0,1,4.36-1.49,5.78,5.78,0,0,1,4.21,1.4,6.67,6.67,0,0,1,1.92,3.8,14.18,14.18,0,0,1-1.13,7.68,29.52,29.52,0,0,1-3.4,5.84c-2.48,3.31-4.65,5.82-5.92,7.74-.65,1-1.11,1.71-1.42,2.23A6.79,6.79,0,0,1,47,117.87Z" style="fill: rgb(224, 224, 224); transform-origin: 46.1298px 103.127px;" id="elry66zqwloea" class="animable"></path><path d="M71.7,87.71c.07.13-4.3,2.41-9.75,5.1S52,97.58,52,97.45s4.3-2.42,9.74-5.1S71.64,87.58,71.7,87.71Z" style="fill: rgb(224, 224, 224); transform-origin: 61.8504px 92.58px;" id="ellxeyhbkjsdt" class="animable"></path><path d="M69.5,93.15a6.2,6.2,0,0,1,.64-2,18.13,18.13,0,0,1,2.73-4.36l.24.43H73a30,30,0,0,1-5.2.38,7.14,7.14,0,0,1-2.14-.21c0-.16,3.28,0,7.26-.68l.11,0,.69-.11-.45.54A32.74,32.74,0,0,0,69.5,93.15Z" style="fill: rgb(224, 224, 224); transform-origin: 69.69px 89.875px;" id="elyps66dcfhe" class="animable"></path><path d="M23.32,106.66a47.15,47.15,0,0,1,5.61-2.2,47.64,47.64,0,0,1,5.7-1.95A28,28,0,0,1,29.11,105,27.92,27.92,0,0,1,23.32,106.66Z" style="fill: rgb(224, 224, 224); transform-origin: 28.975px 104.585px;" id="elagzvwbd9qh" class="animable"></path><path d="M23.73,109.4c-.12-.07.29-1,.93-2s1.25-1.77,1.37-1.69-.29,1-.93,2S23.85,109.48,23.73,109.4Z" style="fill: rgb(224, 224, 224); transform-origin: 24.88px 107.555px;" id="elwfuh57ogm3l" class="animable"></path><path d="M26.89,109.81a6.24,6.24,0,0,1,.73-2.45,6.49,6.49,0,0,1,1.21-2.24,6.17,6.17,0,0,1-.73,2.44A6.48,6.48,0,0,1,26.89,109.81Z" style="fill: rgb(224, 224, 224); transform-origin: 27.86px 107.465px;" id="el5brm0nxaapq" class="animable"></path><path d="M26.31,105.77c-.09.12-.77-.21-1.54-.74s-1.33-1.06-1.24-1.18.77.22,1.53.75S26.39,105.66,26.31,105.77Z" style="fill: rgb(224, 224, 224); transform-origin: 24.919px 104.81px;" id="elysk8cgn653" class="animable"></path><path d="M28.45,104.92c-.1.1-.8-.43-1.3-1.37s-.55-1.82-.42-1.84.41.74.88,1.6S28.55,104.81,28.45,104.92Z" style="fill: rgb(224, 224, 224); transform-origin: 27.5662px 103.321px;" id="elijdolb7ygsa" class="animable"></path><path d="M50,106.63a5.25,5.25,0,0,1-1.64.34,14,14,0,0,1-4.42-.23l-.39-.08.27-.3a6,6,0,0,0,1.38-2,1.8,1.8,0,0,0,0-1.19,1.62,1.62,0,0,0-.75-.94A1.16,1.16,0,0,0,43,103a3.35,3.35,0,0,0,0,2A17,17,0,0,0,44,108.37c.83,1.88,1.61,2.9,1.54,2.95s-.25-.21-.6-.68a14.22,14.22,0,0,1-1.27-2.11,15.55,15.55,0,0,1-1.2-3.47,3.8,3.8,0,0,1,0-2.26,2,2,0,0,1,.83-1,1.48,1.48,0,0,1,1.36,0,2.24,2.24,0,0,1,1,2.76,6.37,6.37,0,0,1-1.52,2.14l-.12-.39A20.89,20.89,0,0,0,50,106.63Z" style="fill: rgb(224, 224, 224); transform-origin: 46.149px 106.48px;" id="eltfu4x91f78m" class="animable"></path></g><g id="freepik--Plant--inject-22" class="animable" style="transform-origin: 63.4419px 430.583px;"><path d="M63.47,404.55a9.82,9.82,0,0,1,5.06,5.73A17.4,17.4,0,0,1,69.2,418c-.57,5-3.43,10.12-6.51,14.14-4.24-3.7-5.22-10.15-5.51-13.46-.46-5.22,1.89-14.94,6.29-14.17" style="fill: #FE8900; transform-origin: 63.2442px 418.303px;" id="el3jx4n6gdgxm" class="animable"></path><path d="M67.61,440.49a8.35,8.35,0,0,1,2.69-7.91A11.07,11.07,0,0,1,78.46,430,4.66,4.66,0,0,1,82,431.64a3.56,3.56,0,0,1,0,3.61,7.17,7.17,0,0,1-2.67,2.63c-3.67,2.3-7.65,3.86-11.81,2.61" style="fill: #FE8900; transform-origin: 74.9707px 435.444px;" id="elrpaq6sqx9aq" class="animable"></path><path d="M62.18,455.93a5.19,5.19,0,0,1,.15-1c.13-.73.3-1.67.51-2.8a29.21,29.21,0,0,1,2.89-8.93,17.78,17.78,0,0,1,6.41-6.81,12.08,12.08,0,0,1,2.61-1.16,6.28,6.28,0,0,1,.75-.19.8.8,0,0,1,.27,0,16.61,16.61,0,0,0-9.72,8.38,31.75,31.75,0,0,0-3,8.8c-.25,1.18-.46,2.13-.62,2.78A5.62,5.62,0,0,1,62.18,455.93Z" style="fill: rgb(38, 50, 56); transform-origin: 68.975px 445.479px;" id="el3i5myl98bzk" class="animable"></path><path d="M62.34,412.11a2.43,2.43,0,0,1,0,.46c0,.33,0,.76.07,1.29.07,1.13.13,2.76.2,4.78.13,4,.23,9.61.2,15.77s-.17,11.74-.34,15.77c-.08,2-.16,3.65-.23,4.78q-.06.8-.09,1.29a1.76,1.76,0,0,1-.06.45,2.19,2.19,0,0,1,0-.45c0-.34,0-.77,0-1.3,0-1.17.07-2.79.12-4.78.1-4,.21-9.6.24-15.76s0-11.73-.1-15.76c0-2-.06-3.61-.08-4.78,0-.53,0-1,0-1.3A1.84,1.84,0,0,1,62.34,412.11Z" style="fill: rgb(38, 50, 56); transform-origin: 62.4469px 434.405px;" id="elgsik66bgibd" class="animable"></path><path d="M60.28,443.56a19.5,19.5,0,0,0-10.64-14.27c-1.41-.68-3.26-1.12-4.43-.07s-.9,2.95-.33,4.42A16.62,16.62,0,0,0,60.18,444" style="fill: #FE8900; transform-origin: 52.3362px 436.296px;" id="el8znqd4ofpi7" class="animable"></path><path d="M50.33,434.07a5.69,5.69,0,0,1,.9.39,9.54,9.54,0,0,1,1,.54c.38.24.84.47,1.29.81A18,18,0,0,1,55,436.93a20.22,20.22,0,0,1,1.58,1.43,21.92,21.92,0,0,1,3,3.85,21.05,21.05,0,0,1,2,4.46,18.07,18.07,0,0,1,.49,2.07,14.77,14.77,0,0,1,.26,1.84,14,14,0,0,1,.07,1.52,8,8,0,0,1,0,1.15,5.49,5.49,0,0,1-.1,1c-.09,0,.06-1.4-.19-3.63a17.12,17.12,0,0,0-.29-1.8,20.4,20.4,0,0,0-.53-2,21.91,21.91,0,0,0-2-4.37,22.5,22.5,0,0,0-2.92-3.8,20.09,20.09,0,0,0-1.53-1.44A18,18,0,0,0,53.39,436C51.57,434.72,50.29,434.14,50.33,434.07Z" style="fill: rgb(38, 50, 56); transform-origin: 56.3749px 444.16px;" id="el6n4jf2ay7st" class="animable"></path></g><g id="freepik--Skateboard--inject-22" class="animable" style="transform-origin: 266.784px 377.114px;"><path d="M266,307.62s-23.15,31.79-26.56,66.84-9.23,82-9.23,82h38.47Z" style="fill: rgb(224, 224, 224); transform-origin: 249.445px 382.04px;" id="elfy7lm7pwj2" class="animable"></path><path d="M275.84,297.38s-10.07-1.39-16.22,14.25c-7.16,18.22-12,32.43-11.3,53.56.6,17.4,9.51,68.25,12.64,85.7a7.23,7.23,0,0,0,7.13,5.95h19.82a7.24,7.24,0,0,0,7.18-6.32c2.3-18.2,8.52-70.64,6.3-90C298.69,336.94,294.51,298.85,275.84,297.38Z" style="fill: #FE8900; transform-origin: 275.057px 377.094px;" id="elfv0rbb47jj" class="animable"></path><path d="M298.6,336.46s0,.29,0,.83-.09,1.39-.16,2.37-.3,2.28-.49,3.74-.55,3.09-1.07,4.86a57.15,57.15,0,0,1-4.68,12.09A59.47,59.47,0,0,1,283,373.29a55.22,55.22,0,0,1-12.34,10c-4.22,2.45-8.16,4.44-11,6.83a18.12,18.12,0,0,0-5.28,6.82,12.75,12.75,0,0,0-.7,2.26c-.1.53-.16.81-.16.81s0-.28.11-.82a13.2,13.2,0,0,1,.66-2.29,18,18,0,0,1,5.26-6.91c2.82-2.43,6.78-4.44,11-6.89a55.88,55.88,0,0,0,12.27-9.94A59.74,59.74,0,0,0,292,360.24a57.5,57.5,0,0,0,4.71-12c.54-1.77.78-3.42,1.11-4.85s.41-2.69.53-3.72.15-1.76.2-2.36S298.6,336.46,298.6,336.46Z" style="fill: rgb(250, 250, 250); transform-origin: 276.06px 368.235px;" id="elnseo60amsvb" class="animable"></path><path d="M296.25,328.35s-.21.61-.61,1.74-1,2.8-1.89,4.92a105.33,105.33,0,0,1-27.95,38.74c-1,.9-2.09,1.74-3.15,2.64a21.78,21.78,0,0,1-3.46,2.41,8,8,0,0,1-4.16,1.1,5.83,5.83,0,0,1-3.94-1.85,8.91,8.91,0,0,1-2.17-3.9,17.52,17.52,0,0,1-.52-4.52c0-3,.08-6.12.26-9.25a38.59,38.59,0,0,1,1.54-9.13,21,21,0,0,1,4.39-7.82,13.36,13.36,0,0,1,7.43-4.3,11.53,11.53,0,0,1,8.09,1.37,9.2,9.2,0,0,1,4.23,6.5,13.58,13.58,0,0,1-.88,7.37,23,23,0,0,1-3.65,5.93,46.17,46.17,0,0,1-4.42,4.67,11.18,11.18,0,0,1-5.1,2.8,5.26,5.26,0,0,1-4.82-1.53,7.51,7.51,0,0,1-1.9-4.08,9.34,9.34,0,0,1,.27-3.79,20.59,20.59,0,0,1,2.11-4.83c.6-1.05.94-1.58.94-1.58l-.9,1.6a21.74,21.74,0,0,0-2.06,4.83,9.19,9.19,0,0,0-.24,3.75,7.33,7.33,0,0,0,1.88,4,5.12,5.12,0,0,0,4.7,1.48,11,11,0,0,0,5-2.78,44.76,44.76,0,0,0,4.39-4.66,22.54,22.54,0,0,0,3.61-5.89,13.45,13.45,0,0,0,.86-7.25,9.05,9.05,0,0,0-4.13-6.35,11.33,11.33,0,0,0-7.94-1.33,13.16,13.16,0,0,0-7.3,4.23,21,21,0,0,0-4.33,7.73,38.07,38.07,0,0,0-1.52,9.08c-.19,3.11-.23,6.2-.27,9.23a17.37,17.37,0,0,0,.51,4.45,8.59,8.59,0,0,0,2.11,3.8,5.59,5.59,0,0,0,3.79,1.79,7.82,7.82,0,0,0,4-1.07,21.67,21.67,0,0,0,3.43-2.39c1.06-.89,2.14-1.73,3.14-2.63a106.46,106.46,0,0,0,28-38.6c.88-2.12,1.54-3.77,1.94-4.91S296.25,328.35,296.25,328.35Z" style="fill: rgb(250, 250, 250); transform-origin: 272.324px 354.125px;" id="elbwgkjvlysy" class="animable"></path><path d="M295.92,316.73s0,.2-.14.58-.25.94-.52,1.64a22,22,0,0,1-3,5.56,23.67,23.67,0,0,1-6.93,6.29,22.1,22.1,0,0,1-5.08,2.24,26.09,26.09,0,0,1-5.88,1c-4.08.23-8-.05-11.48.25a20,20,0,0,0-8.86,2.66,13.48,13.48,0,0,0-2.81,2.21,10.92,10.92,0,0,0-1.58,2.19,15.47,15.47,0,0,0-.86,2.14l.15-.58a8,8,0,0,1,.63-1.61,10.5,10.5,0,0,1,1.56-2.23,13.43,13.43,0,0,1,2.82-2.27,20,20,0,0,1,8.93-2.73c3.53-.32,7.42,0,11.48-.27a26.12,26.12,0,0,0,5.83-1,21.42,21.42,0,0,0,5-2.21,23.35,23.35,0,0,0,6.91-6.19,22.78,22.78,0,0,0,3.06-5.49,17,17,0,0,0,.56-1.62C295.85,316.92,295.92,316.73,295.92,316.73Z" style="fill: rgb(250, 250, 250); transform-origin: 272.35px 330.11px;" id="elnaru569xgwb" class="animable"></path><path d="M254.77,333.57a6.15,6.15,0,0,1,.51-1.73,11.53,11.53,0,0,1,2.92-3.94,27.37,27.37,0,0,1,6.16-3.9,42.75,42.75,0,0,0,7.59-4.62A36.93,36.93,0,0,0,282.13,307a37.76,37.76,0,0,0,1.94-4.5l.42-1.26c.1-.29.17-.44.17-.44l-.12.45c-.11.36-.23.79-.38,1.28a34.57,34.57,0,0,1-1.87,4.55,36.62,36.62,0,0,1-10.19,12.5,42.69,42.69,0,0,1-7.64,4.63,28,28,0,0,0-6.15,3.83,11.87,11.87,0,0,0-2.95,3.85,10,10,0,0,0-.46,1.25C254.82,333.42,254.77,333.57,254.77,333.57Z" style="fill: rgb(250, 250, 250); transform-origin: 269.715px 317.185px;" id="elkjwd0bbvvyj" class="animable"></path><path d="M284.93,399.75h-.31c-.2,0-.5-.05-.9-.05a19,19,0,0,0-8.64,1.85,16.82,16.82,0,0,0-5.7,4.35,9.16,9.16,0,0,0-1.85,3.7,4.72,4.72,0,0,0,1,4.21,5.93,5.93,0,0,0,4.31,1.82,12.4,12.4,0,0,0,5-1.16,33.45,33.45,0,0,0,9.34-5.95,23.51,23.51,0,0,0,6.82-9.6,11.79,11.79,0,0,0,.49-5.93,10.18,10.18,0,0,0-2.58-5.15,7.61,7.61,0,0,0-4.95-2.35,13.16,13.16,0,0,0-5.31.88,55.89,55.89,0,0,0-16,9.8,57.73,57.73,0,0,0-8.64,9.31c-.89,1.21-1.56,2.17-2,2.84s-.67,1-.67,1a46,46,0,0,1,2.58-3.9,57.43,57.43,0,0,1,8.6-9.38,56.1,56.1,0,0,1,16-9.88,13.3,13.3,0,0,1,5.39-.9,7.92,7.92,0,0,1,5.12,2.41,10.49,10.49,0,0,1,2.64,5.27,12,12,0,0,1-.5,6.05,23.69,23.69,0,0,1-6.89,9.71,33.63,33.63,0,0,1-9.41,6,12.56,12.56,0,0,1-5.07,1.18,6.16,6.16,0,0,1-4.47-1.91,4.9,4.9,0,0,1-1-4.38,9.21,9.21,0,0,1,1.9-3.77,16.91,16.91,0,0,1,5.77-4.36,18.5,18.5,0,0,1,5.24-1.59,17.74,17.74,0,0,1,3.46-.19C284.52,399.69,284.93,399.75,284.93,399.75Z" style="fill: rgb(250, 250, 250); transform-origin: 274.595px 400.564px;" id="el2no8vlt4ecp" class="animable"></path><path d="M300.69,399.91s-.08.16-.26.46-.49.79-.8,1.31a21.77,21.77,0,0,1-1.36,2,31,31,0,0,1-2,2.55l-1.2,1.42c-.43.49-.92,1-1.4,1.47-.95,1-2.09,2-3.26,3.06A50,50,0,0,1,272.62,422c-1.51.42-2.95.86-4.33,1.1-.68.14-1.34.3-2,.4l-1.85.25a31.83,31.83,0,0,1-3.2.29,21.07,21.07,0,0,1-2.42.07l-1.53,0c-.35,0-.53,0-.53,0s.18,0,.53,0l1.53,0a21.72,21.72,0,0,0,2.41-.1c.94-.09,2-.12,3.19-.33l1.84-.27c.64-.1,1.29-.26,2-.4,1.37-.26,2.8-.7,4.31-1.12A51.11,51.11,0,0,0,290.31,412c1.17-1,2.3-2,3.25-3,.49-.5,1-1,1.41-1.44l1.21-1.41c.8-.88,1.41-1.77,2-2.52a21.4,21.4,0,0,0,1.39-2c.33-.5.6-.92.84-1.27S300.69,399.91,300.69,399.91Z" style="fill: rgb(250, 250, 250); transform-origin: 278.725px 412.014px;" id="el21k38e0wt1yh" class="animable"></path><path d="M299.16,416l-.45.27-1.32.74c-.58.32-1.28.71-2.07,1.2s-1.73,1-2.7,1.68a82.15,82.15,0,0,0-6.7,4.82,94.73,94.73,0,0,0-7.51,6.75,89.49,89.49,0,0,0-6.64,7.61c-1.89,2.47-3.49,4.77-4.72,6.77-.65,1-1.16,1.91-1.64,2.72s-.87,1.5-1.17,2.09-.53,1-.72,1.33-.27.45-.27.45a65.64,65.64,0,0,1,3.65-6.68,82,82,0,0,1,4.69-6.82,88.12,88.12,0,0,1,6.65-7.64,89.92,89.92,0,0,1,7.54-6.76,78.55,78.55,0,0,1,6.75-4.78A65,65,0,0,1,299.16,416Z" style="fill: rgb(250, 250, 250); transform-origin: 281.205px 434.215px;" id="elzfp7iamzcmd" class="animable"></path><path d="M293.34,444.59a30.26,30.26,0,0,0-3,.52,17.21,17.21,0,0,0-3.11,1.12,17.35,17.35,0,0,0-6.26,5,17.53,17.53,0,0,0-1.76,2.81,30.4,30.4,0,0,0-1.14,2.84,12.57,12.57,0,0,1,1-2.92,15.78,15.78,0,0,1,1.73-2.86,18.79,18.79,0,0,1,2.86-2.95,18.39,18.39,0,0,1,3.48-2.17,16,16,0,0,1,3.17-1.09A12.09,12.09,0,0,1,293.34,444.59Z" style="fill: rgb(250, 250, 250); transform-origin: 285.705px 450.733px;" id="elsukaxxi7q7s" class="animable"></path><rect x="269.65" y="309.56" width="11.27" height="16.65" style="fill: rgb(38, 50, 56); transform-origin: 275.285px 317.885px;" id="el6215q6cskm5" class="animable"></rect><path d="M290.84,314.94c0,3.87-.91,7-2,7s-2-3.14-2-7,.91-7,2-7S290.84,311.07,290.84,314.94Z" style="fill: rgb(38, 50, 56); transform-origin: 288.84px 314.94px;" id="ellkrgprrr7ne" class="animable"></path><path d="M288.81,307.93h6.79a2.58,2.58,0,0,1,2.44,1.72,16.58,16.58,0,0,1-.11,10.55,2.56,2.56,0,0,1-2.45,1.75h-6.67Z" style="fill: rgb(38, 50, 56); transform-origin: 293.829px 314.94px;" id="el54nb0rxbcyw" class="animable"></path><path d="M288.7,307.91s.25,0,.57.24a2.83,2.83,0,0,1,.83,1.45,24.26,24.26,0,0,1,.77,5.27,25.46,25.46,0,0,1-.05,2.93,9.34,9.34,0,0,1-.39,2.4,2.49,2.49,0,0,1-1,1.33c-.35.2-.58.2-.59.17a2.87,2.87,0,0,0,1.2-1.64,10.45,10.45,0,0,0,.24-2.29c0-.89,0-1.86,0-2.88a37.7,37.7,0,0,0-.58-5.19,3.15,3.15,0,0,0-.57-1.38C288.88,308.05,288.68,308,288.7,307.91Z" style="fill: rgb(69, 90, 100); transform-origin: 289.795px 314.812px;" id="el3wzlm8o8nde" class="animable"></path><path d="M262.49,313.4h26.29c.66.63.56,1.32,0,2.07l-7,1.94s-1.37,5.72-6.15,5.21a7.56,7.56,0,0,1-6.23-4.74l-6.92-1.22Z" style="fill: rgb(224, 224, 224); transform-origin: 275.859px 318.026px;" id="el94dk3hr1acq" class="animable"></path><path d="M276.83,321.17A3.15,3.15,0,1,1,280,318,3.15,3.15,0,0,1,276.83,321.17Zm0-5.12a2,2,0,1,0,2,2A2,2,0,0,0,276.83,316.05Z" style="fill: rgb(38, 50, 56); transform-origin: 276.85px 318.02px;" id="elsmjtp4thili" class="animable"></path><path d="M256.29,315.07c0,3.87-.91,7-2,7s-2-3.14-2-7,.91-7,2-7S256.29,311.2,256.29,315.07Z" style="fill: rgb(38, 50, 56); transform-origin: 254.29px 315.07px;" id="eldz6jhval3z5" class="animable"></path><path d="M254.25,308.06h6.8a2.58,2.58,0,0,1,2.44,1.72,16.65,16.65,0,0,1-.11,10.55,2.58,2.58,0,0,1-2.46,1.75h-6.67Z" style="fill: rgb(38, 50, 56); transform-origin: 259.272px 315.07px;" id="elmo46jpxouxk" class="animable"></path><path d="M254.15,308s.25,0,.57.24a2.9,2.9,0,0,1,.83,1.45,24.79,24.79,0,0,1,.77,5.26,25.59,25.59,0,0,1-.05,2.94,9.18,9.18,0,0,1-.39,2.39,2.55,2.55,0,0,1-1,1.33c-.35.21-.59.21-.59.17a2.92,2.92,0,0,0,1.2-1.63,11.18,11.18,0,0,0,.24-2.29c0-.89,0-1.86,0-2.88a37.52,37.52,0,0,0-.58-5.19,3.09,3.09,0,0,0-.58-1.38C254.33,308.17,254.13,308.09,254.15,308Z" style="fill: rgb(69, 90, 100); transform-origin: 255.245px 314.9px;" id="elrgznu42pv0h" class="animable"></path><rect x="274.16" y="432.35" width="11.27" height="16.65" style="fill: rgb(38, 50, 56); transform-origin: 279.795px 440.675px;" id="elw5eapel8h9g" class="animable"></rect><path d="M295.35,437.74c0,3.87-.91,7-2,7s-2-3.14-2-7,.91-7,2-7S295.35,433.87,295.35,437.74Z" style="fill: rgb(38, 50, 56); transform-origin: 293.35px 437.74px;" id="elx4ojqinv7f" class="animable"></path><path d="M293.31,430.73h6.8a2.58,2.58,0,0,1,2.44,1.72,16.57,16.57,0,0,1-.11,10.55,2.58,2.58,0,0,1-2.46,1.75h-6.67Z" style="fill: rgb(38, 50, 56); transform-origin: 298.334px 437.74px;" id="elyvtiuzsq9pm" class="animable"></path><path d="M293.21,430.71s.25,0,.57.24a2.87,2.87,0,0,1,.83,1.44,24.36,24.36,0,0,1,.77,5.27,25.64,25.64,0,0,1-.05,2.94,9.26,9.26,0,0,1-.39,2.39,2.54,2.54,0,0,1-1,1.33c-.35.21-.59.2-.59.17a2.87,2.87,0,0,0,1.2-1.63,10.55,10.55,0,0,0,.24-2.3c0-.88,0-1.85,0-2.87a37.34,37.34,0,0,0-.58-5.19,3.19,3.19,0,0,0-.58-1.39C293.39,430.84,293.19,430.75,293.21,430.71Z" style="fill: rgb(69, 90, 100); transform-origin: 294.305px 437.608px;" id="eljh9jdmg3kg" class="animable"></path><path d="M267,436.2h26.28c.67.62.56,1.32,0,2.06l-7,1.95s-1.37,5.72-6.15,5.21a7.58,7.58,0,0,1-6.23-4.74L267,439.45Z" style="fill: rgb(224, 224, 224); transform-origin: 280.371px 440.826px;" id="elvqww57a671" class="animable"></path><path d="M281.34,444a3.15,3.15,0,1,1,3.15-3.15A3.15,3.15,0,0,1,281.34,444Zm0-5.12a2,2,0,1,0,2,2A2,2,0,0,0,281.34,438.85Z" style="fill: rgb(38, 50, 56); transform-origin: 281.34px 440.85px;" id="elonnm2ca52" class="animable"></path><path d="M260.8,437.87c0,3.87-.92,7-2,7s-2-3.13-2-7,.91-7,2-7S260.8,434,260.8,437.87Z" style="fill: rgb(38, 50, 56); transform-origin: 258.8px 437.87px;" id="elcc41lab3745" class="animable"></path><path d="M258.76,430.86h6.79a2.58,2.58,0,0,1,2.45,1.72,16.62,16.62,0,0,1-.11,10.54,2.56,2.56,0,0,1-2.46,1.75h-6.67Z" style="fill: rgb(38, 50, 56); transform-origin: 263.782px 437.865px;" id="elobi70ltvvna" class="animable"></path><path d="M258.66,430.84s.25,0,.57.23a3,3,0,0,1,.83,1.45,25,25,0,0,1,.77,5.27,25.46,25.46,0,0,1-.05,2.93,9.26,9.26,0,0,1-.39,2.4,2.59,2.59,0,0,1-1,1.33c-.35.21-.59.2-.59.17A3,3,0,0,0,260,443a11.2,11.2,0,0,0,.24-2.3c0-.88,0-1.86,0-2.88a37.35,37.35,0,0,0-.58-5.18,3.19,3.19,0,0,0-.58-1.39C258.84,431,258.64,430.88,258.66,430.84Z" style="fill: rgb(69, 90, 100); transform-origin: 259.755px 437.738px;" id="el1ng7osdfwbc" class="animable"></path><path d="M286.79,305.76a17.43,17.43,0,0,0-.75-1.65,8.14,8.14,0,0,0-3.91-3.25,10.77,10.77,0,0,0-8-.16c-3,1.11-5.82,3.64-8.14,6.92-4.57,6.65-8.41,15.69-10.58,26.16s-2.66,22.35-1.88,34.68c.38,6.17,1,12.18,1.67,18s1.39,11.38,2.14,16.7c1.49,10.62,3,20.16,4.34,28.17.65,4,1.25,7.62,1.77,10.8a62.92,62.92,0,0,0,1.59,8.09,9.73,9.73,0,0,0,2.59,4.42,10.94,10.94,0,0,0,1.47,1.05,5.14,5.14,0,0,1-1.55-1,9.62,9.62,0,0,1-2.73-4.43,59.66,59.66,0,0,1-1.7-8.11l-1.87-10.79c-1.36-8-3-17.54-4.47-28.17-.76-5.31-1.5-10.9-2.18-16.7s-1.29-11.83-1.68-18c-.78-12.36-.34-24.29,1.94-34.82s6.11-19.61,10.78-26.3c2.37-3.31,5.27-5.88,8.37-7a11,11,0,0,1,8.18.26,8.23,8.23,0,0,1,3.92,3.4,6.51,6.51,0,0,1,.52,1.27A2.29,2.29,0,0,1,286.79,305.76Z" style="fill: rgb(38, 50, 56); transform-origin: 269.677px 377.698px;" id="elx8tdvn7wxtm" class="animable"></path><path d="M293,318.44a1.55,1.55,0,0,1,.09.34c.06.27.14.6.23,1,.2.94.47,2.25.82,3.93s.77,3.79,1.17,6.23.94,5.21,1.35,8.29c.22,1.54.45,3.16.7,4.84s.41,3.44.63,5.26c.47,3.63.79,7.53,1.16,11.63.63,8.21,1.05,17.26,1.05,26.76s-.48,18.56-1.14,26.77c-.38,4.1-.71,8-1.19,11.63-.23,1.82-.41,3.57-.66,5.26s-.48,3.29-.71,4.83c-.42,3.09-1,5.85-1.37,8.29s-.83,4.53-1.2,6.23-.63,3-.83,3.92c-.09.42-.17.76-.23,1a1.21,1.21,0,0,1-.1.34,2.47,2.47,0,0,1,0-.36c0-.26.1-.6.17-1,.17-.95.41-2.27.72-3.95s.71-3.8,1.09-6.24.89-5.21,1.29-8.29c.21-1.54.43-3.16.67-4.84s.4-3.43.62-5.25c.45-3.63.76-7.52,1.13-11.62.62-8.19,1.06-17.23,1.1-26.72s-.41-18.52-1-26.71c-.36-4.1-.65-8-1.1-11.62-.21-1.82-.37-3.58-.6-5.26s-.45-3.29-.66-4.84c-.38-3.08-.87-5.85-1.25-8.29s-.75-4.54-1.08-6.25-.53-3-.7-3.95c-.07-.42-.12-.76-.17-1A1.64,1.64,0,0,1,293,318.44Z" style="fill: rgb(38, 50, 56); transform-origin: 296.482px 386.715px;" id="elsduuih3rfi" class="animable"></path></g><g id="freepik--Floor--inject-22" class="animable" style="transform-origin: 251.2px 464.065px;"><path d="M481.84,456.7c0,.15-101.7.26-227.13.26s-227.15-.11-227.15-.26,101.68-.26,227.15-.26S481.84,456.56,481.84,456.7Z" style="fill: rgb(38, 50, 56); transform-origin: 254.7px 456.7px;" id="elvis73knpkhp" class="animable"></path><path d="M474.84,471.43c0,.15-101.7.26-227.13.26s-227.15-.11-227.15-.26,101.68-.26,227.15-.26S474.84,471.29,474.84,471.43Z" style="fill: rgb(38, 50, 56); transform-origin: 247.7px 471.43px;" id="elqhb0e2z3lo" class="animable"></path><path d="M67,471.43a104.44,104.44,0,0,1,0-14.73,53.12,53.12,0,0,1,.26,7.37A52.91,52.91,0,0,1,67,471.43Z" style="fill: rgb(38, 50, 56); transform-origin: 67.0156px 464.065px;" id="eldny2qn75tqo" class="animable"></path><path d="M134.21,471.43a104.44,104.44,0,0,1,0-14.73,104.44,104.44,0,0,1,0,14.73Z" style="fill: rgb(38, 50, 56); transform-origin: 134.21px 464.065px;" id="el18v4y3qk1qq" class="animable"></path><path d="M201.46,471.43a104.44,104.44,0,0,1,0-14.73,104.44,104.44,0,0,1,0,14.73Z" style="fill: rgb(38, 50, 56); transform-origin: 201.46px 464.065px;" id="elbv0dmdjjly4" class="animable"></path><path d="M268.71,471.43a104.44,104.44,0,0,1,0-14.73,104.44,104.44,0,0,1,0,14.73Z" style="fill: rgb(38, 50, 56); transform-origin: 268.71px 464.065px;" id="elj115i38uwg" class="animable"></path><path d="M336,471.43a104.44,104.44,0,0,1,0-14.73,104.44,104.44,0,0,1,0,14.73Z" style="fill: rgb(38, 50, 56); transform-origin: 336px 464.065px;" id="elgjepgel34d9" class="animable"></path><path d="M403.21,471.43a104.44,104.44,0,0,1,0-14.73,104.44,104.44,0,0,1,0,14.73Z" style="fill: rgb(38, 50, 56); transform-origin: 403.21px 464.065px;" id="elgh20e513mjs" class="animable"></path><path d="M470.46,471.43a104.44,104.44,0,0,1,0-14.73,104.44,104.44,0,0,1,0,14.73Z" style="fill: rgb(38, 50, 56); transform-origin: 470.46px 464.065px;" id="elrg0ld4fu60a" class="animable"></path></g><g id="freepik--character-3--inject-22" class="animable" style="transform-origin: 391.208px 383.409px;"><rect x="346.03" y="338.17" width="42.05" height="33.86" style="fill: rgb(183, 136, 118); transform-origin: 367.055px 355.1px;" id="elkeffrkscsv9" class="animable"></rect><path d="M331.51,339.72l16.63-7.23s11.47,31.11,22.93,29.08,10.83-23.5,10.83-23.5l12.81,1.1-.78,20.2-13.55,51.79.12,1.27s-38.68,15-44.58,13.1-1.88-3.29-1.88-3.29l3.58-5.16-4.3-6.6-7.82-47.59Z" style="fill: rgb(38, 50, 56); transform-origin: 360.105px 379.093px;" id="elf6fez3dl2qg" class="animable"></path><path d="M388.08,366a11.45,11.45,0,0,1-1.61.28c-1,.15-2.54.34-4.4.54-3.73.41-8.9.84-14.62,1s-10.91,0-14.65-.16c-1.87-.09-3.39-.19-4.43-.28a8.65,8.65,0,0,1-1.62-.2,12,12,0,0,1,1.63,0l4.43.13c3.74.09,8.92.16,14.62,0s10.87-.53,14.6-.84l4.42-.38A8.68,8.68,0,0,1,388.08,366Z" style="fill: rgb(250, 250, 250); transform-origin: 367.415px 366.94px;" id="elfyjexghnv7" class="animable"></path><path d="M385.56,379.16a7.8,7.8,0,0,1-1.29.35c-.84.2-2.06.44-3.58.69a81.28,81.28,0,0,1-24,.28c-1.52-.22-2.75-.43-3.59-.61a6,6,0,0,1-1.3-.32,7.2,7.2,0,0,1,1.33.12c.85.12,2.08.28,3.61.44a96.7,96.7,0,0,0,23.88-.28c1.52-.2,2.75-.38,3.6-.52A6.18,6.18,0,0,1,385.56,379.16Z" style="fill: rgb(250, 250, 250); transform-origin: 368.68px 380.198px;" id="eln0yto40n3fj" class="animable"></path><path d="M381.42,393.22a3.18,3.18,0,0,1-.93.32c-.6.18-1.49.4-2.59.63a55.89,55.89,0,0,1-8.73,1.06,54.51,54.51,0,0,1-8.79-.36c-1.12-.14-2-.28-2.63-.41a3.67,3.67,0,0,1-.95-.24c0-.08,1.39.1,3.62.29a72.59,72.59,0,0,0,8.73.2,70.87,70.87,0,0,0,8.68-.91C380,393.44,381.4,393.14,381.42,393.22Z" style="fill: rgb(250, 250, 250); transform-origin: 369.11px 394.24px;" id="ele6xrlexk94" class="animable"></path><path d="M380.74,405.74a13.37,13.37,0,0,1-2.57.82c-1.61.43-3.84,1-6.31,1.61s-4.72,1.11-6.35,1.46a14.26,14.26,0,0,1-2.66.45,14.21,14.21,0,0,1,2.58-.81c1.61-.44,3.83-1,6.3-1.61s4.72-1.11,6.35-1.46A13.76,13.76,0,0,1,380.74,405.74Z" style="fill: rgb(250, 250, 250); transform-origin: 371.795px 407.91px;" id="eln2wq8ok7hrb" class="animable"></path><path d="M343.28,410.36a25.79,25.79,0,0,1-5.23,0,27.07,27.07,0,0,1-5.21-.53,52.53,52.53,0,0,1,10.44.54Z" style="fill: rgb(250, 250, 250); transform-origin: 338.06px 410.131px;" id="eldh1obwe1fgr" class="animable"></path><path d="M335.68,396.27a5.09,5.09,0,0,1-2.29.27,5,5,0,0,1-2.28-.27,5.28,5.28,0,0,1,2.28-.26A5.35,5.35,0,0,1,335.68,396.27Z" style="fill: rgb(250, 250, 250); transform-origin: 333.395px 396.276px;" id="elp070hxurihg" class="animable"></path><path d="M347.87,419.58A7.15,7.15,0,0,1,346,420.7a23.39,23.39,0,0,1-5,1.74,24.37,24.37,0,0,1-5.28.58,7.55,7.55,0,0,1-2.19-.21,58.4,58.4,0,0,0,7.35-.88A56.15,56.15,0,0,0,347.87,419.58Z" style="fill: rgb(250, 250, 250); transform-origin: 340.7px 421.305px;" id="elv3gse8y2rm" class="animable"></path><path d="M356.13,351.19c0,.16-3.33-.07-7.41.13s-7.36.73-7.39.58a8,8,0,0,1,2.13-.53,43.36,43.36,0,0,1,10.51-.5A8,8,0,0,1,356.13,351.19Z" style="fill: rgb(250, 250, 250); transform-origin: 348.73px 351.339px;" id="elozl0x4ubxz" class="animable"></path><path d="M392.47,353.35a37.66,37.66,0,0,1-6.23-.28,36.37,36.37,0,0,1-6.18-.79,37.65,37.65,0,0,1,6.23.28A36.37,36.37,0,0,1,392.47,353.35Z" style="fill: rgb(250, 250, 250); transform-origin: 386.265px 352.815px;" id="eld9xjn9o3qg4" class="animable"></path><path d="M352.23,340.3a59.51,59.51,0,0,1-7.92,1.08,58.57,58.57,0,0,1-8,.56,64.11,64.11,0,0,1,7.92-1.08A62.7,62.7,0,0,1,352.23,340.3Z" style="fill: rgb(250, 250, 250); transform-origin: 344.27px 341.12px;" id="el1wtjdg91v6b" class="animable"></path><path d="M374.31,456.81c.26-.69,12.1-3.84,23.5-6.73a20.94,20.94,0,0,0,15-26.07h0L382.1,412.29,337.43,424Z" style="fill: rgb(69, 90, 100); transform-origin: 375.525px 434.55px;" id="elm7rjeeknl7b" class="animable"></path><path d="M346.12,423.58l-12.89,1.25s-13.55,4.57-13,16.56S328,458.2,336.11,463s92.17,8.14,92.17,8.14l-1.94-12.92-51.25-11.05s3-3.87-2.91-12.08S346.12,423.58,346.12,423.58Z" style="fill: rgb(183, 136, 118); transform-origin: 374.247px 447.36px;" id="elih7d5vnfosp" class="animable"></path><path d="M423.38,457.53a4,4,0,0,1-.85-.13l-2.42-.48L411.24,455,382,448.67l-29.17-6.52-8.83-2-2.39-.57a4.7,4.7,0,0,1-.82-.24,4.84,4.84,0,0,1,.85.14l2.42.48,8.87,1.87,29.2,6.38,29.17,6.52,8.82,2,2.4.58Z" style="fill: rgb(170, 101, 80); transform-origin: 382.085px 448.435px;" id="el8wlcg2al8pe" class="animable"></path><polygon points="400.58 349.58 423.29 384.69 441.21 369.29 456.21 367.96 425.27 409.77 410.13 406.15 391.54 374.46 391.54 349.58 400.58 349.58" style="fill: rgb(183, 136, 118); transform-origin: 423.875px 379.675px;" id="eljc2f3pa3xqs" class="animable"></polygon><path d="M458.92,346.94l-1.83-.59a1.76,1.76,0,0,0-1-.05c-2.09.47-10.15,2.3-13.22,3a2.73,2.73,0,0,0-1.83,1.48l-12.42,25.89a1.72,1.72,0,0,0,.35,2h0Z" style="fill: rgb(38, 50, 56); transform-origin: 443.681px 362.46px;" id="el9w5xlqwkpf5" class="animable"></path><path d="M458.92,346.94l-13.64,27.52L429,378.82l13.89-27.17a2.35,2.35,0,0,1,1.53-1.2Z" style="fill: rgb(69, 90, 100); transform-origin: 443.96px 362.88px;" id="elmebtw9j684" class="animable"></path><path d="M460.13,358.83c-.32-.43,2.81-15,1.91-15.36s-1.33-.24-1.92.63-4.18,9.43-4.18,9.43l-1.58-.58a2.69,2.69,0,0,0-1.32-.15c-2.37.34-10.12,1.47-10.08,1.81,0,0-.15,3,2.56,2.4l-3.83,1.22s-1.31,2.21,1,2.58h2.66l-4.16.8s.41,2.3,1.92,2.46a37.88,37.88,0,0,0,5.57-.43l.93,2.05-4.35,8.77L452.6,372s3.92-2,3.61-4c0,0,2.82-1.61,2.82-3.82C459,364.15,461.84,361.14,460.13,358.83Z" style="fill: rgb(183, 136, 118); transform-origin: 451.697px 358.87px;" id="elq4r27618zyb" class="animable"></path><path d="M458.43,358.38s-.63-.46-1.71-1.09a14.24,14.24,0,0,0-2-1,6.57,6.57,0,0,0-2.56-.51,21.61,21.61,0,0,0-4.8.67,16.68,16.68,0,0,1-2,.45,7.92,7.92,0,0,1,1.9-.72,18.56,18.56,0,0,1,4.87-.79,6.56,6.56,0,0,1,2.69.57,11.5,11.5,0,0,1,2,1.05A5.73,5.73,0,0,1,458.43,358.38Z" style="fill: rgb(170, 101, 80); transform-origin: 451.895px 356.885px;" id="elpg4pukhofom" class="animable"></path><path d="M455.77,362a13.33,13.33,0,0,0-1.09-1.27,3.7,3.7,0,0,0-1.5-.91,6.48,6.48,0,0,0-2.17-.05c-1.56.22-3,.6-4,.79a7.22,7.22,0,0,1-1.65.25,6.27,6.27,0,0,1,1.59-.52,37.42,37.42,0,0,1,4-.9,6.13,6.13,0,0,1,2.31.09,3.84,3.84,0,0,1,1.59,1.05A3.13,3.13,0,0,1,455.77,362Z" style="fill: rgb(170, 101, 80); transform-origin: 450.565px 360.66px;" id="elaf8nyeifc9" class="animable"></path><path d="M459.91,358.62a6.06,6.06,0,0,1-.58-1.25,7.7,7.7,0,0,0-1.71-2.69,7.3,7.3,0,0,0-2.84-1.45,5.68,5.68,0,0,1-1.29-.45,4.36,4.36,0,0,1,1.36.19,6.45,6.45,0,0,1,3,1.43,6.69,6.69,0,0,1,1.71,2.88A4.27,4.27,0,0,1,459.91,358.62Z" style="fill: rgb(170, 101, 80); transform-origin: 456.7px 355.7px;" id="eltxqkskcbyep" class="animable"></path><path d="M398.45,302.07c.62-7.08-6.57-20.4-13.67-20.72L366,287.56a4.17,4.17,0,0,0-4.31,3.62l-6,48.11a12.79,12.79,0,0,0,11,14.25h0A12.79,12.79,0,0,0,381,342.83c.53-3.42,1.16-7.44,1.15-7.42s9.19-.13,12.82-11.54C396.81,318.2,397.76,309.93,398.45,302.07Z" style="fill: rgb(183, 136, 118); transform-origin: 377.04px 317.5px;" id="elnl14app9rl" class="animable"></path><path d="M394.56,310.07a1.51,1.51,0,0,1-1.67,1.29,1.45,1.45,0,0,1-1.34-1.59,1.51,1.51,0,0,1,1.67-1.29A1.45,1.45,0,0,1,394.56,310.07Z" style="fill: rgb(38, 50, 56); transform-origin: 393.055px 309.92px;" id="el09mhk3hd5b3n" class="animable"></path><path d="M395.63,306.71c-.21.17-1.22-.84-2.83-1.08s-2.92.38-3.07.16.17-.43.74-.72a4.2,4.2,0,0,1,2.49-.38,4,4,0,0,1,2.23,1.11C395.62,306.26,395.74,306.64,395.63,306.71Z" style="fill: rgb(38, 50, 56); transform-origin: 392.681px 305.685px;" id="elrd7edqmcy7s" class="animable"></path><path d="M379.22,308.13a1.53,1.53,0,0,1-1.68,1.29,1.45,1.45,0,0,1-1.34-1.58,1.51,1.51,0,0,1,1.67-1.3A1.45,1.45,0,0,1,379.22,308.13Z" style="fill: rgb(38, 50, 56); transform-origin: 377.71px 307.98px;" id="el8rowniz9vvv" class="animable"></path><path d="M379.73,304.61c-.22.17-1.23-.85-2.84-1.09s-2.92.39-3.06.17.17-.43.74-.73a4.28,4.28,0,0,1,2.49-.37,4,4,0,0,1,2.22,1.11C379.72,304.16,379.83,304.53,379.73,304.61Z" style="fill: rgb(38, 50, 56); transform-origin: 376.78px 303.585px;" id="elpl57x5lwmn" class="animable"></path><path d="M383.77,317.46a11.38,11.38,0,0,1,2.69-.08c.42,0,.82,0,.94-.27a2.19,2.19,0,0,0-.09-1.26l-.75-3.32c-1-4.73-1.68-8.58-1.49-8.62s1.17,3.75,2.18,8.48l.69,3.33a2.41,2.41,0,0,1,0,1.65,1,1,0,0,1-.77.5,2.75,2.75,0,0,1-.71,0A10.75,10.75,0,0,1,383.77,317.46Z" style="fill: rgb(38, 50, 56); transform-origin: 385.928px 310.901px;" id="elpua3v51zqac" class="animable"></path><path d="M382.36,335.42a30.17,30.17,0,0,1-15-6.55s2.73,8.62,14.6,9.3Z" style="fill: rgb(170, 101, 80); transform-origin: 374.86px 333.52px;" id="ell0elwv2f1sc" class="animable"></path><path d="M382.5,321.24a2.94,2.94,0,0,0-2.44-1.47,2.67,2.67,0,0,0-2,.71,1.67,1.67,0,0,0-.42,1.9,2,2,0,0,0,2,.85,6.17,6.17,0,0,0,2.25-.91,2.15,2.15,0,0,0,.53-.41.54.54,0,0,0,.09-.6" style="fill: #FE8900; transform-origin: 380.034px 321.512px;" id="eluwg1md8icyp" class="animable"></path><path d="M378.85,317.86c.27,0,0,1.77,1.32,3.24s3.2,1.56,3.18,1.81-.47.28-1.26.18a4.39,4.39,0,0,1-2.67-1.41,3.84,3.84,0,0,1-1-2.71C378.48,318.23,378.74,317.83,378.85,317.86Z" style="fill: rgb(38, 50, 56); transform-origin: 380.884px 320.501px;" id="elrt48o5lebg" class="animable"></path><path d="M380.85,300c-.23.41-1.81,0-3.74-.1s-3.53.22-3.72-.21c-.09-.2.24-.57.92-.91A6.51,6.51,0,0,1,380,299C380.65,299.35,381,299.75,380.85,300Z" style="fill: rgb(38, 50, 56); transform-origin: 377.13px 299.204px;" id="el7y0cp51dy0e" class="animable"></path><path d="M395.75,302c-.34.33-1.39-.22-2.73-.44s-2.5-.13-2.71-.55c-.08-.21.15-.55.7-.82a3.82,3.82,0,0,1,2.31-.26,3.9,3.9,0,0,1,2.07,1.06C395.8,301.39,395.9,301.79,395.75,302Z" style="fill: rgb(38, 50, 56); transform-origin: 393.055px 300.979px;" id="elq1p3b86lbw" class="animable"></path><path d="M413.66,307.83l-3.23.09a16.82,16.82,0,0,0,1.95-6.53c-1.84,1.49-4.77.17-6-1.87s-1.28-4.53-1.78-6.85a21.16,21.16,0,0,0-10.18-13.46,28.19,28.19,0,0,0-16.77-3.33,20.43,20.43,0,0,0-8.36,2.44,11.68,11.68,0,0,0-5.18,6,14.43,14.43,0,0,0-3.3,1.55c-4.51,3.12-6.09,9-7.14,14.34s-2.11,11.22-6.11,15c-2.23,2.09-5.47,3.79-5.72,6.83-.2,2.45,1.74,4.94.77,7.19-.87,2-3.45,2.47-5.6,2.92s-4.68,1.81-4.46,4c.19,1.84,2.23,2.81,4,3.43a27.81,27.81,0,0,0,7.18,1.85,9.33,9.33,0,0,0,6.94-2A19.15,19.15,0,0,1,346,352.59a9.55,9.55,0,0,0,10.77-5.2c.33,6.79-3.58,8.83-8,11-2.8,1.62,10.46,5.65,17.16,0,3.87-3.26,4.52-12.82,3.88-17.85s-2-14.1-3.18-19-2-10-1.29-15a24.23,24.23,0,0,1,5.31-11.88c.75-.9,2.83-3.6,3.15-4.73.24-.85-.38-1.89-1.35-2.83a37.44,37.44,0,0,1,10.15.76c3.41,1,3.06,1.95,4.47,5.2,1.35,3.09.22,8.59,3.27,9.55,6.86,2.17,5.89,8.09,6.06,12.49.19,5-2.31,11.7-5.24,15.79-1.53,2.13-8.82,4.6-8.82,4.6l-.46,2.65L384,350.46c.72,1.66.48,3.78,1.74,5.08,1.42,1.46,3.91,1,5.65-.08s3.25-2.6,5.22-3.13c3.1-.82,6.41,1.11,9.54.4a5.79,5.79,0,0,0,3.29-9.17c-.93-1.2-2.38-2.14-2.6-3.64a9.06,9.06,0,0,1,.44-2.85,6.2,6.2,0,0,0-4.57-6.93c2-1.76,4.16-3.58,5.36-6s1.26-5.62-.58-7.6A7.79,7.79,0,0,0,413.66,307.83Z" style="fill: #FE8900; transform-origin: 373.136px 318.502px;" id="elblenwfw68ud" class="animable"></path><g id="elkqijhv1u3qa"><g style="opacity: 0.6; transform-origin: 373.136px 318.502px;" class="animable" id="elu74k7xi4od9"><path d="M413.66,307.83l-3.23.09a16.82,16.82,0,0,0,1.95-6.53c-1.84,1.49-4.77.17-6-1.87s-1.28-4.53-1.78-6.85a21.16,21.16,0,0,0-10.18-13.46,28.19,28.19,0,0,0-16.77-3.33,20.43,20.43,0,0,0-8.36,2.44,11.68,11.68,0,0,0-5.18,6,14.43,14.43,0,0,0-3.3,1.55c-4.51,3.12-6.09,9-7.14,14.34s-2.11,11.22-6.11,15c-2.23,2.09-5.47,3.79-5.72,6.83-.2,2.45,1.74,4.94.77,7.19-.87,2-3.45,2.47-5.6,2.92s-4.68,1.81-4.46,4c.19,1.84,2.23,2.81,4,3.43a27.81,27.81,0,0,0,7.18,1.85,9.33,9.33,0,0,0,6.94-2A19.15,19.15,0,0,1,346,352.59a9.55,9.55,0,0,0,10.77-5.2c.33,6.79-3.58,8.83-8,11-2.8,1.62,10.46,5.65,17.16,0,3.87-3.26,4.52-12.82,3.88-17.85s-2-14.1-3.18-19-2-10-1.29-15a24.23,24.23,0,0,1,5.31-11.88c.75-.9,2.83-3.6,3.15-4.73.24-.85-.38-1.89-1.35-2.83a37.44,37.44,0,0,1,10.15.76c3.41,1,3.06,1.95,4.47,5.2,1.35,3.09.22,8.59,3.27,9.55,6.86,2.17,5.89,8.09,6.06,12.49.19,5-2.31,11.7-5.24,15.79-1.53,2.13-8.82,4.6-8.82,4.6l-.46,2.65L384,350.46c.72,1.66.48,3.78,1.74,5.08,1.42,1.46,3.91,1,5.65-.08s3.25-2.6,5.22-3.13c3.1-.82,6.41,1.11,9.54.4a5.79,5.79,0,0,0,3.29-9.17c-.93-1.2-2.38-2.14-2.6-3.64a9.06,9.06,0,0,1,.44-2.85,6.2,6.2,0,0,0-4.57-6.93c2-1.76,4.16-3.58,5.36-6s1.26-5.62-.58-7.6A7.79,7.79,0,0,0,413.66,307.83Z" style="fill: rgb(255, 255, 255); transform-origin: 373.136px 318.502px;" id="elw3cy1u5eum9" class="animable"></path></g></g><path d="M380.5,412.43s5-45.39,9.2-49.37,10.36-7.19,16.42-5.18,16.63,17.18,18.89,23.67,19.32,81.62,20.28,81.53-16.83,4.24-16.83,4.24L411.74,428.7s.28,6.7-8.07,7.84-15.37-.79-18-7.37S380.5,412.43,380.5,412.43Z" style="fill: rgb(183, 136, 118); transform-origin: 412.914px 412.292px;" id="elg89vnj9fku4" class="animable"></path><path d="M417.27,440.77a3.06,3.06,0,0,1-.29-.58l-.73-1.7c-.31-.74-.71-1.63-1.19-2.67s-1-2.22-1.64-3.5c-2.46-5.19-6.25-12.16-10.07-20.05a106.16,106.16,0,0,1-6.65-16.89,52.57,52.57,0,0,1-1.91-11.25H395c-.09.68-.16,1.22-.22,1.64a3.19,3.19,0,0,1-.1.55,1.83,1.83,0,0,1,0-.56l.12-1.65H395a60.55,60.55,0,0,0,2.13,11.15A112.74,112.74,0,0,0,403.82,412c3.81,7.88,7.56,14.88,9.93,20.12.61,1.3,1.13,2.49,1.58,3.54s.83,2,1.1,2.72l.65,1.73A2.78,2.78,0,0,1,417.27,440.77Z" style="fill: rgb(170, 101, 80); transform-origin: 405.964px 412.44px;" id="elemduf3fm6rn" class="animable"></path><path d="M380.5,412.43s.1.29.26.87l.73,2.55c.65,2.23,1.59,5.54,3,9.7.36,1.05.75,2.14,1.2,3.28a11.83,11.83,0,0,0,1.87,3.29,12.41,12.41,0,0,0,7.35,4.14,26.39,26.39,0,0,0,9.85-.11,9.12,9.12,0,0,0,4.68-2.42,7.3,7.3,0,0,0,2.08-5v-.92l.37.84,16.76,38.59-.28-.14L440.77,464l3.16-.81.8-.21.38-.11.09,0h0l0,0c0,.1,0-.21-.09.26.4.35.15.1.22.18h0a.23.23,0,0,1-.12,0c-.2-.12-.15-.15-.19-.19s0-.08-.06-.11a15.12,15.12,0,0,1-.53-1.61c-.62-2.13-1.17-4.3-1.73-6.48-2.21-8.74-4.37-17.81-6.59-27.09L429.22,399c-1.13-4.64-2.23-9.21-3.39-13.66-.29-1.11-.58-2.22-.91-3.3a23.17,23.17,0,0,0-1.29-3.09,60.22,60.22,0,0,0-3.31-5.76,73.79,73.79,0,0,0-7.79-10.13,27.38,27.38,0,0,0-4.58-4,10,10,0,0,0-5.52-1.59,17.18,17.18,0,0,0-10.3,3.78,24.58,24.58,0,0,0-2.06,1.71,5.59,5.59,0,0,0-1.32,2.15,39,39,0,0,0-1.48,4.85c-1.56,6.45-2.49,12.4-3.33,17.6S382.5,397.3,382,401s-.85,6.53-1.1,8.48c-.13,1-.22,1.7-.29,2.21s-.11.75-.11.75,0-.26.06-.76.13-1.25.23-2.21c.22-1.95.55-4.81,1-8.5s1.06-8.2,1.85-13.42,1.72-11.17,3.26-17.65a39.68,39.68,0,0,1,1.48-4.91,6.06,6.06,0,0,1,1.42-2.29,25,25,0,0,1,2.07-1.74,20.91,20.91,0,0,1,4.86-2.77,14.69,14.69,0,0,1,5.69-1.12,10.47,10.47,0,0,1,5.76,1.65,28.05,28.05,0,0,1,4.67,4.06A73.24,73.24,0,0,1,420.72,373a62.12,62.12,0,0,1,3.35,5.8,25.45,25.45,0,0,1,1.32,3.17c.34,1.09.63,2.2.92,3.31,1.16,4.46,2.27,9,3.4,13.67,2.23,9.3,4.53,18.94,6.89,28.8,2.22,9.27,4.37,18.35,6.57,27.08.56,2.18,1.11,4.35,1.72,6.47.16.52.31,1.07.51,1.54l0,.07,0,0c0-.06-.16.15-.15.13a0,0,0,0,0,0,0c0,.07,0-.43,0-.22h0c.08.08-.16-.18.24.18-.1.48-.06.17-.1.28l-.06,0,0,0-.12,0-.4.11-.8.22-3.17.8-12.37,3-.2.05-.08-.19c-6.18-14.3-11.84-27.4-16.68-38.63l.38-.08a7.71,7.71,0,0,1-2.22,5.3,9.39,9.39,0,0,1-4.86,2.49,26.74,26.74,0,0,1-10,.08,12.7,12.7,0,0,1-7.49-4.28,12.2,12.2,0,0,1-1.89-3.37c-.44-1.15-.83-2.25-1.18-3.29-1.4-4.19-2.31-7.5-2.92-9.75-.3-1.12-.52-2-.67-2.57S380.5,412.43,380.5,412.43Z" style="fill: rgb(170, 101, 80); transform-origin: 412.995px 412.265px;" id="elxg8u9w783o" class="animable"></path><path d="M439.87,439.3l6.89,27.37,11.7,20.08a2.89,2.89,0,0,1-1.21,4h0a2.85,2.85,0,0,1-2.65,0c-5.25-2.83-24.52-13.35-24.92-15.38-.45-2.36-9.93-27.23-9.93-27.23Z" style="fill: #FE8900; transform-origin: 439.292px 465.188px;" id="el7fy2m3xgo3" class="animable"></path><g id="elkbqdg9hjm5r"><g style="opacity: 0.6; transform-origin: 443.215px 482.323px;" class="animable" id="el2uppif5h1tp"><path d="M457.25,490.79l-28.07-17.26.31,1.15a4.4,4.4,0,0,0,1.75,2.45c2.29,1.55,8.7,5.7,23.28,13.64a2.87,2.87,0,0,0,2.73,0Z" style="fill: rgb(255, 255, 255); transform-origin: 443.215px 482.323px;" id="elzrsyw2rvpkh" class="animable"></path></g></g><g id="elu2a3cgl8is9"><g style="opacity: 0.6; transform-origin: 431.832px 464.777px;" class="animable" id="elxe83ypbjjk"><path d="M432.33,463.21a1.74,1.74,0,0,1,1.07,2.07,1.67,1.67,0,0,1-2,1.08,1.84,1.84,0,0,1-1.13-2.2,1.76,1.76,0,0,1,2.26-.89" style="fill: rgb(255, 255, 255); transform-origin: 431.832px 464.777px;" id="elp7zdccy2v1f" class="animable"></path></g></g><path d="M447.74,480.63c.18,0,.4-1.57,1.8-2.78a8.48,8.48,0,0,1,3-1.46c0-.08-.4-.19-1.06-.11a4.64,4.64,0,0,0-3.69,3.28C447.6,480.21,447.67,480.62,447.74,480.63Z" style="fill: rgb(38, 50, 56); transform-origin: 450.104px 478.441px;" id="elf636fycn95k" class="animable"></path><path d="M450.69,483.73c.16.08.79-1,2.08-1.83a24.79,24.79,0,0,1,2.56-1.08c0-.16-1.42-.38-2.89.55S450.52,483.7,450.69,483.73Z" style="fill: rgb(38, 50, 56); transform-origin: 452.993px 482.205px;" id="elnfpvl3vogx8" class="animable"></path><path d="M442.84,477c.17.1,1.12-1.64,3-3.05s3.82-1.87,3.78-2-2.12,0-4.15,1.56S442.69,476.91,442.84,477Z" style="fill: rgb(38, 50, 56); transform-origin: 446.221px 474.458px;" id="elbirz7p8atuo" class="animable"></path><path d="M440.05,468.81c.12.14,1.45-.9,3.38-1.51s3.62-.57,3.63-.76-1.74-.51-3.82.17S439.93,468.71,440.05,468.81Z" style="fill: rgb(38, 50, 56); transform-origin: 443.551px 467.56px;" id="elfkf93vbpqfk" class="animable"></path><path d="M437.82,460.83c.13.13,1.39-1.19,3.48-1.67a13.93,13.93,0,0,1,3.86-.09c0-.07-.36-.33-1.09-.52a6.34,6.34,0,0,0-5.51,1.32C438,460.37,437.77,460.78,437.82,460.83Z" style="fill: rgb(38, 50, 56); transform-origin: 441.487px 459.612px;" id="el639m4hgqh7v" class="animable"></path><path d="M440.83,457.65a2.3,2.3,0,0,0-.24-1,7.46,7.46,0,0,0-1.57-2.47,3.25,3.25,0,0,0-1.77-1.13,1.18,1.18,0,0,0-1.2.59A1.92,1.92,0,0,0,436,455a4.09,4.09,0,0,0,4.46,2.69,4.73,4.73,0,0,0,3.83-3.63,1.65,1.65,0,0,0-.29-1.34,1.12,1.12,0,0,0-1.31-.26,4,4,0,0,0-1.53,1.42,8.58,8.58,0,0,0-1.28,2.63,2.38,2.38,0,0,0-.15,1.06,12.66,12.66,0,0,1,1.77-3.42,3.78,3.78,0,0,1,1.37-1.21.61.61,0,0,1,.72.14,1.16,1.16,0,0,1,.14.89,4.25,4.25,0,0,1-3.36,3.11,3.55,3.55,0,0,1-3.82-2.23,1.36,1.36,0,0,1,0-.94.6.6,0,0,1,.65-.34,2.93,2.93,0,0,1,1.52.93A10.79,10.79,0,0,1,440.83,457.65Z" style="fill: rgb(38, 50, 56); transform-origin: 440.114px 455.043px;" id="el77pbb3gfnks" class="animable"></path><path d="M331.51,339.72s-9.68,7.72-9.24,15,14,45,15.16,46,10,22.75,18.76,29.46,22.51,21,22.51,21l13.64,2.56s-25.56-35.41-28.23-41.41-20.11-54-20.11-54S336.11,338.76,331.51,339.72Z" style="fill: rgb(183, 136, 118); transform-origin: 357.298px 396.713px;" id="elhrtpj3tpp6k" class="animable"></path><path d="M390.46,450.29a6.76,6.76,0,0,1-1.23-.19l-3.37-.67L374.18,447h-.07l0,0-6.17-5.66-7.15-6.59-3.1-2.9c-1-.89-1.89-1.74-2.65-2.58-1.56-1.64-2.78-3-3.58-4-.41-.49-.7-.88-.89-1.16a2.55,2.55,0,0,1-.26-.44s.45.54,1.3,1.47,2.1,2.26,3.69,3.86c.78.82,1.69,1.64,2.69,2.53l3.14,2.86,7.16,6.56c2.17,2,4.24,3.92,6.15,5.67l-.12-.06,11.65,2.67,3.34.8A6.93,6.93,0,0,1,390.46,450.29Z" style="fill: rgb(170, 101, 80); transform-origin: 370.385px 436.98px;" id="elbcr0i6onzwf" class="animable"></path></g><g id="freepik--character-1--inject-22" class="animable" style="transform-origin: 112.791px 272.514px;"><path d="M57.13,280.55s-.33,19,1.15,28.43,6.52,37.9,11.85,43.19,5.34,7.24,10.67,7.8,11,1.12,14.1-4.18,9.95-16.16,9.95-16.16L102.73,292Z" style="fill: rgb(255, 190, 157); transform-origin: 80.9743px 320.433px;" id="elanenbdg451c" class="animable"></path><path d="M98.72,299.37l1.13,146.56,18-.78s11-57.9,11.3-65.7-1.85-20.87-1.85-20.87,7-17.26,9.54-26.55c2.17-8,7.85-36.7,7.54-48.68s-7.51-27.14-7.51-27.14Z" style="fill: rgb(255, 190, 157); transform-origin: 121.556px 351.07px;" id="elgmhai1az4we" class="animable"></path><path d="M103.65,303.5c.14,0-.69,10.17-1.86,22.69s-2.23,22.65-2.37,22.64.69-10.17,1.86-22.69S103.51,303.49,103.65,303.5Z" style="fill: rgb(235, 153, 110); transform-origin: 101.535px 326.165px;" id="elg0fl1q6ywcw" class="animable"></path><path d="M114.88,371.72a3.61,3.61,0,0,1-1.75.72,6.88,6.88,0,0,1-7.67-3.92,3.4,3.4,0,0,1-.43-1.84c.08,0,.22.69.76,1.68a7.13,7.13,0,0,0,7.28,3.72C114.19,371.93,114.84,371.63,114.88,371.72Z" style="fill: rgb(235, 153, 110); transform-origin: 109.953px 369.631px;" id="elcctbuzsvxy" class="animable"></path><path d="M118.89,367.08a16.49,16.49,0,0,0,.75-3.08,16.16,16.16,0,0,0-.33-3.15,5.12,5.12,0,0,1-.42,6.23Z" style="fill: rgb(235, 153, 110); transform-origin: 119.531px 363.965px;" id="el7iec9iahq4s" class="animable"></path><path d="M121.11,116.16l8.78-.76,12,7.25s18.14-1,24.45,1.34a77.71,77.71,0,0,1,10.69,4.78v12.49c3.89,5-25.55,32.51-34.26,29.52l1.13-28.18,13.84-6-15-5-14.05-.38Z" style="fill: rgb(255, 190, 157); transform-origin: 149.246px 143.203px;" id="el32eta9ajs7g" class="animable"></path><path d="M118.48,443.57l0,1.18s20.26,7.86,20.52,11.68l-40,.27.45-13.32A22.89,22.89,0,0,0,118.48,443.57Z" style="fill: #FE8900; transform-origin: 119px 450.04px;" id="eltp3ipy7gxn" class="animable"></path><g id="el1j39ablf4ruh"><g style="opacity: 0.6; transform-origin: 103.924px 449.086px;" class="animable" id="el4lk9dll6cl6"><path d="M103.53,447.61a1.65,1.65,0,0,0-1.12,1.88,1.58,1.58,0,0,0,1.85,1.12,1.72,1.72,0,0,0,1.17-2,1.63,1.63,0,0,0-2.05-1" style="fill: rgb(255, 255, 255); transform-origin: 103.924px 449.086px;" id="elgdii8ts6n7r" class="animable"></path></g></g><g id="elmbaw6obf4m"><g style="opacity: 0.6; transform-origin: 119.022px 455.1px;" class="animable" id="el6df4iwz6jdh"><path d="M99,456.7l.11-3.2,38.32.91s1.79.76,1.6,2Z" style="fill: rgb(255, 255, 255); transform-origin: 119.022px 455.1px;" id="elktvytxzjpao" class="animable"></path></g></g><path d="M118.64,444.87c0,.19-1,.29-1.93.92s-1.47,1.46-1.65,1.38.1-1.2,1.28-1.95S118.69,444.69,118.64,444.87Z" style="fill: rgb(38, 50, 56); transform-origin: 116.826px 445.935px;" id="elgq8b70yvx6m" class="animable"></path><path d="M122.85,446.57c.05.19-.79.53-1.45,1.36s-.85,1.71-1,1.7-.33-1.11.51-2.13S122.85,446.39,122.85,446.57Z" style="fill: rgb(38, 50, 56); transform-origin: 121.562px 448.063px;" id="el46xk7ypa1n4" class="animable"></path><path d="M125.27,451.58c-.17,0-.45-.93,0-2s1.41-1.5,1.49-1.34-.48.74-.87,1.63S125.47,451.56,125.27,451.58Z" style="fill: rgb(38, 50, 56); transform-origin: 125.897px 449.894px;" id="eleit6m7g5cg" class="animable"></path><path d="M85.79,156.69S62.42,170.63,58.71,174,48.2,198.15,48.2,198.15l22.26,8.35,5,23.06,55.66-1.07,6.46-51.06,5.26-2.16,1.63-32.89-17.38,5.26-16.28,7.46Z" style="fill: rgb(38, 50, 56); transform-origin: 96.335px 185.97px;" id="elkc67f4ikr1e" class="animable"></path><path d="M72.26,214.88a4.64,4.64,0,0,1-.33-1l-.74-2.89c-.64-2.57-1.47-5.9-2.39-9.57s-1.73-7.14-2.25-9.62c-.26-1.23-.46-2.24-.58-2.93a4.67,4.67,0,0,1-.13-1.1,4.49,4.49,0,0,1,.33,1.05c.2.8.45,1.77.74,2.9.64,2.57,1.47,5.9,2.39,9.57s1.73,7.14,2.25,9.61c.26,1.24.46,2.24.58,2.94A4.05,4.05,0,0,1,72.26,214.88Z" style="fill: rgb(69, 90, 100); transform-origin: 69.05px 201.325px;" id="elyfpdbavck6" class="animable"></path><path d="M141.57,163.49a19.21,19.21,0,0,1-1,2.4,47.49,47.49,0,0,0-2.06,5.87,46.79,46.79,0,0,0-1.22,6.09,18.13,18.13,0,0,1-.37,2.57,10.48,10.48,0,0,1,0-2.6,33.69,33.69,0,0,1,3.31-12.08A9.74,9.74,0,0,1,141.57,163.49Z" style="fill: rgb(69, 90, 100); transform-origin: 139.205px 171.955px;" id="elj2u358fhwu" class="animable"></path><path d="M75.55,162.15l31,21.17s5.41-2.47,8.62-1.79S142,194.31,142,194.31s1.82,3.55.06,5.35l-.27,7-3.31,6.81-4.26,1.47a4.57,4.57,0,0,0-2.93,1c-1.68,1.18-23.09-9-23.09-9L99.3,187.32l-2.63-4.16L69.76,165.57Z" style="fill: #FE8900; transform-origin: 106.293px 189.093px;" id="eljo0fprfwalb" class="animable"></path><path d="M115.18,187.63a4.25,4.25,0,0,1,1.13.22c.72.17,1.75.46,3,.85A77.21,77.21,0,0,1,138,197.43c1.11.71,2,1.32,2.59,1.76a5.2,5.2,0,0,1,.89.72,5,5,0,0,1-1-.55l-2.66-1.62c-2.26-1.35-5.43-3.12-9.06-4.83s-7-3-9.51-3.86l-3-1A5,5,0,0,1,115.18,187.63Z" style="fill: rgb(38, 50, 56); transform-origin: 128.33px 193.77px;" id="elo9rvjo8i2f" class="animable"></path><path d="M140.49,207.89a6.79,6.79,0,0,1-1.29,0,29.29,29.29,0,0,1-3.51-.28,39.69,39.69,0,0,1-5.13-1,44.62,44.62,0,0,1-6-2.15,45.44,45.44,0,0,1-5.63-3.07,39.61,39.61,0,0,1-4.19-3.14,30.73,30.73,0,0,1-2.55-2.42,5.94,5.94,0,0,1-.84-1c.07-.07,1.33,1.26,3.63,3.12a46,46,0,0,0,4.21,3,50.68,50.68,0,0,0,5.58,3,49.06,49.06,0,0,0,6,2.17,44,44,0,0,0,5.05,1.12C138.66,207.73,140.5,207.79,140.49,207.89Z" style="fill: rgb(38, 50, 56); transform-origin: 125.92px 201.374px;" id="elhlkjdmovzia" class="animable"></path><path d="M117.78,100.37c2.37-1.13,5.37.25,6.71,2.5s1.35,5.06.83,7.63-1.29,5.32.44,7.1c1.35,1.39,3.84,1.47,4.8,3.16,1.38,2.43-1.72,5.27-1.3,8,.27,1.74,1.89,3,3.5,3.66s3.4,1.13,4.78,2.22,2.22,3.2,1.2,4.64l-9,2.84L127.88,139a4.65,4.65,0,0,1-.41,4.26,11.2,11.2,0,0,1-3.13,3.12c-4.67,3.41-10.34,5.79-16.12,5.47" style="fill: rgb(38, 50, 56); transform-origin: 123.706px 125.923px;" id="elu6nv0etqlj8" class="animable"></path><path d="M78.49,105.07c-.07-2.41,2.16-4.27,4.41-5.16s4.74-1.21,6.74-2.56c1.77-1.19,3-3,4.46-4.57a14.84,14.84,0,0,1,25,6.81c.87,3.43.28,7.49-2.43,9.78-3.14,2.64-7.8,2.06-11.82,1.23s-8.59-1.63-11.95.73c-2,1.43-3.19,3.74-4.42,5.89s-2.8,4.34-5.14,5.15-5.53-.59-5.62-3.07" style="fill: rgb(38, 50, 56); transform-origin: 98.5965px 105.464px;" id="ellfjwfvsnai" class="animable"></path><path d="M78.66,106.39c.26,2-1.2,3.84-2.66,5.26s-3.1,2.94-3.36,5c-.3,2.37,1.43,4.69.93,7-.32,1.48-1.47,2.62-2.17,4a8.43,8.43,0,0,0-.42,6.19c.6,2,1.55,6.59,3,8.17a32.64,32.64,0,0,0,15.86,9.46,61.58,61.58,0,0,0,17.52,1c4.79-.29,10.31-.07,14.3-6.67,2.07-3.42,3.1-8,4.2-11.8.94-3.31,1.76-6.85.78-10.14-.57-1.92-1.73-3.63-2.3-5.55-.7-2.4-.44-5-.73-7.46A17.11,17.11,0,0,0,99.24,97.24" style="fill: rgb(38, 50, 56); transform-origin: 98.8317px 124.137px;" id="eltclekt7lxrc" class="animable"></path><path d="M121.29,114.68c-.45-6.88-5-15.31-11.89-14.57L88,105.57a4,4,0,0,0-3.6,4.1l1.39,47a12.4,12.4,0,0,0,12.68,12h0a12.4,12.4,0,0,0,12.13-12.38c0-3.35,0-7.3,0-7.28s8.79-1.48,10.59-13C122.09,130.39,121.79,122.33,121.29,114.68Z" style="fill: rgb(255, 190, 157); transform-origin: 103.083px 134.369px;" id="elruigb99f0j9" class="animable"></path><path d="M117.47,123.56a1.47,1.47,0,0,1-1.42,1.48,1.4,1.4,0,0,1-1.52-1.32,1.48,1.48,0,0,1,1.42-1.49A1.41,1.41,0,0,1,117.47,123.56Z" style="fill: rgb(38, 50, 56); transform-origin: 116px 123.635px;" id="elsqlxhla4fp" class="animable"></path><path d="M119.27,119.55c-.18.19-1.3-.63-2.88-.62s-2.75.8-2.92.61.1-.43.61-.8a4,4,0,0,1,2.33-.73,3.88,3.88,0,0,1,2.29.74C119.19,119.12,119.36,119.47,119.27,119.55Z" style="fill: rgb(38, 50, 56); transform-origin: 116.356px 118.794px;" id="elh8tn5vw0fjs" class="animable"></path><path d="M102.28,123.56a1.47,1.47,0,0,1-1.42,1.48,1.4,1.4,0,0,1-1.52-1.32,1.48,1.48,0,0,1,1.42-1.49A1.41,1.41,0,0,1,102.28,123.56Z" style="fill: rgb(38, 50, 56); transform-origin: 100.81px 123.635px;" id="el3jt1ct6duyw" class="animable"></path><path d="M103.71,119.88c-.19.19-1.3-.63-2.89-.62s-2.74.8-2.91.61.1-.43.61-.8a4,4,0,0,1,2.33-.73,3.93,3.93,0,0,1,2.29.74C103.63,119.45,103.8,119.8,103.71,119.88Z" style="fill: rgb(38, 50, 56); transform-origin: 100.796px 119.124px;" id="el4sexh38bfx" class="animable"></path><path d="M109.48,131.61a10.49,10.49,0,0,1,2.57-.47c.4,0,.79-.12.85-.4a2,2,0,0,0-.27-1.2l-1.2-3.07c-1.67-4.38-2.88-8-2.7-8s1.67,3.43,3.34,7.81c.4,1.08.79,2.11,1.15,3.1a2.25,2.25,0,0,1,.21,1.58,1,1,0,0,1-.66.59,2.67,2.67,0,0,1-.69.1A10.25,10.25,0,0,1,109.48,131.61Z" style="fill: rgb(38, 50, 56); transform-origin: 111.101px 125.092px;" id="el8c61d3t84uk" class="animable"></path><path d="M110.77,149A29.19,29.19,0,0,1,95.4,145s3.89,7.87,15.37,6.77Z" style="fill: rgb(235, 153, 110); transform-origin: 103.085px 148.438px;" id="el30rgshquz1w" class="animable"></path><path d="M108.82,135.43a2.86,2.86,0,0,0-2.56-1.06,2.63,2.63,0,0,0-1.8,1,1.67,1.67,0,0,0-.12,1.89,1.91,1.91,0,0,0,2.08.52,6.25,6.25,0,0,0,2-1.21,1.83,1.83,0,0,0,.45-.47.53.53,0,0,0,0-.59" style="fill: #FE8900; transform-origin: 106.531px 136.124px;" id="elle4zh4adsmh" class="animable"></path><path d="M104.82,132.72c.26,0,.27,1.7,1.74,2.92s3.3,1,3.32,1.26-.41.33-1.18.36a4.35,4.35,0,0,1-2.77-1,3.73,3.73,0,0,1-1.35-2.45C104.51,133.13,104.7,132.71,104.82,132.72Z" style="fill: rgb(38, 50, 56); transform-origin: 107.223px 134.99px;" id="el8ylx3ts1jzv" class="animable"></path><path d="M104.09,115.25c-.16.43-1.74.23-3.59.45s-3.36.74-3.61.36c-.11-.19.15-.59.75-1a5.93,5.93,0,0,1,2.68-.94,6,6,0,0,1,2.81.32C103.81,114.7,104.16,115,104.09,115.25Z" style="fill: rgb(38, 50, 56); transform-origin: 100.482px 115.134px;" id="el3dbnohp2gbq" class="animable"></path><path d="M118.68,115c-.28.36-1.37,0-2.68,0s-2.43.24-2.68-.13c-.12-.18.06-.55.54-.89a3.89,3.89,0,0,1,4.32.13C118.65,114.43,118.8,114.8,118.68,115Z" style="fill: rgb(38, 50, 56); transform-origin: 116.002px 114.274px;" id="elmzc3ndo8frs" class="animable"></path><path d="M80,143.31A10.19,10.19,0,0,0,92.11,132c-.36-2.81-1.88-5.68-.9-8.35,1.29-3.52,6.24-4.61,7.55-8.13.76-2,.07-4.43.94-6.44s2.79-3,4.72-3.66,4-1.18,5.62-2.44,2.63-3.64,1.59-5.41a108.79,108.79,0,0,0-25.07,6.1c-1.87.69-3.84,1.54-5,3.2s-1.11,4-1,6.15L82,144" style="fill: rgb(38, 50, 56); transform-origin: 96.0265px 120.785px;" id="elgrilqaor6zq" class="animable"></path><path d="M112,93.27c.29,2.89.58,5.87-.21,8.66s-2.91,5.42-5.78,5.9c-1.36.23-2.88,0-4,.81-2.37,1.7-.43,5.71-1.83,8.27-1.25,2.3-4.62,2.51-6.29,4.52-1.84,2.23-.88,5.58.4,8.16s2.87,5.43,2,8.18c-1,3.08-4.63,4.72-5.54,7.81-.58,2,0,4.46-1.39,6-1.1,1.16-2.93,1.19-4.53,1a45.31,45.31,0,0,1-18.65-6,10.7,10.7,0,0,0,1.54-5.28l-3.22,2.34q-3.69-4.62-7.4-9.23a15,15,0,0,1,8.32-8.35c2.24-.89,5.11-1.65,5.63-4,.29-1.3-1.27-3.67-.43-6.69,0,0,1.41-5.76,4.74-7.38s2.87-2.6,3.6-4.81" style="fill: rgb(38, 50, 56); transform-origin: 84.7003px 122.969px;" id="eltigdmhuuosh" class="animable"></path><path d="M75.42,229.56a89.57,89.57,0,0,1-11.27,25.32C58,264.38,51.69,300.7,51.69,300.7s11.23-6.78,21.16-7.74,19.52,9.28,33,10.88,21.45.64,30.41-3.52,19.2-2.24,19.2-2.24-7.32-16.95-12.62-29.6-11.72-40-11.72-40" style="fill: #FE8900; transform-origin: 103.575px 266.526px;" id="el7m30jro7ej6" class="animable"></path><path d="M108.74,273.39a46.14,46.14,0,0,0-.6-4.61,32.08,32.08,0,0,0-1.5-4.8,44.06,44.06,0,0,0-2.73-5.53,66.42,66.42,0,0,0-6.55-9.13c-.94-1.09-1.7-2-2.24-2.57a6.17,6.17,0,0,1-.8-1,6.24,6.24,0,0,1,.94.84c.59.55,1.4,1.4,2.38,2.47a56.53,56.53,0,0,1,6.72,9.1,41.71,41.71,0,0,1,2.73,5.62,29.71,29.71,0,0,1,1.41,4.91,20.52,20.52,0,0,1,.33,3.43A6.78,6.78,0,0,1,108.74,273.39Z" style="fill: rgb(38, 50, 56); transform-origin: 101.576px 259.57px;" id="ele20mrhd0l7m" class="animable"></path><path d="M132.14,290.66s-.13.17-.41.45a13.77,13.77,0,0,1-1.33,1.15,19.13,19.13,0,0,1-5.72,2.95,26.87,26.87,0,0,1-9.48,1.16,46.08,46.08,0,0,1-11.48-2.27c-4-1.26-7.63-2.7-11-3.88a72.79,72.79,0,0,0-9.11-2.65,39.38,39.38,0,0,0-6.34-.82c-1.51-.06-2.35,0-2.35-.06a2.53,2.53,0,0,1,.6-.07c.4,0,1-.06,1.75-.07a34.13,34.13,0,0,1,6.41.66,68.23,68.23,0,0,1,9.2,2.55c3.4,1.16,7.07,2.59,11,3.84a46.78,46.78,0,0,0,11.34,2.29,27.29,27.29,0,0,0,9.34-1,20,20,0,0,0,5.72-2.76C131.51,291.22,132.1,290.62,132.14,290.66Z" style="fill: rgb(38, 50, 56); transform-origin: 103.53px 291.482px;" id="eliqerd87c1s" class="animable"></path><g id="elm72kpzcoj4"><g style="opacity: 0.3; transform-origin: 105.491px 263.668px;" class="animable" id="elkp3h1wd0fte"><path d="M96.81,247.86c5.62,2.67,10.92,6.38,14.38,11.55s4.86,12,2.61,17.77a3.62,3.62,0,0,1-1.63,2.12c-1.31.6-2.89-.42-3.47-1.74a10,10,0,0,1-.43-4.27,31,31,0,0,0-12.18-24.93" id="el0v0ziw2dcnll" class="animable" style="transform-origin: 105.491px 263.668px;"></path></g></g><g id="elttehvxgaxtt"><g style="opacity: 0.3; transform-origin: 108.42px 292.978px;" class="animable" id="el9v645m1ki5t"><path d="M79,287.11c11.44,0,20.65,10.12,32,11.57,9.5,1.22,18.57-3.79,26.84-8.62-6.1.22-11.37,4.28-17.32,5.63-7,1.57-14.19-.71-20.86-3.28S86.14,286.89,79,287.1" id="elpnh2jonl5zj" class="animable" style="transform-origin: 108.42px 292.978px;"></path></g></g><path d="M103.85,259.09a10.15,10.15,0,0,1-1.58-.66c-.49-.23-1.1-.51-1.83-.78S98.9,257,98,256.73s-1.94-.66-3.06-.93-2.31-.55-3.57-.82a51.24,51.24,0,0,0-8.36-.8,51.77,51.77,0,0,0-8.37.68c-1.27.25-2.48.46-3.59.77s-2.14.58-3.07.89-1.76.62-2.49.88-1.35.53-1.85.76a11.66,11.66,0,0,1-1.58.64,11.11,11.11,0,0,1,1.5-.82,18,18,0,0,1,1.82-.85c.73-.29,1.54-.67,2.48-1s2-.68,3.08-1,2.34-.56,3.62-.82a45.59,45.59,0,0,1,16.9.12c1.27.28,2.49.52,3.6.87s2.14.66,3.07,1,1.74.7,2.46,1a18.47,18.47,0,0,1,1.81.87A10.24,10.24,0,0,1,103.85,259.09Z" style="fill: rgb(250, 250, 250); transform-origin: 82.955px 256.334px;" id="elogst93y1fdh" class="animable"></path><path d="M137.64,255.9a6.86,6.86,0,0,1-1.11.7,32.21,32.21,0,0,1-3.18,1.58,39.45,39.45,0,0,1-5,1.77,44.06,44.06,0,0,1-6.34,1.29,45.57,45.57,0,0,1-6.47.28,40.29,40.29,0,0,1-5.25-.52,30,30,0,0,1-3.47-.77,5.69,5.69,0,0,1-1.24-.41c0-.09,1.81.4,4.76.81a46,46,0,0,0,5.22.41,47.7,47.7,0,0,0,6.38-.32,48.2,48.2,0,0,0,6.28-1.23,45.61,45.61,0,0,0,5-1.65C136,256.73,137.59,255.81,137.64,255.9Z" style="fill: rgb(250, 250, 250); transform-origin: 121.61px 258.716px;" id="el5wzy6nhglup" class="animable"></path><path d="M133.63,242.54a2.08,2.08,0,0,1-.46.31,14.84,14.84,0,0,1-1.39.78,25.08,25.08,0,0,1-5.5,2,36.26,36.26,0,0,1-8.64,1,63.34,63.34,0,0,1-10.59-1c-3.71-.65-7.21-1.45-10.4-2.11s-6.07-1.21-8.5-1.53-4.43-.49-5.8-.54-2.14-.06-2.14-.1a2,2,0,0,1,.55-.06c.37,0,.9-.05,1.59,0a50.52,50.52,0,0,1,5.84.37c2.46.28,5.36.78,8.56,1.43s6.7,1.42,10.39,2.07a64.87,64.87,0,0,0,10.5,1,37.62,37.62,0,0,0,8.55-.86,26.83,26.83,0,0,0,5.5-1.83C132.94,242.88,133.6,242.5,133.63,242.54Z" style="fill: rgb(250, 250, 250); transform-origin: 106.92px 243.949px;" id="elvkr8b5myg7p" class="animable"></path><path d="M131.34,231.69a10.63,10.63,0,0,1-1.65.48c-1.06.28-2.63.62-4.57,1a90.48,90.48,0,0,1-30.74.31c-1.94-.32-3.51-.63-4.58-.89a10.39,10.39,0,0,1-1.66-.45,12.53,12.53,0,0,1,1.7.25c1.08.2,2.65.45,4.6.73a105.78,105.78,0,0,0,15.32,1,103.92,103.92,0,0,0,15.3-1.31c1.94-.31,3.51-.6,4.59-.82A12.19,12.19,0,0,1,131.34,231.69Z" style="fill: rgb(250, 250, 250); transform-origin: 109.74px 233.167px;" id="el589dz1j6mps" class="animable"></path><path d="M109.29,273.68a2.47,2.47,0,0,1-.56-.12l-1.54-.45c-.67-.21-1.49-.45-2.46-.67s-2-.53-3.29-.73l-1.92-.37c-.67-.12-1.38-.19-2.1-.29-1.45-.23-3-.32-4.66-.45a70.09,70.09,0,0,0-10.72.28A69.86,69.86,0,0,0,71.53,273c-1.58.49-3.08.92-4.45,1.46-.68.26-1.36.48-2,.75l-1.79.77c-1.16.47-2.16,1-3,1.44s-1.65.84-2.25,1.19l-1.41.77a2.62,2.62,0,0,1-.52.25,2.42,2.42,0,0,1,.46-.33l1.37-.87c.59-.37,1.33-.82,2.22-1.27s1.87-1,3-1.51l1.8-.82c.63-.27,1.3-.51,2-.78,1.37-.56,2.88-1,4.47-1.51A66.51,66.51,0,0,1,82,270.36a67.21,67.21,0,0,1,10.8-.24c1.65.14,3.23.25,4.68.5.73.11,1.44.19,2.12.33l1.93.39c1.23.23,2.32.57,3.28.82s1.79.52,2.45.76l1.52.54A2.66,2.66,0,0,1,109.29,273.68Z" style="fill: rgb(250, 250, 250); transform-origin: 82.7px 274.818px;" id="el61wmwn2cbnx" class="animable"></path><path d="M143.69,275.12a7.52,7.52,0,0,1-1.2.74,13.65,13.65,0,0,1-1.46.76c-.59.27-1.24.6-2,.88s-1.58.61-2.5.87-1.9.53-3,.78a38.52,38.52,0,0,1-6.93.81,39,39,0,0,1-7-.54c-1.06-.21-2.06-.39-3-.66a26.32,26.32,0,0,1-2.53-.79,20.29,20.29,0,0,1-2-.8,12,12,0,0,1-1.5-.7,6.92,6.92,0,0,1-1.22-.69c0-.1,1.82.85,4.87,1.84.77.25,1.61.51,2.53.72s1.91.41,3,.61a37.91,37.91,0,0,0,13.71-.27c1-.23,2-.43,2.93-.72a26.08,26.08,0,0,0,2.49-.81C141.91,276,143.64,275,143.69,275.12Z" style="fill: rgb(250, 250, 250); transform-origin: 126.52px 277.537px;" id="elwdmbefr9fho" class="animable"></path><path d="M122.36,294.94a4.77,4.77,0,0,1-.73.07,15,15,0,0,1-2.1,0,27.56,27.56,0,0,1-7.59-1.5A104.41,104.41,0,0,1,101.39,289c-2-.9-4-1.84-6.21-2.65a52.17,52.17,0,0,0-6.93-2,52,52,0,0,0-25.11.93A56.37,56.37,0,0,0,55.91,288l-1.89.91a6.16,6.16,0,0,1-.67.29,2.94,2.94,0,0,1,.62-.38c.42-.24,1.05-.58,1.86-1a48.32,48.32,0,0,1,7.2-2.83,51.33,51.33,0,0,1,11.3-2.07,51.85,51.85,0,0,1,14,1,50.33,50.33,0,0,1,7,2c2.21.82,4.28,1.78,6.23,2.7a114.08,114.08,0,0,0,10.46,4.6,29.84,29.84,0,0,0,7.49,1.65c.91.08,1.61.07,2.09.07A3.41,3.41,0,0,1,122.36,294.94Z" style="fill: rgb(250, 250, 250); transform-origin: 87.855px 288.93px;" id="el1w90ihv1sdxj" class="animable"></path><path d="M151.77,286.31a43.92,43.92,0,0,0-7.53.44A45.26,45.26,0,0,0,137,289a7.31,7.31,0,0,1,1.93-1.13,22,22,0,0,1,5.18-1.63,21.59,21.59,0,0,1,5.41-.3A7,7,0,0,1,151.77,286.31Z" style="fill: rgb(250, 250, 250); transform-origin: 144.385px 287.443px;" id="elqbnzoz58lrs" class="animable"></path><path d="M51.69,199.46s0,39.23,12.7,44.49c6.3,2.61,15.1-1.54,15.1-1.54l24.69-32.62-6.64-8.25L72.26,214.88l-1.8-8.38Z" style="fill: rgb(255, 190, 157); transform-origin: 77.935px 222.136px;" id="elwrbmx9v19t" class="animable"></path><rect x="105.78" y="181.55" width="19.56" height="34.1" rx="2.49" style="fill: rgb(69, 90, 100); transform-origin: 115.56px 198.6px;" id="elwqeenaorzp" class="animable"></rect><path d="M100.65,201.54a17.09,17.09,0,0,0,1.2-6.2,11.24,11.24,0,0,1,.46-3.79c.43-1.2,1.79-2.32,3-2l.45,9.37Z" style="fill: rgb(255, 190, 157); transform-origin: 103.205px 195.517px;" id="el7gqya1od3cg" class="animable"></path><path d="M112,192.8c-.38,0-9.4,3-9.4,3l-5.08,3.89a9,9,0,0,0-1.37,6.76c.61,4.34,2.46,6.13,7.07,8.07h9.29l5.17-3a2.91,2.91,0,0,0,1.4-2.93l0-.2.65-.78a1.58,1.58,0,0,0,.2-1.76h0a1.59,1.59,0,0,0-2.14-.69l-5.77,3-3.62-.09-.35-1.25,5.63-1.88,7.44-4.08a2,2,0,0,0,.74-2.74h0a2,2,0,0,0-2.41-.82l-6.72,2.65-6.87,1.81,1.41-2.39,8.44-4.39S116.72,192.36,112,192.8Z" style="fill: rgb(255, 190, 157); transform-origin: 109.056px 203.635px;" id="elamm471kudek" class="animable"></path><path d="M97.54,199.71a37.81,37.81,0,0,0,5.24-3.68l-.08,0,.35-.11a42.24,42.24,0,0,0,6.34-2.36,43.57,43.57,0,0,0-6.51,1.85l-.34.11h-.05l0,0A40.32,40.32,0,0,0,97.54,199.71Z" style="fill: rgb(235, 153, 110); transform-origin: 103.465px 196.635px;" id="elf07iurl0ckf" class="animable"></path><path d="M105.93,211.32a6.23,6.23,0,0,0,1.92.75,7.77,7.77,0,0,0,5,0,20.18,20.18,0,0,0,2.46-1.2l1.94-1.08a7.74,7.74,0,0,0,1.71-1.12,7.36,7.36,0,0,0-1.89.78l-2,1a22.74,22.74,0,0,1-2.42,1.14,8.18,8.18,0,0,1-4.7.14A10.79,10.79,0,0,0,105.93,211.32Z" style="fill: rgb(235, 153, 110); transform-origin: 112.445px 210.577px;" id="eljk35puk5fgf" class="animable"></path></g><g id="freepik--character-2--inject-22" class="animable" style="transform-origin: 218.665px 254.796px;"><path d="M168,300.65c0,.51-.58,39.88,0,44.8s1.42,11.9,4,14.3c4.61,4.22,29.55,30,29.55,30l2.89-30.51-7.23-14L203,322.4Z" style="fill: rgb(255, 190, 157); transform-origin: 186.091px 345.2px;" id="elb4bnp8rsjr9" class="animable"></path><polygon points="200.41 351.31 188.9 376.69 200.68 388.95 203.6 357.5 200.41 351.31" style="fill: rgb(224, 224, 224); transform-origin: 196.25px 370.13px;" id="elhnobqae1dxb" class="animable"></polygon><path d="M280.59,242c-2.42-7.5-5.67-14.83-6.55-22.66-1-8.47.93-17.07.11-25.56s-5.62-17.69-14-19.29L231.62,170c-6.75,24.77-4.71,51.15.42,76.3,2.56,12.54,7,26.4,18.46,32.11,11.63,5.8,27.66-.92,31.68-13.26C284.62,257.65,283,249.45,280.59,242Z" style="fill: #FE8900; transform-origin: 255.359px 225.26px;" id="elteevhnk5pw" class="animable"></path><path d="M260.58,178.37a1,1,0,0,1,0,.28l.05.82c0,.76.09,1.82.15,3.17.14,2.74.37,6.72.83,11.61A235,235,0,0,0,268.35,232c1.92,7.24,4.15,14.09,5,20.59a39.72,39.72,0,0,1,.18,9.27,27.68,27.68,0,0,1-2.09,7.8,20.44,20.44,0,0,1-7.33,8.95l-.83.53-.76.4a8.91,8.91,0,0,1-1.21.57l-.77.3-.27.08a28.25,28.25,0,0,0,3.72-2.05,20.56,20.56,0,0,0,7.11-8.93,27.06,27.06,0,0,0,2-7.7,39.47,39.47,0,0,0-.23-9.16c-.82-6.44-3.06-13.25-5-20.51a222.31,222.31,0,0,1-6.57-37.87c-.42-4.9-.6-8.88-.67-11.64-.05-1.37,0-2.44-.05-3.16v-.83A1.58,1.58,0,0,1,260.58,178.37Z" style="fill: rgb(38, 50, 56); transform-origin: 266.994px 229.43px;" id="eliu7cs6mdspk" class="animable"></path><path d="M279.28,239.8a7.31,7.31,0,0,1-3.87,1.95,7.24,7.24,0,0,1-4.33-.07,32.9,32.9,0,0,0,4.22-.44A36.37,36.37,0,0,0,279.28,239.8Z" style="fill: rgb(38, 50, 56); transform-origin: 275.18px 240.924px;" id="elq8dbecjwaas" class="animable"></path><path d="M265.68,177.42a2.7,2.7,0,0,1,.36.55,16,16,0,0,1,.83,1.67,24.07,24.07,0,0,1,1.63,6.68c.34,2.89.29,6.35.34,10.17s.22,8,.57,12.41a187.57,187.57,0,0,0,3.18,22.34c.57,2.83,1.1,5.11,1.46,6.68.18.75.32,1.35.42,1.82a3.32,3.32,0,0,1,.12.64,3.36,3.36,0,0,1-.22-.61c-.13-.47-.3-1.06-.51-1.8-.43-1.56-1-3.83-1.63-6.66a164,164,0,0,1-3.33-22.37c-.36-4.41-.52-8.62-.54-12.45s.06-7.27-.23-10.14a25,25,0,0,0-1.45-6.63C266.1,178.22,265.63,177.45,265.68,177.42Z" style="fill: rgb(38, 50, 56); transform-origin: 270.133px 208.9px;" id="eldxfrmzbwip" class="animable"></path><path d="M206.92,323.45,195.28,442.91h16.35s19-73.3,20.29-82.59,10.31-44.59,10.31-44.59Z" style="fill: rgb(255, 190, 157); transform-origin: 218.755px 379.32px;" id="el1shsftn9674" class="animable"></path><path d="M201.87,371.26s28.51-.58,28.37,0l-17.81,71.65H195.28Z" style="fill: rgb(235, 235, 235); transform-origin: 212.76px 406.956px;" id="el51kdgjwcmwj" class="animable"></path><path d="M196,425.29l-3.06,20.48s-20.53,6.81-20.64,10.64l40.1.29L217.32,426Z" style="fill: #FE8900; transform-origin: 194.81px 440.995px;" id="elj6qp7gkw7h" class="animable"></path><g id="elm9du8y1wxp"><g style="opacity: 0.6; transform-origin: 204.938px 445.183px;" class="animable" id="elz4tu2k6iof"><path d="M205.28,443.66a1.64,1.64,0,0,1,1.19,1.83,1.57,1.57,0,0,1-1.81,1.19,1.73,1.73,0,0,1-1.25-1.95,1.64,1.64,0,0,1,2-1" style="fill: rgb(255, 255, 255); transform-origin: 204.938px 445.183px;" id="el0vgbsemt8s1n" class="animable"></path></g></g><g id="elukwcnyor2f"><g style="opacity: 0.6; transform-origin: 192.475px 455.25px;" class="animable" id="elbwwiq2atiad"><path d="M212.4,456.7l.46-2.9-39.28.73a2.77,2.77,0,0,0-1.49,2.17Z" style="fill: rgb(255, 255, 255); transform-origin: 192.475px 455.25px;" id="elk6ji2iep9uo" class="animable"></path></g></g><path d="M192.28,445.58c0,.2,1,.26,2,.86s1.52,1.4,1.7,1.32-.15-1.2-1.35-1.91S192.24,445.4,192.28,445.58Z" style="fill: rgb(38, 50, 56); transform-origin: 194.152px 446.573px;" id="el0scrpmu9d6dc" class="animable"></path><path d="M188.13,447.45c0,.19.82.5,1.51,1.3s.91,1.68,1.1,1.67.29-1.13-.59-2.12S188.13,447.26,188.13,447.45Z" style="fill: rgb(38, 50, 56); transform-origin: 189.499px 448.891px;" id="el53gsiid7yof" class="animable"></path><path d="M185.9,452.55c.18,0,.42-.95-.12-2s-1.46-1.46-1.54-1.29.51.72.93,1.59S185.7,452.54,185.9,452.55Z" style="fill: rgb(38, 50, 56); transform-origin: 185.172px 450.886px;" id="elgnvp4prz579" class="animable"></path><path d="M193.22,441.3c.09.17,1-.12,2.09-.08s2,.36,2.08.19-.76-.84-2.06-.87S193.12,441.15,193.22,441.3Z" style="fill: rgb(38, 50, 56); transform-origin: 195.304px 440.999px;" id="el2332trqzurd" class="animable"></path><path d="M193.86,438.3a3.78,3.78,0,0,0,2-.07,8.84,8.84,0,0,0,2.08-.71,9.24,9.24,0,0,0,1.13-.64,2.75,2.75,0,0,0,.6-.49.86.86,0,0,0,0-1.05,1.08,1.08,0,0,0-.87-.42,2.72,2.72,0,0,0-.75.13,7.46,7.46,0,0,0-1.23.46,7.26,7.26,0,0,0-1.82,1.28c-.9.88-1.2,1.63-1.13,1.66s.53-.56,1.45-1.3a8.19,8.19,0,0,1,1.76-1.07,9.53,9.53,0,0,1,1.14-.39c.42-.12.79-.13.9.05s0,.1,0,.23a2.45,2.45,0,0,1-.43.36,10.68,10.68,0,0,1-1,.63,11.25,11.25,0,0,1-1.92.81A15.37,15.37,0,0,0,193.86,438.3Z" style="fill: rgb(38, 50, 56); transform-origin: 196.854px 436.685px;" id="el1tic8xb8lxg" class="animable"></path><path d="M194.13,438.58a3.31,3.31,0,0,0,.47-2,6.81,6.81,0,0,0-.34-2.19,7.11,7.11,0,0,0-.55-1.2,1.68,1.68,0,0,0-1.31-1,.93.93,0,0,0-.82.59,2.52,2.52,0,0,0-.19.74,4.32,4.32,0,0,0,0,1.35,4.58,4.58,0,0,0,.92,2.05c.82,1,1.64,1.23,1.65,1.16s-.63-.46-1.26-1.44a4.59,4.59,0,0,1-.69-1.87,4.1,4.1,0,0,1,0-1.16c0-.42.2-.77.36-.73s.55.3.72.63a6,6,0,0,1,.53,1.08,6.7,6.7,0,0,1,.45,2C194.2,437.81,194,438.55,194.13,438.58Z" style="fill: rgb(38, 50, 56); transform-origin: 192.974px 435.385px;" id="el2q6t50ljwuh" class="animable"></path><polygon points="168.97 268.1 163.45 323.45 202.9 323.45 206.92 292.21 206.92 323.45 242.23 323.45 252.9 272.12 168.97 268.1" style="fill: rgb(38, 50, 56); transform-origin: 208.175px 295.775px;" id="elhspv8d4igy" class="animable"></polygon><path d="M175.56,276.68a1.66,1.66,0,0,1,0,.49l-.15,1.39c-.15,1.21-.38,2.95-.7,5.1-.62,4.3-1.58,10.22-2.8,16.74s-2.48,12.39-3.46,16.63c-.49,2.11-.9,3.82-1.2,5-.15.54-.26,1-.36,1.35s-.14.47-.16.46a1.46,1.46,0,0,1,.06-.48c.07-.38.15-.83.26-1.38.26-1.27.61-3,1-5,.89-4.25,2.08-10.13,3.31-16.64s2.23-12.43,3-16.71c.35-2.08.64-3.79.86-5.07l.25-1.38A1.48,1.48,0,0,1,175.56,276.68Z" style="fill: rgb(69, 90, 100); transform-origin: 171.153px 300.26px;" id="eludsq6e9aung" class="animable"></path><path d="M249.33,275.39a2.69,2.69,0,0,1,0,.5c-.06.38-.13.84-.21,1.41-.2,1.22-.51,3-.91,5.16-.81,4.35-2,10.35-3.59,16.93s-3.12,12.49-4.34,16.75c-.6,2.13-1.11,3.85-1.48,5-.18.54-.32,1-.44,1.36s-.17.47-.19.46a1.54,1.54,0,0,1,.09-.49c.09-.38.2-.83.34-1.39.33-1.27.78-3,1.33-5.07,1.12-4.28,2.64-10.2,4.18-16.77s2.83-12.55,3.74-16.88l1.07-5.13.3-1.39A1.56,1.56,0,0,1,249.33,275.39Z" style="fill: rgb(69, 90, 100); transform-origin: 243.756px 299.175px;" id="elhbco575prv" class="animable"></path><path d="M194.32,122.34s-27.42,9-30.87,12.68v.86l19.19,62.48s-11.86,11.06-13.37,22.58-2.8,52.92-2.8,52.92l.64,2.8,86.24-1.72,6.47-2.37-9.27-68.13-6.69-75.88-25.25-7.7s-2.13,9-10.53,9S194.32,122.34,194.32,122.34Z" style="fill: rgb(69, 90, 100); transform-origin: 211.635px 198.76px;" id="elp6c2ffdq08i" class="animable"></path><polygon points="207.95 162.09 212.22 170.75 221.79 172.14 214.87 178.89 216.5 188.41 207.95 183.91 199.39 188.41 201.03 178.89 194.11 172.14 203.67 170.75 207.95 162.09" style="fill: rgb(38, 50, 56); transform-origin: 207.95px 175.25px;" id="el0osclbyclilq" class="animable"></polygon><path d="M163.45,135s-6.79,4.44-8,12.23S153.94,193,153.94,193l33.35-11.58s-4.38-17.6-6.33-22S163.45,135,163.45,135Z" style="fill: rgb(69, 90, 100); transform-origin: 170.615px 164px;" id="el6rh2lku463g" class="animable"></path><path d="M234.41,124s-12.39,26.22-9.7,52.9h9.71s3.09-45.43,9.71-48.32C244.13,128.56,240.8,122.57,234.41,124Z" style="fill: #FE8900; transform-origin: 234.229px 150.34px;" id="el66w080phq8t" class="animable"></path><path d="M243.86,128.56s10.92,5.43,13.71,11.66,2.23,42.63,2.23,42.63l-25.38-6,3.19-31.26a30.28,30.28,0,0,1,2-6.92Z" style="fill: rgb(69, 90, 100); transform-origin: 247.133px 155.705px;" id="ele2z9cyrkntv" class="animable"></path><path d="M234.42,176.88H186.29l2.37,10.8s22.71,9.52,26.28,11.8,11.26,4.72,20.08,5.28,15.2,1.31,18.21-.94,4.88-2.44,5.44-7.69,1.15-13.95,1.15-13.95Z" style="fill: rgb(255, 190, 157); transform-origin: 223.055px 191.112px;" id="elmrbf02gcsa" class="animable"></path><path d="M159.09,191.11c.1,1,1.79,11.58,5.17,16.46s5.07,5.64,9,6,54.88-9.64,55.4-9.56-40-16.34-40-16.34l-1.37-6.28Z" style="fill: rgb(255, 190, 157); transform-origin: 193.877px 197.485px;" id="elb2x40recgzm" class="animable"></path><path d="M228.67,204a3.06,3.06,0,0,1-.53-.15l-1.5-.53c-1.28-.48-3.14-1.19-5.43-2.09-4.57-1.81-10.82-4.44-17.75-7.29-2.79-1.15-5.48-2.24-8-3.24s-4.82-2-6.88-2.85l-.09,0,0-.08c-.88-3.3-1.32-6-1.69-7.9l-.39-2.2a3.69,3.69,0,0,1-.09-.77,2.71,2.71,0,0,1,.22.75c.12.56.29,1.28.49,2.17.44,1.86,1,4.61,1.86,7.81l-.12-.12c2.07.82,4.38,1.8,6.9,2.77s5.23,2.07,8,3.22l17.69,7.42,5.37,2.25,1.45.62A2.59,2.59,0,0,1,228.67,204Z" style="fill: rgb(235, 153, 110); transform-origin: 207.495px 190.45px;" id="elc2k15dnt5ee" class="animable"></path><path d="M186.29,176.88A3.42,3.42,0,0,1,186,176c-.18-.56-.42-1.39-.7-2.42-.55-2.06-1.22-4.93-1.93-8.1s-1.36-6-1.87-8.11a24.64,24.64,0,0,1-.74-3.37,3.85,3.85,0,0,1,.35.87c.19.56.45,1.38.75,2.41.59,2.05,1.32,4.91,2,8.08s1.29,5.91,1.78,8.13A23,23,0,0,1,186.29,176.88Z" style="fill: rgb(38, 50, 56); transform-origin: 183.525px 165.44px;" id="ela1771qh165r" class="animable"></path><path d="M237.13,149.11a5.28,5.28,0,0,1,0,1.09c-.09.8-.19,1.78-.32,2.93-.28,2.59-.64,6-1,9.65s-.66,7.08-.9,9.68c-.11,1.15-.2,2.13-.28,2.93a3.91,3.91,0,0,1-.17,1.08,5.23,5.23,0,0,1,0-1.09c0-.7,0-1.7.11-2.95.12-2.48.37-5.92.75-9.7s.82-7.19,1.19-9.65c.18-1.23.35-2.23.48-2.91A3.83,3.83,0,0,1,237.13,149.11Z" style="fill: rgb(38, 50, 56); transform-origin: 235.795px 162.79px;" id="ele0rmpz21ch" class="animable"></path><path d="M223.47,205.14a11.23,11.23,0,0,1-.78,1.53c-.26.48-.59,1.07-1,1.73s-.87,1.44-1.44,2.25a62.57,62.57,0,0,1-4.22,5.51,68.92,68.92,0,0,1-6,6.08,67.72,67.72,0,0,1-6.72,5.23,61.37,61.37,0,0,1-6,3.57c-.86.48-1.68.84-2.39,1.18s-1.33.61-1.84.82a11,11,0,0,1-1.61.6,10.7,10.7,0,0,1,1.52-.79c.5-.23,1.11-.52,1.8-.89s1.5-.75,2.35-1.25c1.72-.94,3.72-2.17,5.86-3.63a75.12,75.12,0,0,0,6.64-5.23,74.17,74.17,0,0,0,5.94-6c1.7-2,3.15-3.81,4.28-5.41.6-.79,1.07-1.55,1.51-2.19s.8-1.22,1.09-1.69A10.54,10.54,0,0,1,223.47,205.14Z" style="fill: rgb(38, 50, 56); transform-origin: 207.47px 219.39px;" id="elojee75rwh1d" class="animable"></path><path d="M220.34,59.28c2.18-.29,7.29,2.64,8.73,4.29a20.07,20.07,0,0,1,3.14,5.75c3.42,8.33,6.89,16.87,7.25,25.86.13,3.23-.57,7.11-3.55,8.38l-.84-2.53a31.25,31.25,0,0,1-6.88,10.52,6.21,6.21,0,0,0-2.11,3.11c-.33,2,1.5,3.66,3.14,4.88a3.73,3.73,0,0,1-4.58-.44,8.29,8.29,0,0,0,1.6,5.2c-3.16.78-7.75-1.09-8.19-4.32s-.58-9,1.35-11.67,5.61-3.49,7.14-6.37c2.71-5.06,2.35-9.74,2.16-15.47-.13-3.93.25-9.51-2.16-12.61-1.69-2.18-2.9-3.52-4.42-5.83-1.66-2.54-3.39-5.56-1.78-8.13" style="fill: rgb(38, 50, 56); transform-origin: 228.624px 91.8683px;" id="el3n72qmc72jl" class="animable"></path><path d="M192.65,80l1.55,41.68a12.41,12.41,0,0,0,13.47,11.9h0a12,12,0,0,0,10.94-12.75c-.12-3.14-.05-6.85,0-7.18,0,0,10.44-2.34,10.81-12.87.19-5.09.06-13.64-.48-23.15a19.63,19.63,0,0,0-19.14-18.49l-1,0C197.77,59.53,192,69.07,192.65,80Z" style="fill: rgb(255, 190, 157); transform-origin: 211.051px 96.383px;" id="elpcbndeakyj8" class="animable"></path><path d="M218.61,113.74A24.53,24.53,0,0,1,205,109.51s3.07,7.66,13.6,7Z" style="fill: rgb(235, 153, 110); transform-origin: 211.805px 113.03px;" id="elsypdfcjvej" class="animable"></path><path d="M225.84,86a1.52,1.52,0,0,1-1.49,1.49,1.45,1.45,0,0,1-1.52-1.4,1.51,1.51,0,0,1,1.48-1.48A1.45,1.45,0,0,1,225.84,86Z" style="fill: rgb(38, 50, 56); transform-origin: 224.335px 86.0497px;" id="elt0uv8oo93wh" class="animable"></path><path d="M226.52,82.78c-.19.19-1.31-.68-2.93-.71s-2.83.75-3,.55.12-.44.64-.81a4.16,4.16,0,0,1,2.41-.68,4,4,0,0,1,2.32.81C226.45,82.34,226.61,82.7,226.52,82.78Z" style="fill: rgb(38, 50, 56); transform-origin: 223.543px 81.9676px;" id="el2em7faj7rnk" class="animable"></path><path d="M210.42,86a1.5,1.5,0,0,1-1.48,1.49,1.45,1.45,0,0,1-1.52-1.4,1.5,1.5,0,0,1,1.48-1.48A1.44,1.44,0,0,1,210.42,86Z" style="fill: rgb(38, 50, 56); transform-origin: 208.92px 86.0497px;" id="elwckoxq9cse" class="animable"></path><path d="M210.6,82.71c-.19.19-1.31-.68-2.93-.71s-2.82.75-3,.54.12-.44.65-.8a4.1,4.1,0,0,1,2.4-.68,3.93,3.93,0,0,1,2.32.81C210.53,82.27,210.69,82.62,210.6,82.71Z" style="fill: rgb(38, 50, 56); transform-origin: 207.621px 81.8974px;" id="elg84pcdn6uz" class="animable"></path><path d="M216.19,94.85a11.07,11.07,0,0,1,2.64-.41c.42,0,.81-.11.89-.39a2.15,2.15,0,0,0-.25-1.23l-1.15-3.17c-1.59-4.53-2.73-8.24-2.55-8.3s1.62,3.55,3.21,8.07l1.1,3.19a2.48,2.48,0,0,1,.18,1.63,1,1,0,0,1-.7.59,3.19,3.19,0,0,1-.7.08A10.66,10.66,0,0,1,216.19,94.85Z" style="fill: rgb(38, 50, 56); transform-origin: 218.037px 88.1579px;" id="el4pncpzaa0ww" class="animable"></path><path d="M211.4,95.86c.27,0,.23,1.75,1.7,3s3.35,1.13,3.36,1.38-.42.33-1.22.33a4.33,4.33,0,0,1-2.8-1A3.77,3.77,0,0,1,211.13,97C211.08,96.28,211.28,95.85,211.4,95.86Z" style="fill: rgb(38, 50, 56); transform-origin: 213.791px 98.215px;" id="elmwcvz3tkz9b" class="animable"></path><path d="M210.41,77.53c-.17.44-1.78.19-3.68.38s-3.46.66-3.7.26c-.11-.19.17-.59.8-1a6.14,6.14,0,0,1,2.76-.89,6.06,6.06,0,0,1,2.86.41C210.14,77,210.49,77.33,210.41,77.53Z" style="fill: rgb(38, 50, 56); transform-origin: 206.714px 77.2887px;" id="elkdd571uyoo" class="animable"></path><path d="M226,78.08c-.29.36-1.4,0-2.74-.09s-2.48.19-2.73-.21c-.11-.18.07-.55.58-.88a3.92,3.92,0,0,1,4.41.24C226,77.52,226.16,77.91,226,78.08Z" style="fill: rgb(38, 50, 56); transform-origin: 223.279px 77.2855px;" id="elnxdf7mt91v8" class="animable"></path><path d="M193.33,87.85c-.18-.09-7.19-2.31-7.13,4.89s7.29,5.66,7.3,5.45S193.33,87.85,193.33,87.85Z" style="fill: rgb(255, 190, 157); transform-origin: 189.85px 92.9642px;" id="elcwajy2pckqa" class="animable"></path><path d="M191.27,95.48s-.12.09-.33.19a1.23,1.23,0,0,1-.94,0,3.14,3.14,0,0,1-1.46-2.78,4.19,4.19,0,0,1,.34-1.8,1.43,1.43,0,0,1,.93-1,.63.63,0,0,1,.74.34c.1.2.06.34.1.36s.15-.13.09-.42a.76.76,0,0,0-.29-.45.94.94,0,0,0-.69-.18,1.75,1.75,0,0,0-1.3,1.13,4.1,4.1,0,0,0-.42,2c.06,1.45.81,2.8,1.85,3.1a1.39,1.39,0,0,0,1.15-.2C191.26,95.66,191.3,95.5,191.27,95.48Z" style="fill: rgb(235, 153, 110); transform-origin: 189.657px 92.8744px;" id="el8fiq802brkd" class="animable"></path><path d="M205.06,89.47a.2.2,0,0,1-.21-.17.19.19,0,0,1,.14-.22.2.2,0,0,1,.07.39Z" style="fill: rgb(235, 153, 110); transform-origin: 205.022px 89.2751px;" id="elxeaq55umzzj" class="animable"></path><path d="M208.17,88.84a.22.22,0,0,1-.22-.19c0-.12,0-.24.14-.25s.19.06.22.19A.21.21,0,0,1,208.17,88.84Z" style="fill: rgb(235, 153, 110); transform-origin: 208.133px 88.6195px;" id="elbjfy7gpmk0j" class="animable"></path><path d="M210.25,88.83c-.1,0-.19-.11-.2-.27s0-.3.14-.31.19.12.21.28S210.35,88.82,210.25,88.83Z" style="fill: rgb(235, 153, 110); transform-origin: 210.225px 88.5397px;" id="eld3tk2kimqxw" class="animable"></path><path d="M206.53,91.44c-.09,0-.17,0-.17-.12s.08-.11.18-.11.18.06.18.12S206.63,91.44,206.53,91.44Z" style="fill: rgb(235, 153, 110); transform-origin: 206.54px 91.3249px;" id="elpict4rg8i7" class="animable"></path><path d="M209.39,90.85a.18.18,0,0,1-.19-.19.18.18,0,0,1,.16-.21.19.19,0,0,1,.19.19A.18.18,0,0,1,209.39,90.85Z" style="fill: rgb(235, 153, 110); transform-origin: 209.375px 90.6501px;" id="el3xzej5n3x53" class="animable"></path><path d="M224.19,89.43a.18.18,0,0,1-.21-.16.18.18,0,0,1,.14-.23.19.19,0,0,1,.21.17A.18.18,0,0,1,224.19,89.43Z" style="fill: rgb(235, 153, 110); transform-origin: 224.154px 89.2357px;" id="elaccbu7nr1dk" class="animable"></path><path d="M226.3,89.29a.2.2,0,0,1-.19-.21.18.18,0,1,1,.35,0A.2.2,0,0,1,226.3,89.29Z" style="fill: rgb(235, 153, 110); transform-origin: 226.285px 89.0739px;" id="el9xf0gm5zy8p" class="animable"></path><path d="M222.33,89.44a.17.17,0,0,1-.21-.12.17.17,0,0,1,.15-.19.17.17,0,0,1,.2.13A.16.16,0,0,1,222.33,89.44Z" style="fill: rgb(235, 153, 110); transform-origin: 222.295px 89.2864px;" id="elgiord8htgvu" class="animable"></path><path d="M223.84,91.59a.2.2,0,0,1-.25-.12.2.2,0,0,1,.09-.26.18.18,0,0,1,.24.12A.19.19,0,0,1,223.84,91.59Z" style="fill: rgb(235, 153, 110); transform-origin: 223.758px 91.3987px;" id="elmuf69qpddtj" class="animable"></path><path d="M225.65,91.27a.17.17,0,0,1-.13-.19.18.18,0,0,1,.34.1A.16.16,0,0,1,225.65,91.27Z" style="fill: rgb(235, 153, 110); transform-origin: 225.69px 91.1312px;" id="elluj1r21yyzo" class="animable"></path><path d="M221.73,62.65c-1.22-5.41-6.52-9.28-12-9.71S199,55.05,195,58.81s-6.83,8.66-9.21,13.66c-1.55,3.28-3.16,6.87-6.32,8.58-1.31.71-3.15,1.63-2.73,3.09a5.46,5.46,0,0,0,.77,1.26,5.58,5.58,0,0,1,.45,3.32q-.25,3-.75,6.07a13.29,13.29,0,0,0-.27,3.82,3.87,3.87,0,0,0,2,3.06l-2.48,2.19a3.11,3.11,0,0,0,2.5,2.39,9,9,0,0,0,3.61-.21c3.61-.72,7.4-1.52,10.18-4,3-2.64,4.3-6.75,4.9-10.74.55-3.72.59-7.5,1-11.24a23.93,23.93,0,0,1,3.51-10.59c2.11-3.08,5.59-5.38,9.28-5.27,1.9.06,3.76.73,5.64.58s3.93-1.61,3.73-3.53" style="fill: rgb(38, 50, 56); transform-origin: 199.095px 79.618px;" id="elxu3rhuafbdn" class="animable"></path><path d="M195.15,93.1c-1.63,5,2.46,23.9,5.65,26.52a2.26,2.26,0,0,1-2.21-.14,12.14,12.14,0,0,1,2.27,7.61,7,7,0,0,1-6.54-4.75,10.92,10.92,0,0,1-5.55,5.19l1.35-4.44a7.46,7.46,0,0,1-6.92.24,6.52,6.52,0,0,0,4.26-4.17,4.48,4.48,0,0,1-1.62,1.19,1.5,1.5,0,0,1-1.78-.55c-.76-1.38,1.61-2.81,1.22-4.33a6.46,6.46,0,0,1-6.45.79c4.94-3.78,3.42-12.13,5-18.21" style="fill: rgb(38, 50, 56); transform-origin: 189.851px 110.315px;" id="el12hfxse0q1j" class="animable"></path><path d="M194.26,90.18c-.18-.08-7.19-2.31-7.13,4.9s7.29,5.66,7.3,5.45S194.26,90.18,194.26,90.18Z" style="fill: rgb(255, 190, 157); transform-origin: 190.78px 95.3028px;" id="elq9idxv3zqpp" class="animable"></path><path d="M192.2,97.82s-.12.09-.33.19a1.29,1.29,0,0,1-.94,0,3.09,3.09,0,0,1-1.46-2.77,4.16,4.16,0,0,1,.33-1.8,1.46,1.46,0,0,1,.94-1,.62.62,0,0,1,.74.33c.1.2.06.35.1.36s.15-.12.09-.42a.83.83,0,0,0-.29-.45.94.94,0,0,0-.69-.18,1.78,1.78,0,0,0-1.31,1.13,4.28,4.28,0,0,0-.41,2c.05,1.45.81,2.8,1.85,3.09a1.35,1.35,0,0,0,1.15-.2C192.19,98,192.23,97.83,192.2,97.82Z" style="fill: rgb(235, 153, 110); transform-origin: 190.588px 95.2111px;" id="ela5dxos8z5j8" class="animable"></path><path d="M191.32,100.8c.05,0,0,.29-.43.43a1,1,0,0,1-.71,0,1.09,1.09,0,0,1-.62-.64,1.06,1.06,0,0,1,0-.89,1.08,1.08,0,0,1,.51-.49c.38-.15.62,0,.61,0s-.21.11-.42.29a.75.75,0,0,0,.52,1.35C191.09,100.86,191.26,100.74,191.32,100.8Z" style="fill: rgb(224, 224, 224); transform-origin: 190.399px 100.219px;" id="el3odk2wcxp1y" class="animable"></path><path d="M194.13,101c.06,0,.23.45-.29.93a1.18,1.18,0,0,1-1.12.24,1.59,1.59,0,0,1-1-.93,1.94,1.94,0,0,1,.55-2.28c.57-.37,1-.16,1-.1s-.38,0-.74.39a1.72,1.72,0,0,0-.3,1.79,1,1,0,0,0,1.46.6C194,101.33,194.05,100.94,194.13,101Z" style="fill: rgb(224, 224, 224); transform-origin: 192.881px 100.484px;" id="elph56zvctauf" class="animable"></path><path d="M181.14,104s0,0-.14-.13a3.1,3.1,0,0,1-.37-.43,7.4,7.4,0,0,1-1.1-1.91,10.55,10.55,0,0,1,.19-8,15.9,15.9,0,0,1,3.07-4.69,54.68,54.68,0,0,1,4.79-4.24,16.6,16.6,0,0,0,2.36-2.45A11,11,0,0,0,191.56,79a41.24,41.24,0,0,0,1.4-7.38,22.48,22.48,0,0,1,2.22-7.3A15.25,15.25,0,0,1,199.8,59a11.92,11.92,0,0,1,6-2.26,14.24,14.24,0,0,1,5.55.75,21.29,21.29,0,0,1,4.19,1.94,9.87,9.87,0,0,1,2.72,2.19,4.28,4.28,0,0,1,1,2,2.39,2.39,0,0,1,0,.77s0-.27-.11-.75a4.36,4.36,0,0,0-1-1.88,10.36,10.36,0,0,0-2.71-2.07,22.52,22.52,0,0,0-4.16-1.84,14,14,0,0,0-5.4-.67,11.56,11.56,0,0,0-5.78,2.22,14.57,14.57,0,0,0-4.44,5.25,22,22,0,0,0-2.17,7.13A40.56,40.56,0,0,1,192,79.2a11.41,11.41,0,0,1-1.71,3.24A16.55,16.55,0,0,1,187.9,85a55.78,55.78,0,0,0-4.8,4.18,15.87,15.87,0,0,0-3,4.53,9.88,9.88,0,0,0,1.08,10.3Z" style="fill: rgb(69, 90, 100); transform-origin: 199.063px 80.3606px;" id="eliyrygsq6a6p" class="animable"></path><path d="M228.08,379a4,4,0,0,1-1.06.1c-.68,0-1.66.05-2.88.05-2.43,0-5.79-.09-9.5-.35s-7-.64-9.46-1c-1.2-.16-2.17-.32-2.84-.44a4.31,4.31,0,0,1-1-.25,5,5,0,0,1,1.06.05l2.87.28c2.41.24,5.75.56,9.45.82s7,.41,9.47.5l2.87.12A4.59,4.59,0,0,1,228.08,379Z" style="fill: #FE8900; transform-origin: 214.71px 378.126px;" id="el4f5m9zy749" class="animable"></path><path d="M227.78,381.55a4.44,4.44,0,0,1-1.05.1c-.68,0-1.67,0-2.88,0-2.44,0-5.8-.08-9.5-.34s-7-.64-9.46-1c-1.21-.17-2.18-.32-2.85-.45a3.77,3.77,0,0,1-1-.24,4.49,4.49,0,0,1,1.06,0l2.86.29c2.42.24,5.76.56,9.45.82s7.05.4,9.47.5l2.88.11A4.05,4.05,0,0,1,227.78,381.55Z" style="fill: #FE8900; transform-origin: 214.41px 380.62px;" id="elax91zqdhm7h" class="animable"></path><path d="M202.53,354.88a4.06,4.06,0,0,1-.2,1.06c-.15.68-.41,1.65-.76,2.84a96.47,96.47,0,0,1-3.23,9.12,95.23,95.23,0,0,1-4.14,8.75c-.59,1.09-1.09,2-1.45,2.55a4.43,4.43,0,0,1-.61.9,4.75,4.75,0,0,1,.43-1l1.3-2.62c1.1-2.22,2.55-5.31,4-8.79s2.58-6.69,3.37-9c.36-1.09.66-2,.92-2.78A4.71,4.71,0,0,1,202.53,354.88Z" style="fill: #FE8900; transform-origin: 197.335px 367.49px;" id="elaoij9xnk38v" class="animable"></path><path d="M203.13,364.47a14,14,0,0,1-.59,2.94,45,45,0,0,1-2.43,6.81,45.51,45.51,0,0,1-3.52,6.32,13.4,13.4,0,0,1-1.83,2.37,22.74,22.74,0,0,1,1.52-2.57,59.45,59.45,0,0,0,5.91-13A22.69,22.69,0,0,1,203.13,364.47Z" style="fill: #FE8900; transform-origin: 198.945px 373.69px;" id="elzdwfp1m06wb" class="animable"></path></g><defs>     <filter id="active" height="200%">         <feMorphology in="SourceAlpha" result="DILATED" operator="dilate" radius="2"></feMorphology>                <feFlood flood-color="#32DFEC" flood-opacity="1" result="PINK"></feFlood>        <feComposite in="PINK" in2="DILATED" operator="in" result="OUTLINE"></feComposite>        <feMerge>            <feMergeNode in="OUTLINE"></feMergeNode>            <feMergeNode in="SourceGraphic"></feMergeNode>        </feMerge>    </filter>    <filter id="hover" height="200%">        <feMorphology in="SourceAlpha" result="DILATED" operator="dilate" radius="2"></feMorphology>                <feFlood flood-color="#ff0000" flood-opacity="0.5" result="PINK"></feFlood>        <feComposite in="PINK" in2="DILATED" operator="in" result="OUTLINE"></feComposite>        <feMerge>            <feMergeNode in="OUTLINE"></feMergeNode>            <feMergeNode in="SourceGraphic"></feMergeNode>        </feMerge>            <feColorMatrix type="matrix" values="0   0   0   0   0                0   1   0   0   0                0   0   0   0   0                0   0   0   1   0 "></feColorMatrix>    </filter></defs></svg>