<svg width="28" height="28" viewBox="0 0 28 28" fill="none" xmlns="http://www.w3.org/2000/svg">
<circle cx="14" cy="14" r="14" fill="url(#paint0_linear_159:2295)"/>
<path d="M16.8933 10.5991C18.06 11.41 18.865 12.6991 19.0283 14.1866" stroke="white" stroke-linecap="round" stroke-linejoin="round"/>
<path d="M9.03583 14.2159C9.18749 12.7343 9.98083 11.4451 11.1358 10.6284" stroke="white" stroke-linecap="round" stroke-linejoin="round"/>
<path d="M11.7775 19.2148C12.4542 19.559 13.2242 19.7515 14.035 19.7515C14.8167 19.7515 15.5517 19.5765 16.2108 19.2557" stroke="white" stroke-linecap="round" stroke-linejoin="round"/>
<path d="M14.035 11.4919C14.9306 11.4919 15.6567 10.7658 15.6567 9.8702C15.6567 8.97458 14.9306 8.24854 14.035 8.24854C13.1394 8.24854 12.4133 8.97458 12.4133 9.8702C12.4133 10.7658 13.1394 11.4919 14.035 11.4919Z" stroke="white" stroke-linecap="round" stroke-linejoin="round"/>
<path d="M9.8175 18.6198C10.7131 18.6198 11.4392 17.8938 11.4392 16.9981C11.4392 16.1025 10.7131 15.3765 9.8175 15.3765C8.92188 15.3765 8.19583 16.1025 8.19583 16.9981C8.19583 17.8938 8.92188 18.6198 9.8175 18.6198Z" stroke="white" stroke-linecap="round" stroke-linejoin="round"/>
<path d="M18.1825 18.6198C19.0781 18.6198 19.8042 17.8938 19.8042 16.9981C19.8042 16.1025 19.0781 15.3765 18.1825 15.3765C17.2869 15.3765 16.5608 16.1025 16.5608 16.9981C16.5608 17.8938 17.2869 18.6198 18.1825 18.6198Z" stroke="white" stroke-linecap="round" stroke-linejoin="round"/>
<defs>
<linearGradient id="paint0_linear_159:2295" x1="0" y1="0" x2="28.5977" y2="0.62435" gradientUnits="userSpaceOnUse">
<stop stop-color="#FE0000"/>
<stop offset="1" stop-color="#FE8900"/>
</linearGradient>
</defs>
</svg>
