<svg width="32" height="32" viewBox="0 0 32 32" fill="none" xmlns="http://www.w3.org/2000/svg">
<circle cx="16" cy="16" r="14" fill="url(#paint0_linear_860_12147)"/>
<path d="M18.8933 12.5991C20.06 13.41 20.865 14.6991 21.0283 16.1866" stroke="white" stroke-linecap="round" stroke-linejoin="round"/>
<path d="M11.0358 16.2159C11.1875 14.7343 11.9808 13.4451 13.1358 12.6284" stroke="white" stroke-linecap="round" stroke-linejoin="round"/>
<path d="M13.7775 21.2148C14.4542 21.559 15.2242 21.7515 16.035 21.7515C16.8167 21.7515 17.5517 21.5765 18.2108 21.2557" stroke="white" stroke-linecap="round" stroke-linejoin="round"/>
<path d="M16.035 13.4919C16.9306 13.4919 17.6567 12.7658 17.6567 11.8702C17.6567 10.9746 16.9306 10.2485 16.035 10.2485C15.1394 10.2485 14.4133 10.9746 14.4133 11.8702C14.4133 12.7658 15.1394 13.4919 16.035 13.4919Z" stroke="white" stroke-linecap="round" stroke-linejoin="round"/>
<path d="M11.8175 20.6198C12.7131 20.6198 13.4392 19.8938 13.4392 18.9981C13.4392 18.1025 12.7131 17.3765 11.8175 17.3765C10.9219 17.3765 10.1958 18.1025 10.1958 18.9981C10.1958 19.8938 10.9219 20.6198 11.8175 20.6198Z" stroke="white" stroke-linecap="round" stroke-linejoin="round"/>
<path d="M20.1825 20.6198C21.0781 20.6198 21.8042 19.8938 21.8042 18.9981C21.8042 18.1025 21.0781 17.3765 20.1825 17.3765C19.2869 17.3765 18.5608 18.1025 18.5608 18.9981C18.5608 19.8938 19.2869 20.6198 20.1825 20.6198Z" stroke="white" stroke-linecap="round" stroke-linejoin="round"/>
<defs>
<linearGradient id="paint0_linear_860_12147" x1="2" y1="2" x2="30.5977" y2="2.62435" gradientUnits="userSpaceOnUse">
<stop stop-color="#FE6B00"/>
<stop offset="1" stop-color="#FE0000"/>
</linearGradient>
</defs>
</svg>
