<svg width="100" height="100" viewBox="0 0 100 100" fill="none" xmlns="http://www.w3.org/2000/svg">
<g filter="url(#filter0_b_859_18277)">
<circle cx="50" cy="50" r="50" fill="url(#paint0_linear_859_18277)" fill-opacity="0.8"/>
</g>
<mask id="mask0_859_18277" style="mask-type:alpha" maskUnits="userSpaceOnUse" x="0" y="0" width="100" height="100">
<circle cx="50" cy="50" r="50" fill="url(#paint1_linear_859_18277)"/>
</mask>
<g mask="url(#mask0_859_18277)">
<path d="M56.1335 30.9923L61.8095 30.501L69.5671 35.1878C69.5671 35.1878 81.2939 34.5414 85.3731 36.0541C87.7511 36.9089 90.0613 37.9418 92.2838 39.1442L96.9999 42.7141C95.857 50.1427 75.7667 68.2351 70.136 66.3022L70.8665 48.0848L79.8135 44.206L70.1166 40.9737L61.0337 40.728L56.1335 30.9923Z" fill="#FFBE9D"/>
<path d="M33.3006 57.1935C33.3006 57.1935 18.1927 66.2052 15.7943 68.3838C13.396 70.5624 9 83.9959 9 83.9959L23.3903 89.3939L26.6226 104.301L62.6048 103.61L66.781 70.6012L70.1814 69.2048L71.2351 47.9426L59.9996 51.343L49.4751 56.1657L33.3006 57.1935Z" fill="#263238"/>
<path d="M24.5536 94.8113C24.4582 94.6046 24.3866 94.3877 24.3403 94.1648L23.8619 92.2965C23.4482 90.6351 22.9116 88.4824 22.3169 86.1099C21.7221 83.7374 21.1985 81.4941 20.8623 79.8909C20.6942 79.0957 20.5649 78.4428 20.4874 77.9967C20.4312 77.7639 20.403 77.5252 20.4033 77.2856C20.502 77.5023 20.5737 77.7303 20.6167 77.9644C20.7459 78.4816 20.9076 79.1087 21.095 79.8392C21.5088 81.5006 22.0453 83.6533 22.6401 86.0258C23.2348 88.3984 23.7585 90.6416 24.0946 92.2384C24.2627 93.04 24.392 93.6864 24.4696 94.139C24.5266 94.3585 24.5549 94.5845 24.5536 94.8113V94.8113Z" fill="#455A64"/>
<path d="M69.3606 61.5896C69.1804 62.1208 68.9645 62.6391 68.7142 63.1411C68.1878 64.3756 67.7429 65.6432 67.3824 66.9359C67.0326 68.2293 66.7692 69.5445 66.5938 70.8728C66.5538 71.4316 66.4739 71.9869 66.3546 72.5342C66.2848 71.9761 66.2848 71.4115 66.3546 70.8534C66.5734 68.1395 67.2992 65.4906 68.4944 63.0441C68.7163 62.5225 69.0077 62.0332 69.3606 61.5896Z" fill="#455A64"/>
<path d="M26.6808 60.7231L46.7212 74.4088C46.7212 74.4088 50.2185 72.812 52.2937 73.2516C54.3688 73.6912 69.6383 81.5134 69.6383 81.5134C69.6383 81.5134 70.8149 83.8084 69.6771 84.972L69.5026 89.4973L67.3628 93.8997L64.6088 94.85C63.9215 94.8385 63.2516 95.0672 62.7147 95.4965C61.6286 96.2593 47.7878 89.6783 47.7878 89.6783L42.0343 76.9947L40.3341 74.3054L22.9377 62.9341L26.6808 60.7231Z" fill="url(#paint2_linear_859_18277)"/>
<path d="M52.3 77.1953C52.5489 77.2094 52.7946 77.2572 53.0306 77.3375C53.496 77.4474 54.1619 77.6349 54.9699 77.887C59.2317 79.2193 63.2955 81.1175 67.0524 83.5307C67.7699 83.9896 68.3453 84.384 68.7267 84.6684C68.935 84.8019 69.128 84.958 69.3021 85.1339C69.0737 85.0404 68.8568 84.9211 68.6556 84.7783L66.936 83.7311C65.475 82.8583 63.4257 81.7141 61.079 80.6086C58.7324 79.5032 56.5538 78.6692 54.9312 78.1133L52.9918 77.4668C52.7515 77.4032 52.5194 77.3121 52.3 77.1953V77.1953Z" fill="#263238"/>
<path d="M68.6622 90.2924C68.3848 90.3189 68.1056 90.3189 67.8282 90.2924C67.0689 90.2777 66.3112 90.2172 65.5592 90.1114C64.4407 89.969 63.3328 89.7531 62.2428 89.465C60.9184 89.0947 59.6222 88.6302 58.364 88.0751C57.1056 87.5 55.8894 86.8368 54.7244 86.0904C53.7777 85.4743 52.8729 84.7961 52.0157 84.0605C51.4368 83.5709 50.8864 83.0486 50.3673 82.4961C50.163 82.3012 49.9809 82.0844 49.8242 81.8496C49.8695 81.8044 50.684 82.6641 52.1709 83.8666C53.041 84.5635 53.9497 85.211 54.8925 85.806C56.0533 86.527 57.2581 87.1748 58.4998 87.7454C59.7609 88.2966 61.0566 88.7652 62.3786 89.1482C63.4516 89.4533 64.5417 89.6951 65.6432 89.8722C67.4792 90.189 68.6687 90.2278 68.6622 90.2924Z" fill="#263238"/>
<path d="M53.981 20.7847C55.5131 20.0542 57.4525 20.9463 58.3188 22.4009C59.185 23.8554 59.1915 25.672 58.8553 27.3334C58.5192 28.9948 58.0214 30.7726 59.1398 31.9233C60.0125 32.8219 61.6222 32.8736 62.2428 33.9661C63.1349 35.537 61.1309 37.373 61.4024 39.1379C61.5769 40.2627 62.6242 41.0772 63.665 41.5039C64.7058 41.9306 65.863 42.2344 66.7551 42.9391C67.6472 43.6437 68.1903 45.0077 67.5309 45.9387L61.7127 47.7746L60.5103 45.7576C60.6899 46.2044 60.7595 46.6877 60.7134 47.1669C60.6673 47.6462 60.5067 48.1073 60.2452 48.5116C59.7114 49.3116 59.0235 49.9973 58.2218 50.5286C55.2028 52.733 51.5373 54.2716 47.8008 54.0647" fill="#263238"/>
<path d="M28.5815 23.8231C28.5363 22.2651 29.9779 21.0627 31.4324 20.4873C32.887 19.912 34.4967 19.7051 35.7896 18.8324C36.9338 18.0631 37.729 16.893 38.6728 15.878C39.8677 14.659 41.3663 13.7808 43.0139 13.3342C44.6614 12.8876 46.3983 12.8886 48.0453 13.3373C49.6924 13.7859 51.1898 14.6659 52.3833 15.8864C53.5767 17.1069 54.4229 18.6238 54.8344 20.2804C55.3969 22.4978 55.0154 25.1225 53.2635 26.6029C51.2336 28.3095 48.2211 27.9346 45.6223 27.398C43.0235 26.8614 40.0692 26.3443 37.8971 27.8699C36.6041 28.7944 35.8348 30.2877 35.0397 31.6776C34.2445 33.0675 33.2296 34.4833 31.7169 35.0069C30.2041 35.5305 28.1419 34.6255 28.0837 33.0223" fill="#263238"/>
<path d="M28.6914 24.6765C28.8595 25.9694 27.9156 27.1589 26.9718 28.0769C26.0279 28.9949 24.9677 29.9775 24.7997 31.3092C24.6057 32.8413 25.7241 34.3411 25.4009 35.8345C25.194 36.7912 24.4506 37.5282 23.998 38.4203C23.4021 39.6712 23.3051 41.102 23.7265 42.4219C24.1144 43.7148 24.7285 46.6821 25.6659 47.7035C28.4236 50.6865 31.9838 52.81 35.9188 53.8191C39.644 54.5742 43.458 54.7919 47.2449 54.4656C50.3415 54.2781 53.9099 54.4203 56.4893 50.1536C57.8275 47.9427 58.4934 44.9819 59.2045 42.5254C59.8122 40.3856 60.3423 38.0971 59.7087 35.9702C59.3402 34.729 58.5903 33.6235 58.2219 32.3823C57.7693 30.8308 57.9374 29.15 57.7499 27.5597C57.5603 25.803 56.9525 24.1173 55.9775 22.6437C55.0025 21.1701 53.6887 19.9515 52.1461 19.09C50.6034 18.2284 48.8768 17.749 47.1108 17.6918C45.3448 17.6347 43.5908 18.0014 41.9956 18.7613" fill="#263238"/>
<path d="M56.2501 30.0356C55.9592 25.5879 53.0178 20.1382 48.5637 20.6166L34.7293 24.1463C34.0779 24.2114 33.4755 24.5212 33.0436 25.0131C32.6117 25.505 32.3824 26.1425 32.402 26.7968L33.3006 57.1806C33.3682 59.2932 34.2675 61.2936 35.8027 62.7464C37.3378 64.1993 39.3847 64.987 41.4978 64.9382V64.9382C43.5912 64.8926 45.5836 64.0297 47.0491 62.5341C48.5145 61.0385 49.3365 59.0288 49.3394 56.9349C49.3394 54.7693 49.3394 52.2158 49.3394 52.2287C49.3394 52.2416 55.0218 51.2719 56.1855 43.8246C56.7673 40.1915 56.5733 34.981 56.2501 30.0356Z" fill="#FFBE9D"/>
<path d="M53.7808 35.7762C53.7826 36.0239 53.6877 36.2625 53.5162 36.4412C53.3447 36.6199 53.1103 36.7246 52.8628 36.733C52.7418 36.7436 52.6199 36.7297 52.5044 36.6922C52.3889 36.6547 52.2822 36.5944 52.1905 36.5148C52.0988 36.4351 52.0241 36.3379 51.9708 36.2288C51.9174 36.1197 51.8866 36.0009 51.8802 35.8797C51.8783 35.6314 51.973 35.3921 52.1443 35.2124C52.3156 35.0326 52.55 34.9265 52.7981 34.9165C52.9194 34.9068 53.0415 34.9215 53.157 34.9597C53.2725 34.998 53.3792 35.059 53.4708 35.1391C53.5624 35.2192 53.637 35.3169 53.6902 35.4263C53.7435 35.5358 53.7742 35.6547 53.7808 35.7762V35.7762Z" fill="#263238"/>
<path d="M54.9442 33.1841C54.8278 33.3069 54.1038 32.7768 53.0824 32.7833C52.061 32.7897 51.3046 33.3004 51.1947 33.1776C51.0848 33.0548 51.2594 32.8996 51.5891 32.6604C52.0297 32.35 52.5563 32.185 53.0953 32.1885C53.627 32.1871 54.1454 32.3546 54.5757 32.6669C54.8925 32.9061 55.0024 33.1324 54.9442 33.1841Z" fill="#263238"/>
<path d="M43.9609 35.7762C43.9628 36.0239 43.8678 36.2625 43.6964 36.4412C43.5249 36.6199 43.2905 36.7246 43.043 36.733C42.922 36.7436 42.8001 36.7297 42.6846 36.6922C42.5691 36.6547 42.4624 36.5944 42.3707 36.5148C42.279 36.4351 42.2043 36.3379 42.1509 36.2288C42.0976 36.1197 42.0668 36.0009 42.0603 35.8797C42.0584 35.6314 42.1532 35.3921 42.3245 35.2124C42.4958 35.0326 42.7302 34.9265 42.9783 34.9165C43.0996 34.9068 43.2216 34.9215 43.3372 34.9597C43.4527 34.998 43.5594 35.059 43.651 35.1391C43.7425 35.2192 43.8172 35.3169 43.8704 35.4263C43.9236 35.5358 43.9544 35.6547 43.9609 35.7762V35.7762Z" fill="#263238"/>
<path d="M44.8854 33.397C44.7625 33.5198 44.045 32.9897 43.0171 32.9962C41.9892 33.0026 41.2458 33.5133 41.1359 33.3905C41.026 33.2677 41.2005 33.1125 41.5302 32.8733C41.9708 32.5629 42.4975 32.3979 43.0365 32.4014C43.5678 32.4022 44.0856 32.5695 44.5169 32.8798C44.8336 33.119 44.9435 33.3453 44.8854 33.397Z" fill="#263238"/>
<path d="M48.6155 40.9801C49.1544 40.81 49.7126 40.7079 50.2769 40.6763C50.5355 40.6763 50.7876 40.5987 50.8264 40.4177C50.8511 40.1472 50.79 39.8758 50.6518 39.642L49.8761 37.6573C48.7965 34.8258 48.0142 32.4856 48.1306 32.4856C48.247 32.4856 49.2102 34.703 50.2898 37.5345C50.5484 38.2327 50.8005 38.8985 51.0332 39.5385C51.2016 39.851 51.2499 40.2143 51.169 40.5599C51.1319 40.652 51.0742 40.7343 51.0002 40.8004C50.9262 40.8666 50.8379 40.9148 50.7423 40.9414C50.5971 40.9823 50.4471 41.004 50.2963 41.006C49.7372 41.0688 49.1724 41.0601 48.6155 40.9801V40.9801Z" fill="#263238"/>
<path d="M49.4491 52.2221C45.9617 52.295 42.5223 51.4 39.5129 49.6362C39.5129 49.6362 42.0277 54.7239 49.4491 54.0128V52.2221Z" fill="#EB996E"/>
<path d="M48.1889 43.4498C47.9937 43.2047 47.7394 43.0132 47.4499 42.8933C47.1604 42.7735 46.8453 42.7291 46.5339 42.7645C46.3065 42.7884 46.0862 42.858 45.8862 42.9691C45.6863 43.0802 45.5108 43.2305 45.3703 43.411C45.2352 43.5828 45.1554 43.7916 45.1416 44.0098C45.1277 44.228 45.1804 44.4452 45.2927 44.6328C45.4575 44.8169 45.6737 44.9474 45.9134 45.0073C46.1531 45.0673 46.4053 45.0539 46.6374 44.9689C47.1137 44.7918 47.5523 44.5265 47.9303 44.1867C48.0446 44.1036 48.1432 44.0007 48.2212 43.8829C48.259 43.8265 48.2792 43.7601 48.2792 43.6922C48.2792 43.6243 48.259 43.5579 48.2212 43.5015" fill="url(#paint3_angular_859_18277)"/>
<path d="M45.6031 41.6981C45.7712 41.6981 45.7777 42.7971 46.728 43.5858C47.6783 44.3745 48.8613 44.2322 48.8742 44.4003C48.8872 44.5684 48.6092 44.6137 48.1114 44.6331C47.4575 44.6323 46.8243 44.4037 46.3207 43.9866C45.8353 43.5918 45.5224 43.0239 45.448 42.4028C45.4027 41.9632 45.5255 41.6916 45.6031 41.6981Z" fill="#263238"/>
<path d="M45.1309 30.4038C45.0275 30.6818 44.0061 30.5525 42.8101 30.6948C41.6141 30.837 40.638 31.1731 40.4764 30.9275C40.4053 30.8047 40.5733 30.5461 40.9612 30.281C41.481 29.9411 42.0755 29.7326 42.6937 29.6733C43.3071 29.5966 43.9299 29.6675 44.5103 29.8802C44.9499 30.0483 45.1762 30.2422 45.1309 30.4038Z" fill="#263238"/>
<path d="M54.5628 30.2422C54.3818 30.475 53.6771 30.2422 52.8303 30.2422C51.9834 30.2422 51.2594 30.3974 51.0977 30.1582C51.0202 30.0418 51.1365 29.8027 51.4468 29.5829C51.8685 29.3191 52.3588 29.1864 52.8559 29.2013C53.353 29.2163 53.8345 29.3783 54.2396 29.6669C54.5434 29.8738 54.6404 30.113 54.5628 30.2422Z" fill="#263238"/>
<path d="M29.5579 48.5439C30.5846 48.75 31.6458 48.7084 32.6532 48.4224C33.6607 48.1365 34.5855 47.6145 35.3508 46.8996C36.1162 46.1848 36.7001 45.2978 37.0542 44.3122C37.4082 43.3266 37.5221 42.2708 37.3865 41.2324C37.1538 39.4158 36.1712 37.5605 36.8047 35.8344C37.6387 33.5588 40.8387 32.8542 41.6855 30.5786C42.1768 29.2857 41.7308 27.7148 42.2932 26.4154C42.8556 25.116 44.0968 24.476 45.3445 24.0494C46.5922 23.6227 47.9304 23.2865 48.9777 22.472C50.0249 21.6574 50.6778 20.1189 50.0055 18.9746C44.4659 19.6415 39.0254 20.9653 33.7987 22.918C32.5898 23.3641 31.3162 23.9136 30.5663 24.9867C29.8164 26.0599 29.8488 27.5726 29.9199 28.9625L30.8508 48.9899" fill="#263238"/>
<path d="M50.2446 16.1948C50.432 18.0631 50.6195 19.9896 50.1088 21.7932C49.5981 23.5968 48.2276 25.297 46.3722 25.6073C45.493 25.756 44.5104 25.6073 43.7864 26.131C42.2543 27.23 43.5084 29.8223 42.6033 31.4772C41.7953 32.9641 39.6167 33.0999 38.5371 34.3993C37.3476 35.8409 37.9682 38.0065 38.7957 39.6744C39.6231 41.3423 40.651 43.1847 40.0886 44.9625C39.4421 46.9536 37.0955 48.0138 36.5072 50.0114C36.1322 51.3043 36.5072 52.8946 35.6086 53.8902C34.8975 54.6401 33.7145 54.6595 32.6801 54.5366C28.4265 54.1384 24.3115 52.8145 20.6236 50.6578C21.2472 49.6262 21.5903 48.4496 21.6191 47.2445L19.5375 48.7572C17.9472 46.7661 16.3526 44.7772 14.7537 42.7904C15.2392 41.574 15.9661 40.4687 16.8905 39.5409C17.8149 38.6132 18.9177 37.8823 20.1322 37.3924C21.5803 36.817 23.4357 36.3257 23.7718 34.8065C23.9593 33.9661 22.9508 32.434 23.4939 30.4817C23.4939 30.4817 24.4054 26.7581 26.5581 25.7108C28.7108 24.6635 28.4135 24.03 28.8854 22.6013" fill="#263238"/>
<path d="M11.2561 84.8428C11.2561 84.8428 11.2561 110.204 19.4662 113.604C23.5389 115.291 29.2278 112.608 29.2278 112.608L45.189 91.5207L40.8965 86.1874L24.5539 94.8113L23.3902 89.3939L11.2561 84.8428Z" fill="#FFBE9D"/>
<path d="M57.2585 73.2649H47.8331C46.9441 73.2649 46.2234 73.9856 46.2234 74.8746V93.6996C46.2234 94.5886 46.9441 95.3093 47.8331 95.3093H57.2585C58.1475 95.3093 58.8682 94.5886 58.8682 93.6996V74.8746C58.8682 73.9856 58.1475 73.2649 57.2585 73.2649Z" fill="#455A64"/>
<path d="M42.907 86.1875C43.4123 84.9113 43.6754 83.5521 43.6827 82.1794C43.6414 81.3518 43.742 80.5231 43.9801 79.7294C44.2581 78.9536 45.1373 78.2296 45.9195 78.4364L46.2104 84.4938L42.907 86.1875Z" fill="#FFBE9D"/>
<path d="M50.2447 80.5373C49.999 80.5373 44.1679 82.4767 44.1679 82.4767L40.8839 84.9915C40.4562 85.6259 40.1578 86.3384 40.0058 87.0883C39.8538 87.8382 39.8513 88.6107 39.9982 89.3616C40.3926 92.1672 41.5885 93.3244 44.5687 94.5785H50.5744L53.9166 92.6391C54.2386 92.4491 54.4967 92.1674 54.6579 91.83C54.8191 91.4927 54.8761 91.1149 54.8217 90.745V90.6157L55.2419 90.1115C55.3746 89.9564 55.4579 89.7652 55.481 89.5624C55.504 89.3596 55.4658 89.1545 55.3712 88.9737V88.9737C55.2469 88.7311 55.0313 88.5478 54.7718 88.4642C54.5124 88.3805 54.2303 88.4033 53.9877 88.5276L50.2576 90.467L47.9174 90.4088L47.6912 89.6008L51.3308 88.3854L56.1405 85.7478C56.2886 85.6634 56.4186 85.5504 56.5229 85.4155C56.6272 85.2806 56.7038 85.1264 56.7483 84.9617C56.7928 84.7971 56.8042 84.6253 56.782 84.4562C56.7598 84.2871 56.7043 84.1241 56.6188 83.9765V83.9765C56.4611 83.721 56.2194 83.5283 55.9351 83.4316C55.6508 83.3349 55.3417 83.3401 55.0609 83.4464L50.7166 85.1595L46.2754 86.3296L47.1869 84.7846L52.6431 81.9466C52.6431 81.9466 53.296 80.2529 50.2447 80.5373Z" fill="#FFBE9D"/>
<path d="M40.8967 85.0046C42.0911 84.3088 43.2243 83.5129 44.2842 82.6256H44.2325L44.4587 82.5545C45.8635 82.1563 47.2341 81.6461 48.5573 81.0288C47.1256 81.3177 45.7185 81.7176 44.3488 82.2248L44.129 82.2959H44.0967C42.9591 83.1114 41.8889 84.0172 40.8967 85.0046V85.0046Z" fill="#EB996E"/>
<path d="M46.3203 92.51C46.7043 92.7394 47.1237 92.9033 47.5615 92.9949C48.6095 93.351 49.7458 93.351 50.7938 92.9949C51.3409 92.7726 51.8722 92.5134 52.3841 92.2191L53.6383 91.5209C54.0372 91.3295 54.4089 91.086 54.7437 90.7969C54.315 90.9073 53.9038 91.077 53.5219 91.3011L52.229 91.9476C51.7224 92.2237 51.2 92.4698 50.6646 92.6845C49.6824 93.0114 48.626 93.0429 47.6262 92.7751C47.2003 92.6452 46.7631 92.5565 46.3203 92.51V92.51Z" fill="#EB996E"/>
</g>
<defs>
<filter id="filter0_b_859_18277" x="-50" y="-50" width="200" height="200" filterUnits="userSpaceOnUse" color-interpolation-filters="sRGB">
<feFlood flood-opacity="0" result="BackgroundImageFix"/>
<feGaussianBlur in="BackgroundImage" stdDeviation="25"/>
<feComposite in2="SourceAlpha" operator="in" result="effect1_backgroundBlur_859_18277"/>
<feBlend mode="normal" in="SourceGraphic" in2="effect1_backgroundBlur_859_18277" result="shape"/>
</filter>
<linearGradient id="paint0_linear_859_18277" x1="0" y1="0" x2="102.135" y2="2.22982" gradientUnits="userSpaceOnUse">
<stop stop-color="#FE6B00"/>
<stop offset="1" stop-color="#FE0000"/>
</linearGradient>
<linearGradient id="paint1_linear_859_18277" x1="0" y1="0" x2="102.135" y2="2.22982" gradientUnits="userSpaceOnUse">
<stop stop-color="#FE6B00"/>
<stop offset="1" stop-color="#FE0000"/>
</linearGradient>
<linearGradient id="paint2_linear_859_18277" x1="22.9377" y1="60.7231" x2="71.1619" y2="62.1508" gradientUnits="userSpaceOnUse">
<stop stop-color="#FE0000"/>
<stop offset="1" stop-color="#FE6B00"/>
</linearGradient>
<radialGradient id="paint3_angular_859_18277" cx="0" cy="0" r="1" gradientUnits="userSpaceOnUse" gradientTransform="translate(46.7093 43.8984) rotate(36.1232) scale(1.94353 43.3164)">
<stop stop-color="#FE8900"/>
<stop offset="1" stop-color="#FE0000"/>
</radialGradient>
</defs>
</svg>
