<svg width="100" height="100" viewBox="0 0 100 100" fill="none" xmlns="http://www.w3.org/2000/svg">
<g filter="url(#filter0_b_859_18274)">
<circle cx="50" cy="50" r="50" fill="url(#paint0_linear_859_18274)" fill-opacity="0.8"/>
</g>
<mask id="mask0_859_18274" style="mask-type:alpha" maskUnits="userSpaceOnUse" x="0" y="0" width="100" height="100">
<circle cx="50" cy="50" r="50" fill="url(#paint1_linear_859_18274)"/>
</mask>
<g mask="url(#mask0_859_18274)">
<path d="M52.2675 45.7881H28.1765V65.1869H52.2675V45.7881Z" fill="#B78876"/>
<path d="M19.858 46.6761L29.3855 42.5339C29.3855 42.5339 35.9568 60.3572 42.5224 59.1942C49.088 58.0312 48.727 45.7308 48.727 45.7308L56.066 46.361L55.6192 57.9338L47.8562 87.6049L47.925 88.3325C47.925 88.3325 25.7647 96.9262 22.3845 95.8377C19.0044 94.7491 21.3075 93.9528 21.3075 93.9528L23.3585 90.9966L20.895 87.2154L16.4148 59.9505L19.858 46.6761Z" fill="#263238"/>
<path d="M52.2678 61.7323C51.9646 61.8077 51.6563 61.8613 51.3454 61.8927C50.7725 61.9787 49.8902 62.0875 48.8246 62.2021C46.6877 62.437 43.7257 62.6833 40.4486 62.775C37.1716 62.8667 34.1982 62.775 32.0555 62.6833C30.9841 62.6318 30.1133 62.5745 29.5175 62.5229C29.2052 62.5141 28.8944 62.4757 28.5894 62.4083C28.9003 62.3872 29.2123 62.3872 29.5232 62.4083L32.0612 62.4828C34.2039 62.5344 37.1716 62.5745 40.4372 62.4828C43.7028 62.3911 46.6647 62.1792 48.8017 62.0016L51.334 61.7839C51.6429 61.7374 51.9556 61.7201 52.2678 61.7323V61.7323Z" fill="#FAFAFA"/>
<path d="M50.8234 69.2717C50.5833 69.3596 50.336 69.4267 50.0844 69.4723C49.6031 69.5868 48.9042 69.7243 48.0334 69.8676C43.4833 70.6012 38.8495 70.6552 34.2835 70.028C33.4127 69.9019 32.708 69.7816 32.2267 69.6785C31.9724 69.6454 31.7226 69.5839 31.4819 69.4952C31.7375 69.4944 31.9926 69.5174 32.2439 69.5639C32.7309 69.6327 33.4356 69.7243 34.3121 69.816C38.8616 70.328 43.457 70.2741 47.9933 69.6556C48.8641 69.541 49.5688 69.4379 50.0557 69.3577C50.3077 69.3011 50.5652 69.2723 50.8234 69.2717V69.2717Z" fill="#FAFAFA"/>
<path d="M48.4518 77.3268C48.2848 77.4152 48.105 77.477 47.919 77.5101C47.5752 77.6133 47.0653 77.7393 46.4351 77.8711C44.7865 78.2046 43.1142 78.4076 41.4336 78.4784C39.7522 78.5454 38.068 78.4764 36.3977 78.2721C35.7561 78.1919 35.2519 78.1117 34.891 78.0372C34.7042 78.0159 34.5211 77.9697 34.3467 77.8997C34.3467 77.8539 35.143 77.957 36.4206 78.0659C38.084 78.2044 39.7542 78.2426 41.4221 78.1804C43.0889 78.109 44.7497 77.9349 46.395 77.6591C47.6382 77.4528 48.4403 77.281 48.4518 77.3268Z" fill="#FAFAFA"/>
<path d="M48.0624 84.4998C47.5887 84.7056 47.0954 84.863 46.59 84.9695C45.6676 85.2159 44.39 85.5425 42.9749 85.8919C41.5598 86.2414 40.2708 86.5279 39.3369 86.7284C38.8382 86.8623 38.328 86.9486 37.813 86.9862C38.2898 86.7849 38.7848 86.6295 39.2911 86.5221C40.2135 86.2701 41.4854 85.9492 42.9004 85.5998C44.3155 85.2503 45.6046 84.9638 46.5384 84.7633C47.0365 84.6257 47.547 84.5374 48.0624 84.4998V84.4998Z" fill="#FAFAFA"/>
<path d="M26.6008 87.1464C25.6046 87.2479 24.6007 87.2479 23.6045 87.1464C22.6021 87.1419 21.6024 87.0402 20.6196 86.8428C22.6187 86.7467 24.6223 86.8504 26.6008 87.1521V87.1464Z" fill="#FAFAFA"/>
<path d="M22.2471 79.0745C21.8274 79.2257 21.3786 79.2786 20.9352 79.2292C20.4936 79.2796 20.0464 79.2266 19.6289 79.0745C20.0481 78.9296 20.4941 78.8788 20.9352 78.9255C21.3781 78.8793 21.8258 78.9301 22.2471 79.0745V79.0745Z" fill="#FAFAFA"/>
<path d="M29.2309 92.429C28.9087 92.6963 28.5474 92.9128 28.1596 93.0706C27.2455 93.5103 26.2845 93.8447 25.295 94.0675C24.3018 94.2881 23.2875 94.3996 22.2701 94.3998C21.8482 94.4211 21.4255 94.3806 21.0154 94.2795C22.4283 94.2006 23.8347 94.0322 25.2263 93.7753C26.5892 93.4148 27.927 92.965 29.2309 92.429V92.429Z" fill="#FAFAFA"/>
<path d="M33.963 53.2473C33.963 53.339 32.0552 53.2072 29.7177 53.3218C27.3802 53.4364 25.5011 53.74 25.4839 53.6541C25.8748 53.4973 26.2854 53.3951 26.7042 53.3505C28.6922 53.0109 30.7142 52.9147 32.7255 53.064C33.1444 53.0683 33.5608 53.13 33.963 53.2473V53.2473Z" fill="#FAFAFA"/>
<path d="M54.7824 54.485C53.5903 54.5303 52.3965 54.4767 51.2132 54.3246C50.0222 54.2753 48.8377 54.1239 47.6726 53.872C48.8647 53.8267 50.0586 53.8803 51.2419 54.0324C52.4328 54.0817 53.6174 54.2332 54.7824 54.485Z" fill="#FAFAFA"/>
<path d="M31.7287 47.0083C30.2318 47.316 28.7159 47.5227 27.1912 47.6271C25.6726 47.8386 24.1412 47.9458 22.6079 47.9479C24.1061 47.6475 25.6215 47.4408 27.1454 47.3291C28.6647 47.1245 30.1956 47.0173 31.7287 47.0083V47.0083Z" fill="#FAFAFA"/>
<path d="M44.3785 113.758C44.5275 113.363 51.3107 111.558 57.8419 109.903C59.4003 109.509 60.8636 108.806 62.145 107.836C63.4264 106.866 64.4998 105.648 65.3014 104.255C66.103 102.861 66.6164 101.321 66.8113 99.7259C67.0061 98.1304 66.8784 96.5121 66.4356 94.967V94.967L48.8415 88.2524L23.2495 94.9612L44.3785 113.758Z" fill="#455A64"/>
<path d="M28.228 94.7205L20.8432 95.4366C20.8432 95.4366 13.0802 98.0548 13.3953 104.924C13.7104 111.793 17.8468 114.555 22.4932 117.305C27.1395 120.055 75.2985 121.968 75.2985 121.968L74.187 114.566L44.8253 108.235C44.8253 108.235 46.544 106.018 43.1581 101.315C39.7722 96.6111 28.228 94.7205 28.228 94.7205Z" fill="#B78876"/>
<path d="M59.4289 52.3252L72.4397 72.4401L82.7063 63.6173L91.3 62.8553L73.5741 86.8088L64.9002 84.7348L54.2498 66.5792V52.3252H59.4289Z" fill="#B78876"/>
<path d="M92.8527 50.8124L91.8042 50.4744C91.6201 50.4096 91.4211 50.3996 91.2313 50.4458C90.0339 50.715 85.4163 51.7635 83.6574 52.1645C83.4305 52.2187 83.2186 52.323 83.0372 52.4697C82.8558 52.6164 82.7095 52.8018 82.609 53.0124L75.4934 67.8451C75.401 68.0327 75.3706 68.2448 75.4066 68.4508C75.4426 68.6567 75.5433 68.8459 75.694 68.9909V68.9909L92.8527 50.8124Z" fill="#263238"/>
<path d="M92.8525 50.8125L85.0379 66.579L75.7109 69.0769L83.6687 53.5109C83.7573 53.3404 83.8813 53.1908 84.0325 53.0723C84.1837 52.9537 84.3585 52.8688 84.5452 52.8234L92.8525 50.8125Z" fill="#455A64"/>
<path d="M93.5455 57.6242C93.3622 57.3778 95.1554 49.0305 94.6398 48.8243C94.1242 48.618 93.8778 48.6868 93.5398 49.1852C93.2018 49.6836 91.145 54.5878 91.145 54.5878L90.2398 54.2555C89.9989 54.1641 89.7389 54.1345 89.4836 54.1695C88.1258 54.3643 83.6857 55.0117 83.7086 55.2065C83.7086 55.2065 83.6227 56.9252 85.1753 56.5815L82.981 57.2804C82.981 57.2804 82.2305 58.5466 83.5539 58.7586H85.0779L82.6946 59.2169C82.6946 59.2169 82.9295 60.5346 83.7946 60.6263C84.8629 60.6228 85.9295 60.5405 86.9857 60.3799L87.5185 61.5544L85.0263 66.5788L89.2315 65.1694C89.2315 65.1694 91.4773 64.0236 91.2997 62.8778C91.2997 62.8778 92.9153 61.9554 92.9153 60.6893C92.8981 60.6721 94.5252 58.9476 93.5455 57.6242Z" fill="#B78876"/>
<path d="M92.5719 57.3666C92.5719 57.3666 92.211 57.103 91.5923 56.7421C91.2259 56.5214 90.8428 56.3298 90.4465 56.1692C89.982 55.9747 89.4833 55.8753 88.9798 55.877C88.0516 55.9014 87.1292 56.0302 86.2298 56.2609C85.8535 56.3702 85.4709 56.4563 85.084 56.5187C85.4276 56.335 85.7935 56.1964 86.1725 56.1062C87.0783 55.8318 88.0166 55.6796 88.9626 55.6536C89.4936 55.6523 90.0189 55.7636 90.5037 55.9801C90.9045 56.1426 91.2883 56.3441 91.6496 56.5817C92.0031 56.7838 92.3158 57.05 92.5719 57.3666V57.3666Z" fill="#AA6550"/>
<path d="M91.048 59.4409C90.8553 59.1855 90.6467 58.9425 90.4235 58.7133C90.183 58.4731 89.8883 58.2943 89.5642 58.1919C89.1543 58.1126 88.734 58.1029 88.321 58.1633C87.4272 58.2893 86.6022 58.507 86.0293 58.6159C85.7208 58.7 85.4036 58.7481 85.084 58.7591C85.373 58.6196 85.6793 58.5194 85.9949 58.4612C86.7488 58.2476 87.5138 58.0755 88.2866 57.9456C88.727 57.8787 89.1761 57.8962 89.61 57.9972C89.9594 58.118 90.2726 58.3248 90.5209 58.5987C90.7724 58.8242 90.9551 59.1161 91.048 59.4409V59.4409Z" fill="#AA6550"/>
<path d="M93.42 57.5042C93.2824 57.2789 93.1709 57.0387 93.0877 56.7881C92.8723 56.2117 92.5386 55.6867 92.1081 55.247C91.6336 54.8535 91.078 54.5699 90.481 54.4162C90.2252 54.3604 89.977 54.2738 89.7419 54.1584C90.0058 54.1533 90.2688 54.1901 90.5211 54.2673C91.1558 54.3855 91.7483 54.668 92.2398 55.0865C92.701 55.5446 93.0382 56.1124 93.2195 56.7365C93.3277 56.9798 93.3954 57.2391 93.42 57.5042V57.5042Z" fill="#AA6550"/>
<path d="M58.2086 25.1058C58.5638 21.0496 54.4446 13.4184 50.3769 13.2351L39.6176 16.7929C39.0214 16.7677 38.4373 16.9666 37.9803 17.3504C37.5233 17.7342 37.2265 18.2752 37.1484 18.8668L33.7109 46.4296C33.4734 48.3463 34.0023 50.2792 35.1824 51.8081C36.3626 53.3369 38.0986 54.338 40.0129 54.5936V54.5936C41.9101 54.8439 43.8298 54.3421 45.3618 53.1955C46.8938 52.0489 47.9165 50.3485 48.2113 48.4577C48.5149 46.4984 48.8759 44.1953 48.8701 44.2067C48.8644 44.2182 54.1352 44.1322 56.2149 37.5953C57.269 34.3469 57.8133 29.6089 58.2086 25.1058Z" fill="#B78876"/>
<path d="M55.9798 29.6892C55.9484 29.9129 55.8307 30.1155 55.6519 30.2536C55.4731 30.3917 55.2474 30.4544 55.023 30.4282C54.9122 30.4204 54.8042 30.3904 54.7052 30.34C54.6062 30.2896 54.5183 30.2199 54.4467 30.135C54.3751 30.05 54.3213 29.9516 54.2885 29.8455C54.2556 29.7395 54.2443 29.6278 54.2553 29.5173C54.2867 29.2936 54.4044 29.091 54.5832 28.9529C54.762 28.8148 54.9877 28.7521 55.2121 28.7783C55.3229 28.7861 55.431 28.8162 55.5299 28.8665C55.6289 28.9169 55.7168 28.9866 55.7884 29.0715C55.8599 29.1565 55.9138 29.2549 55.9466 29.361C55.9795 29.4671 55.9908 29.5787 55.9798 29.6892V29.6892Z" fill="#263238"/>
<path d="M56.5932 27.7643C56.4729 27.8617 55.8942 27.283 54.9718 27.1455C54.0494 27.008 53.2989 27.3633 53.213 27.2372C53.1271 27.1112 53.3104 26.9909 53.637 26.8247C54.079 26.6079 54.5769 26.5319 55.0635 26.607C55.5462 26.6776 55.9938 26.9004 56.3411 27.2429C56.5875 27.5065 56.6562 27.7242 56.5932 27.7643Z" fill="#263238"/>
<path d="M47.1915 28.5778C47.1574 28.8013 47.0382 29.0031 46.8588 29.1408C46.6794 29.2785 46.4538 29.3416 46.229 29.3168C46.1188 29.3089 46.0112 29.2791 45.9126 29.2291C45.814 29.1791 45.7264 29.1099 45.6549 29.0256C45.5834 28.9413 45.5295 28.8435 45.4962 28.7381C45.463 28.6327 45.4511 28.5217 45.4613 28.4116C45.4913 28.1869 45.6084 27.9829 45.7874 27.8436C45.9663 27.7043 46.1928 27.6408 46.4181 27.6669C46.5293 27.674 46.6381 27.7035 46.7377 27.7535C46.8373 27.8036 46.9259 27.8732 46.9981 27.9582C47.0702 28.0432 47.1246 28.1419 47.1578 28.2483C47.191 28.3548 47.2025 28.4668 47.1915 28.5778V28.5778Z" fill="#263238"/>
<path d="M47.4836 26.5609C47.3575 26.6583 46.7789 26.0739 45.8565 25.9364C44.9341 25.7989 44.1836 26.1599 44.1034 26.0338C44.0232 25.9078 44.2008 25.7875 44.5273 25.6156C44.9709 25.4035 45.4679 25.3297 45.9539 25.4036C46.4345 25.4754 46.88 25.6981 47.2258 26.0396C47.4778 26.3031 47.5409 26.5151 47.4836 26.5609Z" fill="#263238"/>
<path d="M49.7981 33.9233C50.3082 33.8471 50.8255 33.8317 51.3392 33.8775C51.5799 33.8775 51.809 33.8775 51.8778 33.7228C51.9319 33.4823 51.9139 33.2312 51.8262 33.0009L51.3965 31.0988C50.8236 28.389 50.434 26.1833 50.5429 26.1603C50.6517 26.1374 51.2132 28.3088 51.7918 31.0186L52.1871 32.9264C52.2984 33.2317 52.2984 33.5664 52.1871 33.8717C52.1418 33.9512 52.0781 34.0187 52.0014 34.0686C51.9246 34.1184 51.8371 34.1491 51.746 34.1582C51.611 34.1758 51.4743 34.1758 51.3392 34.1582C50.8176 34.1455 50.2998 34.0665 49.7981 33.9233V33.9233Z" fill="#263238"/>
<path d="M48.9902 44.2123C45.8345 43.7772 42.8605 42.4786 40.3965 40.4597C40.3965 40.4597 41.9605 45.3982 48.761 45.7878L48.9902 44.2123Z" fill="#AA6550"/>
<path d="M49.0707 36.0886C48.9282 35.8413 48.7251 35.6342 48.4806 35.4869C48.2361 35.3396 47.9581 35.2568 47.6728 35.2464C47.4642 35.2323 47.2548 35.2611 47.0578 35.3311C46.8607 35.401 46.6801 35.5107 46.527 35.6532C46.3782 35.7867 46.2749 35.9635 46.2318 36.1588C46.1886 36.354 46.2077 36.5579 46.2864 36.7417C46.4101 36.9247 46.5841 37.068 46.7874 37.1544C46.9907 37.2408 47.2146 37.2666 47.4322 37.2287C47.8922 37.142 48.3303 36.9648 48.7213 36.7073C48.8341 36.6454 48.9366 36.5661 49.0249 36.4725C49.067 36.4269 49.0943 36.3698 49.1035 36.3085C49.1127 36.2472 49.1033 36.1846 49.0765 36.1287" fill="url(#paint2_angular_859_18274)"/>
<path d="M46.9794 34.1523C47.1341 34.1523 46.9794 35.1663 47.7357 36.0085C48.4919 36.8507 49.569 36.9023 49.5575 37.0455C49.5461 37.1887 49.2882 37.2059 48.8356 37.1486C48.2463 37.0687 47.7043 36.7825 47.306 36.3408C46.9202 35.9176 46.7147 35.3606 46.7331 34.7882C46.7674 34.3643 46.9164 34.1351 46.9794 34.1523Z" fill="#263238"/>
<path d="M48.1253 23.9198C47.9935 24.1547 47.0883 23.9198 45.9826 23.8625C44.8769 23.8052 43.9602 23.9885 43.8514 23.7422C43.7998 23.6276 43.9888 23.4156 44.3784 23.2208C44.8958 22.9935 45.4581 22.8867 46.0229 22.9085C46.5876 22.9304 47.14 23.0803 47.6383 23.3469C48.0107 23.5474 48.2112 23.7766 48.1253 23.9198Z" fill="#263238"/>
<path d="M56.6616 25.0657C56.4668 25.2548 55.8653 24.9397 55.0976 24.8136C54.3299 24.6876 53.6653 24.7391 53.545 24.4985C53.4992 24.3782 53.6309 24.1834 53.946 24.0287C54.361 23.8428 54.8236 23.7907 55.2695 23.8798C55.7173 23.9569 56.131 24.1687 56.4554 24.4871C56.6903 24.7162 56.7476 24.9454 56.6616 25.0657Z" fill="#263238"/>
<path d="M66.9226 28.4059L65.0721 28.4575C65.6959 27.2997 66.0761 26.0266 66.1893 24.7164C65.1351 25.57 63.4565 24.8137 62.7518 23.645C62.0471 22.4763 62.0185 21.0497 61.732 19.7206C61.3409 18.1038 60.6213 16.5849 59.618 15.2583C58.6146 13.9316 57.349 12.8256 55.8998 12.0091C52.972 10.3939 49.6149 9.72735 46.2921 10.1014C44.6136 10.2177 42.98 10.6945 41.5025 11.4993C40.1428 12.2641 39.0931 13.48 38.5348 14.9367C37.8696 15.1516 37.2343 15.45 36.6442 15.8247C34.0604 17.6122 33.1552 20.981 32.5536 24.0403C31.9521 27.0997 31.3448 30.4684 29.0531 32.634C27.7755 33.8314 25.9193 34.8053 25.7761 36.547C25.6615 37.9506 26.7729 39.3772 26.2172 40.6662C25.7188 41.812 24.2407 42.0813 23.0089 42.3391C21.7772 42.5969 20.3277 43.3761 20.4537 44.6308C20.5626 45.6849 21.7313 46.2406 22.7454 46.5958C24.0631 47.1312 25.4466 47.4876 26.8589 47.6557C27.5645 47.7386 28.2796 47.6799 28.9623 47.4832C29.6449 47.2864 30.2816 46.9556 30.8349 46.5099C30.9238 49.2703 29.9684 51.9626 28.1594 54.0494C29.3734 54.3296 30.6466 54.187 31.7686 53.6453C32.8906 53.1036 33.7941 52.1952 34.3297 51.0703C34.5187 54.9604 32.2786 56.1291 29.7464 57.3723C28.1422 58.3005 35.739 60.6093 39.5775 57.3723C41.7947 55.5046 42.1671 50.0276 41.8004 47.1459C41.4338 44.2641 40.6546 39.0678 39.9786 36.2605C39.3025 33.4533 38.8327 30.5314 39.2395 27.6668C39.614 25.1632 40.666 22.8095 42.2817 20.8606C42.7114 20.345 43.903 18.7982 44.0863 18.1508C44.2238 17.6638 43.8687 17.068 43.3129 16.5294C45.2621 16.4092 47.2185 16.5557 49.128 16.9648C51.0816 17.5377 50.8811 18.082 51.6889 19.944C52.4623 21.7143 51.8149 24.8653 53.5623 25.4153C57.4925 26.6585 56.9368 30.0502 57.0342 32.571C57.143 35.4355 55.7107 39.274 54.0321 41.6173C53.1556 42.8376 48.979 44.2526 48.979 44.2526L48.7155 45.7709L49.9301 52.8291C50.3426 53.7802 50.2051 54.9947 50.9269 55.7395C51.7405 56.576 53.167 56.3124 54.1639 55.6937C55.1608 55.0749 56.0258 54.2041 57.1545 53.9005C58.9305 53.4307 60.8268 54.5364 62.6201 54.1297C63.1614 54.0048 63.6628 53.746 64.0781 53.377C64.4934 53.0079 64.8094 52.5405 64.997 52.0175C65.1846 51.4946 65.2379 50.9329 65.1519 50.384C65.0659 49.8351 64.8435 49.3166 64.5049 48.876C63.9721 48.1885 63.1414 47.65 63.0154 46.7907C63.0117 46.2364 63.0968 45.6852 63.2674 45.1578C63.3991 44.2895 63.2044 43.4031 62.7209 42.6699C62.2373 41.9366 61.4993 41.4086 60.6492 41.1876C61.7951 40.1792 63.0326 39.1365 63.7201 37.7501C64.4075 36.3637 64.4419 34.5303 63.3878 33.396C64.5015 33.1705 65.4873 32.5287 66.1442 31.6015C66.801 30.6742 67.0794 29.5313 66.9226 28.4059V28.4059Z" fill="url(#paint3_angular_859_18274)"/>
<g opacity="0.6">
<path opacity="0.6" d="M66.9226 28.4059L65.0721 28.4575C65.6959 27.2997 66.0761 26.0266 66.1893 24.7164C65.1351 25.57 63.4565 24.8137 62.7518 23.645C62.0471 22.4763 62.0185 21.0497 61.732 19.7206C61.3409 18.1038 60.6213 16.5849 59.618 15.2583C58.6146 13.9316 57.349 12.8256 55.8998 12.0091C52.972 10.3939 49.6149 9.72735 46.2921 10.1014C44.6136 10.2177 42.98 10.6945 41.5025 11.4993C40.1428 12.2641 39.0931 13.48 38.5348 14.9367C37.8696 15.1516 37.2343 15.45 36.6442 15.8247C34.0604 17.6122 33.1552 20.981 32.5536 24.0403C31.9521 27.0997 31.3448 30.4684 29.0531 32.634C27.7755 33.8314 25.9193 34.8053 25.7761 36.547C25.6615 37.9506 26.7729 39.3772 26.2172 40.6662C25.7188 41.812 24.2407 42.0813 23.0089 42.3391C21.7772 42.5969 20.3277 43.3761 20.4537 44.6308C20.5626 45.6849 21.7313 46.2406 22.7454 46.5958C24.0631 47.1312 25.4466 47.4876 26.8589 47.6557C27.5645 47.7386 28.2796 47.6799 28.9623 47.4832C29.6449 47.2864 30.2816 46.9556 30.8349 46.5099C30.9238 49.2703 29.9684 51.9626 28.1594 54.0494C29.3734 54.3296 30.6466 54.187 31.7686 53.6453C32.8906 53.1036 33.7941 52.1952 34.3297 51.0703C34.5187 54.9604 32.2786 56.1291 29.7464 57.3723C28.1422 58.3005 35.739 60.6093 39.5775 57.3723C41.7947 55.5046 42.1671 50.0276 41.8004 47.1459C41.4338 44.2641 40.6546 39.0678 39.9786 36.2605C39.3025 33.4533 38.8327 30.5314 39.2395 27.6668C39.614 25.1632 40.666 22.8095 42.2817 20.8606C42.7114 20.345 43.903 18.7982 44.0863 18.1508C44.2238 17.6638 43.8687 17.068 43.3129 16.5294C45.2621 16.4092 47.2185 16.5557 49.128 16.9648C51.0816 17.5377 50.8811 18.082 51.6889 19.944C52.4623 21.7143 51.8149 24.8653 53.5623 25.4153C57.4925 26.6585 56.9368 30.0502 57.0342 32.571C57.143 35.4355 55.7107 39.274 54.0321 41.6173C53.1556 42.8376 48.979 44.2526 48.979 44.2526L48.7155 45.7709L49.9301 52.8291C50.3426 53.7802 50.2051 54.9947 50.9269 55.7395C51.7405 56.576 53.167 56.3124 54.1639 55.6937C55.1608 55.0749 56.0258 54.2041 57.1545 53.9005C58.9305 53.4307 60.8268 54.5364 62.6201 54.1297C63.1614 54.0048 63.6628 53.746 64.0781 53.377C64.4934 53.0079 64.8094 52.5405 64.997 52.0175C65.1846 51.4946 65.2379 50.9329 65.1519 50.384C65.0659 49.8351 64.8435 49.3166 64.5049 48.876C63.9721 48.1885 63.1414 47.65 63.0154 46.7907C63.0117 46.2364 63.0968 45.6852 63.2674 45.1578C63.3991 44.2895 63.2044 43.4031 62.7209 42.6699C62.2373 41.9366 61.4993 41.4086 60.6492 41.1876C61.7951 40.1792 63.0326 39.1365 63.7201 37.7501C64.4075 36.3637 64.4419 34.5303 63.3878 33.396C64.5015 33.1705 65.4873 32.5287 66.1442 31.6015C66.801 30.6742 67.0794 29.5313 66.9226 28.4059V28.4059Z" fill="white"/>
</g>
<path d="M47.9248 88.3328C47.9248 88.3328 50.7894 62.3284 53.1956 60.0482C55.6018 57.768 59.131 55.9289 62.6028 57.0805C66.0747 58.2321 72.1303 66.9231 73.4251 70.6413C74.7199 74.3595 84.4938 117.402 85.0438 117.351C85.5938 117.299 75.4017 119.78 75.4017 119.78L65.8226 97.6541C65.8226 97.6541 65.983 101.493 61.1992 102.146C56.4154 102.799 52.3935 101.693 50.8868 97.9234C49.38 94.1536 47.9248 88.3328 47.9248 88.3328Z" fill="#B78876"/>
<path d="M68.991 104.569C68.9241 104.464 68.8684 104.353 68.8249 104.237L68.4067 103.263C68.2291 102.839 67.9999 102.329 67.7249 101.733C67.4499 101.137 67.152 100.461 66.7853 99.7278C65.376 96.7544 63.2046 92.7611 61.0161 88.2409C59.4722 85.1301 58.1976 81.8927 57.2063 78.5644C56.6087 76.462 56.2418 74.3009 56.112 72.1191H56.2323C56.1807 72.5087 56.1406 72.8181 56.1063 73.0587C56.0964 73.1652 56.0772 73.2707 56.049 73.3738C56.0325 73.2675 56.0325 73.1593 56.049 73.053L56.1177 72.1077H56.2323C56.4381 74.2705 56.8467 76.4092 57.4526 78.4956C58.4722 81.7897 59.7538 84.9968 61.2854 88.0862C63.4682 92.6007 65.6166 96.6111 66.9744 99.6132C67.3239 100.358 67.6218 101.04 67.8796 101.641C68.1374 102.243 68.3551 102.787 68.5098 103.2L68.8822 104.191C68.934 104.312 68.9705 104.439 68.991 104.569V104.569Z" fill="#AA6550"/>
<path d="M47.9248 88.3323C47.9248 88.3323 47.9821 88.4984 48.0738 88.8307L48.492 90.2916C48.8644 91.5692 49.4029 93.4655 50.2107 95.8489C50.417 96.4504 50.6404 97.0749 50.8982 97.728C51.1519 98.4097 51.5136 99.0462 51.9696 99.6129C53.0532 100.871 54.5429 101.71 56.1805 101.985C58.0488 102.318 59.9632 102.297 61.8237 101.922C62.8343 101.733 63.767 101.251 64.5049 100.535C65.2547 99.7685 65.6813 98.7431 65.6965 97.6707V97.1436L65.9085 97.6249L75.5105 119.734L75.3501 119.653L82.4542 117.877L84.2646 117.413L84.723 117.293L84.9406 117.23H84.9922C84.9922 117.287 84.9922 117.11 84.9406 117.379C85.1698 117.579 85.0266 117.436 85.0667 117.482C85.0442 117.488 85.0205 117.488 84.9979 117.482C84.8834 117.413 84.912 117.396 84.8891 117.373C84.8662 117.35 84.8891 117.327 84.8547 117.31C84.7363 117.009 84.635 116.701 84.5511 116.388C84.1959 115.167 83.8808 113.924 83.5599 112.675C82.2938 107.668 81.0563 102.472 79.7844 97.1551L75.8371 80.6381C75.1897 77.9797 74.5595 75.3615 73.8949 72.8121C73.7288 72.1761 73.5626 71.5402 73.3736 70.9215C73.1702 70.3143 72.9232 69.7227 72.6345 69.1512C72.0636 68.0171 71.4305 66.9155 70.7382 65.8512C69.4211 63.7912 67.9279 61.8494 66.2752 60.0476C65.4883 59.1887 64.6083 58.42 63.6512 57.7559C62.7089 57.1495 61.6093 56.8328 60.4888 56.845C58.3379 56.9025 56.2652 57.6632 54.5878 59.0106C54.1769 59.3155 53.7829 59.6425 53.4076 59.9903C53.0649 60.3379 52.8063 60.7592 52.6513 61.2221C52.3087 62.1289 52.0255 63.0571 51.8034 64.0007C50.9097 67.696 50.3769 71.1048 49.8956 74.0839C49.4144 77.0631 49.0706 79.6641 48.7842 81.7839C48.4977 83.9037 48.2972 85.525 48.154 86.6422C48.0795 87.2151 48.0279 87.6161 47.9878 87.9083C47.9477 88.2005 47.9248 88.338 47.9248 88.338C47.9248 88.338 47.9248 88.189 47.9592 87.9026C47.9936 87.6161 48.0337 87.1864 48.091 86.6364C48.217 85.5193 48.4061 83.8807 48.6639 81.7667C48.9217 79.6526 49.2712 77.0688 49.7238 74.0782C50.1764 71.0876 50.7092 67.6788 51.5914 63.9663C51.8131 63.0113 52.0964 62.0717 52.4394 61.1533C52.6086 60.6605 52.8867 60.2121 53.2529 59.8414C53.6299 59.4879 54.0258 59.1551 54.4388 58.8445C55.2917 58.1932 56.2282 57.6594 57.2232 57.2575C58.2564 56.8291 59.3646 56.611 60.483 56.6159C61.6516 56.6028 62.7986 56.9313 63.783 57.5612C64.7579 58.2355 65.6552 59.0155 66.4585 59.8872C68.1307 61.7025 69.6395 63.6618 70.9673 65.7423C71.6664 66.8146 72.3071 67.9239 72.8866 69.0652C73.1793 69.6529 73.4319 70.2596 73.6428 70.8814C73.8376 71.5058 74.0038 72.1418 74.1699 72.7777C74.8345 75.3329 75.4704 77.9339 76.1178 80.6094C77.3954 85.9375 78.7131 91.4604 80.0652 97.1093C81.337 102.42 82.5688 107.622 83.8292 112.624C84.15 113.873 84.4651 115.116 84.8146 116.33C84.9063 116.628 84.9922 116.943 85.1068 117.213V117.253C85.1068 117.218 85.0151 117.339 85.0209 117.327C85.0209 117.367 85.0209 117.081 85.0209 117.201C85.0667 117.247 84.9292 117.098 85.1584 117.304C85.1011 117.579 85.124 117.402 85.1011 117.465H85.0667H84.9979L84.7688 117.528L84.3105 117.654L82.4943 118.112L75.4074 119.831L75.2928 119.86L75.247 119.751C71.7064 111.558 68.4637 104.053 65.6908 97.6192L65.9085 97.5733C65.8917 98.7115 65.436 99.7993 64.6367 100.61C63.8704 101.351 62.9012 101.847 61.8523 102.036C59.9625 102.412 58.0188 102.427 56.1232 102.082C54.4505 101.791 52.9325 100.923 51.8321 99.6301C51.3709 99.0481 51.0053 98.3964 50.7493 97.6994C50.4972 97.0405 50.2737 96.4103 50.0732 95.8145C49.2711 93.414 48.7498 91.5176 48.4003 90.2286C48.2284 89.5869 48.1024 89.0828 48.0165 88.7562C47.9305 88.4297 47.9248 88.3323 47.9248 88.3323Z" fill="#AA6550"/>
<path d="M19.858 46.6761C19.858 46.6761 14.3122 51.099 14.5642 55.2698C14.8163 59.4406 22.585 81.0508 23.2496 81.6237C23.9142 82.1966 28.9787 94.6575 33.9974 98.5017C39.0161 102.346 46.8937 110.533 46.8937 110.533L54.7082 112C54.7082 112 40.0646 91.7127 38.5349 88.2752C37.0052 84.8377 27.0136 57.338 27.0136 57.338C27.0136 57.338 22.4934 46.1261 19.858 46.6761Z" fill="#B78876"/>
<path d="M53.6311 110.023C53.3933 110.009 53.1575 109.972 52.9264 109.914L50.9957 109.53L44.3041 108.138H44.264L40.7291 104.896L36.6328 101.12L34.8568 99.4586C34.2838 98.9487 33.774 98.4618 33.3385 97.9805C32.4448 97.0409 31.7458 96.2618 31.2875 95.6889C31.0526 95.4081 30.8865 95.1847 30.7776 95.0243C30.7197 94.9455 30.6697 94.861 30.6287 94.7722C30.6287 94.7722 30.8865 95.0816 31.3734 95.6144C31.8604 96.1472 32.5766 96.9092 33.4875 97.8258C33.9344 98.2956 34.4557 98.7654 35.0286 99.2753L36.8276 100.914L40.9296 104.672C42.1728 105.818 43.3588 106.918 44.453 107.921L44.3843 107.886L51.0587 109.416L52.9722 109.874C53.1957 109.905 53.4161 109.955 53.6311 110.023V110.023Z" fill="#AA6550"/>
</g>
<defs>
<filter id="filter0_b_859_18274" x="-50" y="-50" width="200" height="200" filterUnits="userSpaceOnUse" color-interpolation-filters="sRGB">
<feFlood flood-opacity="0" result="BackgroundImageFix"/>
<feGaussianBlur in="BackgroundImage" stdDeviation="25"/>
<feComposite in2="SourceAlpha" operator="in" result="effect1_backgroundBlur_859_18274"/>
<feBlend mode="normal" in="SourceGraphic" in2="effect1_backgroundBlur_859_18274" result="shape"/>
</filter>
<linearGradient id="paint0_linear_859_18274" x1="0" y1="0" x2="102.135" y2="2.22982" gradientUnits="userSpaceOnUse">
<stop stop-color="#FE6B00"/>
<stop offset="1" stop-color="#FE0000"/>
</linearGradient>
<linearGradient id="paint1_linear_859_18274" x1="0" y1="0" x2="102.135" y2="2.22982" gradientUnits="userSpaceOnUse">
<stop stop-color="#FE6B00"/>
<stop offset="1" stop-color="#FE0000"/>
</linearGradient>
<radialGradient id="paint2_angular_859_18274" cx="0" cy="0" r="1" gradientUnits="userSpaceOnUse" gradientTransform="translate(47.6581 36.2443) rotate(34.6506) scale(1.76124 38.556)">
<stop stop-color="#FE8900"/>
<stop offset="1" stop-color="#FE0000"/>
</radialGradient>
<radialGradient id="paint3_angular_859_18274" cx="0" cy="0" r="1" gradientUnits="userSpaceOnUse" gradientTransform="translate(43.7057 34.5201) rotate(46.5112) scale(33.7972 789.819)">
<stop stop-color="#FE8900"/>
<stop offset="1" stop-color="#FE0000"/>
</radialGradient>
</defs>
</svg>
