<svg width="100" height="100" viewBox="0 0 100 100" fill="none" xmlns="http://www.w3.org/2000/svg">
<g filter="url(#filter0_b_859_18278)">
<circle cx="50" cy="50" r="50" fill="url(#paint0_linear_859_18278)" fill-opacity="0.8"/>
</g>
<mask id="mask0_859_18278" style="mask-type:alpha" maskUnits="userSpaceOnUse" x="0" y="0" width="100" height="100">
<circle cx="50" cy="50" r="50" fill="url(#paint1_linear_859_18278)"/>
</mask>
<g mask="url(#mask0_859_18278)">
<path d="M101.209 150.188C99.4661 144.787 97.1256 139.508 96.4918 133.87C95.7717 127.77 97.1616 121.576 96.5711 115.462C95.9805 109.348 92.5237 102.722 86.4888 101.57L65.9425 98.3367C61.0814 116.175 62.5505 135.173 66.245 153.285C68.0886 162.316 71.2861 172.297 79.5392 176.41C87.9147 180.587 99.4589 175.747 102.354 166.86C104.111 161.459 102.945 155.554 101.209 150.188Z" fill="url(#paint2_angular_859_18278)"/>
<path d="M39.0803 64.0133C39.0803 64.0133 19.3334 70.4948 16.8489 73.145V73.7644L30.6688 118.76C30.6688 118.76 22.1277 126.725 21.0402 135.021C19.9528 143.318 19.0238 173.133 19.0238 173.133L19.4847 175.149L81.5916 173.91L86.2511 172.204L79.5751 123.139L74.7572 68.4928L56.5731 62.9475C56.5731 62.9475 55.0392 69.429 48.9898 69.429C42.9404 69.429 39.0803 64.0133 39.0803 64.0133Z" fill="#455A64"/>
<path d="M48.8963 92.6399L51.9714 98.8765L58.8633 99.8775L53.8798 104.739L55.0537 111.595L48.8963 108.354L42.7317 111.595L43.9127 104.739L38.9292 99.8775L45.814 98.8765L48.8963 92.6399Z" fill="#263238"/>
<path d="M16.8488 73.1309C16.8488 73.1309 11.9588 76.3284 11.0874 81.9385C10.216 87.5485 10 114.9 10 114.9L34.0175 106.561C34.0175 106.561 30.8631 93.886 29.4588 90.7173C28.0545 87.5485 16.8488 73.1309 16.8488 73.1309Z" fill="#455A64"/>
<path d="M67.9515 65.2089C67.9515 65.2089 59.0287 84.0916 60.9659 103.306H67.9587C67.9587 103.306 70.184 70.5885 74.9515 68.5073C74.9515 68.4929 72.5534 64.1791 67.9515 65.2089Z" fill="url(#paint3_angular_859_18278)"/>
<path d="M74.7571 68.4929C74.7571 68.4929 82.6213 72.4034 84.6305 76.89C86.6398 81.3767 86.2365 107.591 86.2365 107.591L67.9587 103.27L70.2561 80.7573C70.5362 79.0447 71.0197 77.3717 71.6964 75.7738L74.7571 68.4929Z" fill="#455A64"/>
<path d="M33.2974 103.291C33.1994 103.091 33.1291 102.877 33.0886 102.658C32.959 102.254 32.7861 101.657 32.5845 100.915C32.1884 99.4312 31.7059 97.3644 31.1946 95.0814C30.6833 92.7985 30.2151 90.7605 29.8479 89.2409C29.6137 88.4454 29.4357 87.6344 29.3149 86.814C29.4242 87.0118 29.5088 87.2222 29.567 87.4405C29.7038 87.8438 29.8911 88.4343 30.1071 89.1761C30.532 90.6524 31.0577 92.7121 31.5475 94.995C32.0372 97.2779 32.4765 99.2512 32.8293 100.85C33.0463 101.651 33.2028 102.467 33.2974 103.291V103.291Z" fill="#263238"/>
<path d="M69.9106 83.2922C69.9377 83.5532 69.9377 83.8163 69.9106 84.0772C69.8458 84.6533 69.7738 85.3591 69.6802 86.1873C69.4785 88.0525 69.2193 90.5083 68.96 93.1369C68.7007 95.7655 68.4847 98.2356 68.3119 100.108C68.2326 100.936 68.1678 101.642 68.1102 102.218C68.106 102.482 68.0648 102.744 67.9878 102.996C67.9604 102.735 67.9604 102.472 67.9878 102.211C67.9878 101.707 67.9878 100.987 68.067 100.086C68.1534 98.3004 68.3335 95.8231 68.6071 93.1009C68.8808 90.3786 69.1977 87.9229 69.4641 86.1513C69.5937 85.2655 69.7162 84.5453 69.8098 84.0556C69.8076 83.7977 69.8415 83.5407 69.9106 83.2922Z" fill="#263238"/>
<path d="M57.8189 18.6001C59.3888 18.3913 63.0689 20.5013 64.1059 21.6896C65.0814 22.9368 65.8454 24.3357 66.3672 25.8306C68.8302 31.8295 71.3292 37.9797 71.5884 44.454C71.682 46.7801 71.1779 49.5743 69.0318 50.489L68.4269 48.6669C67.3055 51.5018 65.6198 54.0794 63.4722 56.2431C62.7465 56.8148 62.2157 57.5972 61.9526 58.4828C61.715 59.9231 63.0329 61.1186 64.2139 61.9972C63.7079 62.3207 63.108 62.4653 62.5101 62.4079C61.9122 62.3504 61.3508 62.0943 60.9156 61.6803C60.8675 63.0227 61.2734 64.342 62.0679 65.4252C59.7921 65.9869 56.4866 64.6402 56.1697 62.314C55.8528 59.9879 55.752 55.8326 57.1419 53.9097C58.5318 51.9869 61.182 51.3964 62.2839 49.3223C64.2355 45.6783 63.9763 42.3079 63.8395 38.1814C63.7458 35.3511 64.0195 31.3326 62.2839 29.1001C61.0668 27.5301 60.1954 26.5651 59.1008 24.9015C57.9053 23.0723 56.6594 20.8974 57.8189 19.0466" fill="#263238"/>
<path d="M37.8777 33.5216L38.994 63.5381C39.0392 64.7476 39.3297 65.9353 39.8477 67.0293C40.3658 68.1232 41.1007 69.1004 42.0078 69.9018C42.9149 70.7032 43.9753 71.312 45.1247 71.6912C46.2742 72.0704 47.4887 72.2122 48.6946 72.108V72.108C50.9482 71.9132 53.0357 70.8424 54.5087 69.1257C55.9817 67.4089 56.7229 65.183 56.5731 62.9259C56.4867 60.6646 56.5371 57.9928 56.5731 57.7551C56.5731 57.7551 64.0917 56.07 64.3581 48.4866C64.4949 44.821 64.4013 38.6636 64.0124 31.8148C63.8072 28.2698 62.2753 24.9318 59.7214 22.4646C57.1674 19.9974 53.7785 18.5817 50.2285 18.499H49.5083C41.5649 18.7799 37.4096 25.6502 37.8777 33.5216Z" fill="#FFBE9D"/>
<path d="M56.5732 57.8202C53.0765 57.7972 49.6654 56.737 46.7717 54.7739C46.7717 54.7739 48.9826 60.2904 56.566 59.8151L56.5732 57.8202Z" fill="#EB996E"/>
<path d="M61.78 37.8425C61.7745 38.1254 61.6596 38.3951 61.4596 38.5951C61.2595 38.7952 60.9898 38.91 60.707 38.9155C60.5686 38.9223 60.4303 38.9015 60.3001 38.8543C60.1699 38.8071 60.0504 38.7345 59.9485 38.6406C59.8466 38.5468 59.7645 38.4337 59.7067 38.3078C59.649 38.1819 59.6169 38.0457 59.6123 37.9073C59.6178 37.6264 59.7319 37.3585 59.9306 37.1598C60.1293 36.9611 60.3972 36.847 60.6781 36.8415C60.8165 36.8337 60.955 36.8536 61.0856 36.8999C61.2162 36.9462 61.3362 37.018 61.4388 37.1112C61.5413 37.2043 61.6243 37.317 61.6829 37.4425C61.7415 37.5681 61.7745 37.7041 61.78 37.8425V37.8425Z" fill="#263238"/>
<path d="M62.2697 35.5239C62.1329 35.6607 61.3263 35.0342 60.1597 35.0126C58.993 34.991 58.1216 35.5527 57.9992 35.4087C57.8767 35.2647 58.0856 35.0918 58.4601 34.8254C58.9746 34.4877 59.5806 34.3167 60.1957 34.3356C60.8 34.35 61.3845 34.554 61.8665 34.919C62.2193 35.207 62.3346 35.4663 62.2697 35.5239Z" fill="#263238"/>
<path d="M50.6749 37.8425C50.673 38.1253 50.5604 38.396 50.3611 38.5967C50.1618 38.7973 49.8918 38.9118 49.6091 38.9155C49.4707 38.9223 49.3324 38.9015 49.2022 38.8543C49.072 38.8071 48.9525 38.7345 48.8506 38.6406C48.7487 38.5468 48.6666 38.4337 48.6088 38.3078C48.5511 38.1819 48.519 38.0457 48.5144 37.9073C48.5181 37.6258 48.6316 37.3569 48.8307 37.1578C49.0298 36.9587 49.2987 36.8452 49.5802 36.8415C49.7182 36.8337 49.8563 36.8536 49.9865 36.9C50.1167 36.9464 50.2363 37.0183 50.3383 37.1116C50.4402 37.2048 50.5226 37.3175 50.5804 37.4431C50.6382 37.5686 50.6703 37.7044 50.6749 37.8425V37.8425Z" fill="#263238"/>
<path d="M50.8047 35.4733C50.6678 35.6102 49.8612 34.9836 48.6946 34.962C47.5279 34.9404 46.6637 35.5021 46.5341 35.3509C46.4044 35.1997 46.6205 35.034 47.0022 34.7748C47.5135 34.436 48.1176 34.2648 48.7306 34.2851C49.3355 34.2959 49.9211 34.5004 50.4014 34.8684C50.7542 35.1565 50.8695 35.4085 50.8047 35.4733Z" fill="#263238"/>
<path d="M54.8303 44.2159C55.4498 44.0411 56.0882 43.9419 56.7316 43.9206C57.034 43.9206 57.3149 43.8414 57.3725 43.6398C57.4019 43.3332 57.3393 43.0248 57.1925 42.754L56.3643 40.4711C55.2192 37.2087 54.3982 34.5369 54.5279 34.4937C54.6575 34.4505 55.6945 37.0503 56.8396 40.3054L57.6318 42.6027C57.8068 42.968 57.8525 43.3819 57.7614 43.7766C57.7173 43.8824 57.6485 43.9762 57.5608 44.0501C57.4731 44.124 57.3691 44.1759 57.2573 44.2015C57.0919 44.2393 56.9228 44.2586 56.7532 44.2591C56.1129 44.3254 55.4669 44.3109 54.8303 44.2159V44.2159Z" fill="#263238"/>
<path d="M51.3805 44.9435C51.575 44.9435 51.5462 46.2038 52.6048 47.104C53.6634 48.0042 55.0174 47.9178 55.0246 48.0978C55.0318 48.2778 54.7221 48.3355 54.146 48.3355C53.4099 48.3409 52.6956 48.0858 52.1295 47.6153C51.5821 47.1478 51.2428 46.4821 51.1861 45.7645C51.1501 45.246 51.2941 44.9363 51.3805 44.9435Z" fill="#263238"/>
<path d="M50.6678 31.7431C50.5454 32.0599 49.3859 31.8799 48.0176 32.0167C46.6493 32.1536 45.5259 32.492 45.353 32.204C45.2738 32.0671 45.4755 31.7791 45.9292 31.4838C46.531 31.1145 47.2126 30.8947 47.9168 30.8429C48.6171 30.7738 49.3238 30.8751 49.9765 31.1381C50.4734 31.3614 50.7254 31.599 50.6678 31.7431Z" fill="#263238"/>
<path d="M61.8952 32.139C61.6864 32.3982 60.887 32.139 59.922 32.0742C58.957 32.0093 58.136 32.211 57.9559 31.9229C57.8767 31.7933 58.0063 31.5268 58.3736 31.2892C58.8591 30.9955 59.4217 30.8549 59.9883 30.8858C60.5548 30.9166 61.0989 31.1174 61.5496 31.462C61.8952 31.7357 62.0105 32.0165 61.8952 32.139Z" fill="#263238"/>
<path d="M38.3672 39.1749C38.2376 39.1101 33.1892 37.5114 33.2325 42.6965C33.2757 47.8817 38.4824 46.7727 38.4897 46.6214C38.4969 46.4702 38.3672 39.1749 38.3672 39.1749Z" fill="#FFBE9D"/>
<path d="M36.8838 44.6698C36.8838 44.6698 36.7974 44.7346 36.6461 44.8067C36.4294 44.8963 36.1859 44.8963 35.9692 44.8067C35.6336 44.5946 35.3598 44.2979 35.1752 43.9465C34.9907 43.5951 34.9019 43.2012 34.9177 42.8046C34.9028 42.3597 34.9864 41.9171 35.1626 41.5083C35.2053 41.3419 35.289 41.1889 35.406 41.0631C35.5229 40.9373 35.6695 40.8428 35.8324 40.7881C35.9358 40.7593 36.0461 40.7681 36.1437 40.8129C36.2413 40.8577 36.3198 40.9357 36.3653 41.033C36.4373 41.177 36.4085 41.2779 36.4373 41.2923C36.4661 41.3067 36.5453 41.1986 36.5021 40.9898C36.4741 40.86 36.3999 40.7448 36.2933 40.6657C36.1511 40.5589 35.9726 40.5124 35.7963 40.5361C35.5834 40.5795 35.3852 40.6772 35.2212 40.8198C35.0571 40.9624 34.9328 41.145 34.8601 41.3499C34.6394 41.7968 34.5353 42.2923 34.5577 42.7902C34.6009 43.8344 35.141 44.8067 35.89 45.0227C36.0302 45.0602 36.1769 45.0667 36.3199 45.0418C36.4629 45.017 36.5988 44.9613 36.7182 44.8787C36.8766 44.7995 36.9054 44.6842 36.8838 44.6698Z" fill="#EB996E"/>
<path d="M46.8148 40.3418C46.7789 40.344 46.7434 40.3326 46.7154 40.31C46.6874 40.2873 46.6689 40.255 46.6636 40.2193C46.657 40.1851 46.6638 40.1496 46.6825 40.1201C46.7013 40.0906 46.7306 40.0695 46.7644 40.0609C46.7992 40.0595 46.8333 40.0707 46.8604 40.0925C46.8875 40.1143 46.9058 40.1451 46.912 40.1794C46.9181 40.2136 46.9117 40.2489 46.8938 40.2788C46.8759 40.3086 46.8479 40.331 46.8148 40.3418V40.3418Z" fill="#EB996E"/>
<path d="M49.0547 39.8879C49.0161 39.8882 48.9788 39.8745 48.9496 39.8493C48.9205 39.8242 48.9015 39.7892 48.8962 39.751C48.8962 39.6646 48.8962 39.5782 48.9971 39.571C49.0979 39.5638 49.1339 39.6142 49.1555 39.7078C49.1646 39.745 49.1593 39.7843 49.1406 39.8177C49.1219 39.8511 49.0912 39.8762 49.0547 39.8879V39.8879Z" fill="#EB996E"/>
<path d="M50.5526 39.881C50.4805 39.881 50.4157 39.8018 50.4085 39.6865C50.4013 39.5713 50.4085 39.4705 50.5094 39.4633C50.6102 39.4561 50.6462 39.5497 50.6606 39.6649C50.675 39.7802 50.6246 39.8738 50.5526 39.881Z" fill="#EB996E"/>
<path d="M47.8734 41.7605C47.8086 41.7605 47.751 41.7605 47.751 41.6741C47.751 41.5877 47.8086 41.5949 47.8806 41.5949C47.9526 41.5949 48.0102 41.6381 48.0102 41.6813C48.0102 41.7245 47.9454 41.7605 47.8734 41.7605Z" fill="#EB996E"/>
<path d="M49.9332 41.3354C49.9149 41.3365 49.8967 41.3337 49.8796 41.3271C49.8625 41.3206 49.847 41.3106 49.8341 41.2977C49.8212 41.2848 49.8111 41.2692 49.8046 41.2522C49.7981 41.2351 49.7953 41.2168 49.7964 41.1986C49.7933 41.181 49.7939 41.163 49.7981 41.1456C49.8024 41.1283 49.8101 41.112 49.821 41.0978C49.8318 41.0836 49.8454 41.0718 49.861 41.0631C49.8766 41.0545 49.8938 41.0491 49.9116 41.0474C49.9479 41.0474 49.9827 41.0618 50.0083 41.0874C50.034 41.1131 50.0484 41.1479 50.0484 41.1842C50.0515 41.2018 50.0509 41.2198 50.0466 41.2372C50.0424 41.2545 50.0346 41.2708 50.0238 41.285C50.013 41.2992 49.9994 41.311 49.9838 41.3197C49.9682 41.3283 49.9509 41.3337 49.9332 41.3354V41.3354Z" fill="#EB996E"/>
<path d="M60.5915 40.3127C60.5739 40.3158 60.5559 40.3152 60.5386 40.3109C60.5212 40.3067 60.505 40.2989 60.4908 40.2881C60.4766 40.2773 60.4647 40.2636 60.4561 40.2481C60.4474 40.2325 60.442 40.2152 60.4403 40.1975C60.4349 40.18 60.4333 40.1615 60.4356 40.1433C60.4378 40.1251 60.4439 40.1076 60.4535 40.092C60.463 40.0763 60.4757 40.0629 60.4908 40.0525C60.506 40.0422 60.5231 40.0351 60.5411 40.0318C60.5591 40.0298 60.5773 40.0314 60.5947 40.0365C60.612 40.0416 60.6282 40.0501 60.6423 40.0615C60.6563 40.0729 60.668 40.0869 60.6766 40.1029C60.6852 40.1188 60.6906 40.1363 60.6923 40.1543C60.6966 40.1713 60.6973 40.189 60.6945 40.2064C60.6917 40.2237 60.6853 40.2403 60.6759 40.2551C60.6665 40.2699 60.6541 40.2827 60.6396 40.2926C60.6251 40.3025 60.6088 40.3093 60.5915 40.3127Z" fill="#EB996E"/>
<path d="M62.1111 40.2121C62.0922 40.2112 62.0737 40.2065 62.0565 40.1984C62.0394 40.1903 62.0241 40.1789 62.0113 40.1649C61.9986 40.1508 61.9888 40.1344 61.9825 40.1165C61.9761 40.0987 61.9733 40.0798 61.9743 40.0608C61.9697 40.0418 61.9695 40.0219 61.9737 40.0028C61.9779 39.9836 61.9864 39.9657 61.9985 39.9503C62.0106 39.9349 62.0261 39.9224 62.0437 39.9139C62.0614 39.9053 62.0807 39.9009 62.1003 39.9009C62.1199 39.9009 62.1393 39.9053 62.1569 39.9139C62.1746 39.9224 62.19 39.9349 62.2022 39.9503C62.2143 39.9657 62.2228 39.9836 62.227 40.0028C62.2312 40.0219 62.231 40.0418 62.2264 40.0608C62.2288 40.0958 62.2185 40.1303 62.1972 40.1582C62.176 40.186 62.1454 40.2052 62.1111 40.2121V40.2121Z" fill="#EB996E"/>
<path d="M59.2523 40.3202C59.2367 40.3246 59.2204 40.3258 59.2043 40.3238C59.1882 40.3218 59.1727 40.3166 59.1586 40.3086C59.1445 40.3005 59.1322 40.2898 59.1223 40.277C59.1124 40.2641 59.1052 40.2494 59.101 40.2338C59.099 40.2177 59.1002 40.2014 59.1046 40.1857C59.109 40.1701 59.1164 40.1555 59.1264 40.1428C59.1365 40.13 59.149 40.1194 59.1632 40.1116C59.1773 40.1037 59.1929 40.0987 59.2091 40.097C59.2406 40.0905 59.2733 40.0967 59.3003 40.1143C59.3272 40.1318 59.3462 40.1592 59.3531 40.1906C59.3551 40.2057 59.3541 40.2211 59.3501 40.2359C59.3461 40.2506 59.3392 40.2644 59.3298 40.2765C59.3205 40.2886 59.3088 40.2986 59.2954 40.3061C59.2821 40.3136 59.2675 40.3184 59.2523 40.3202V40.3202Z" fill="#EB996E"/>
<path d="M60.3396 41.8682C60.3042 41.8799 60.2657 41.8774 60.2322 41.8613C60.1986 41.8452 60.1726 41.8167 60.1596 41.7818C60.1443 41.7482 60.1426 41.7101 60.1547 41.6753C60.1667 41.6404 60.1917 41.6116 60.2244 41.5946C60.2413 41.5878 60.2595 41.5848 60.2777 41.5856C60.296 41.5864 60.3138 41.591 60.3301 41.5991C60.3464 41.6073 60.3608 41.6188 60.3724 41.6329C60.384 41.647 60.3924 41.6634 60.3972 41.681C60.406 41.697 60.4114 41.7146 60.4132 41.7328C60.4151 41.751 60.4132 41.7693 60.4079 41.7868C60.4025 41.8042 60.3937 41.8204 60.382 41.8344C60.3702 41.8484 60.3558 41.8599 60.3396 41.8682V41.8682Z" fill="#EB996E"/>
<path d="M61.643 41.6378C61.6131 41.6309 61.5868 41.613 61.5695 41.5876C61.5521 41.5623 61.545 41.5314 61.5494 41.501C61.5629 41.4737 61.5857 41.4522 61.6136 41.44C61.6415 41.4278 61.6727 41.4259 61.7019 41.4345C61.7311 41.4431 61.7564 41.4616 61.7732 41.487C61.7901 41.5123 61.7975 41.5427 61.7942 41.573C61.7887 41.5873 61.7803 41.6003 61.7697 41.6113C61.759 41.6223 61.7463 41.6311 61.7322 41.6372C61.7181 41.6432 61.703 41.6464 61.6877 41.6465C61.6723 41.6466 61.6571 41.6436 61.643 41.6378V41.6378Z" fill="#EB996E"/>
<path d="M58.8201 21.0269C57.9415 17.1308 54.1246 14.3438 50.1781 14.0341C46.2316 13.7244 42.4507 15.5537 39.5701 18.2615C36.6894 20.9693 34.6514 24.4981 32.9374 28.0989C31.8211 30.4611 30.6617 33.0464 28.386 34.2779C27.4425 34.7892 26.1174 35.4518 26.4199 36.5032C26.5628 36.8294 26.7493 37.1347 26.9744 37.4106C27.3248 38.1556 27.4379 38.9902 27.2985 39.8016C27.1785 41.2419 26.9984 42.699 26.7584 44.173C26.5611 45.0758 26.4956 46.0024 26.5639 46.924C26.6038 47.3816 26.7562 47.8222 27.0075 48.2066C27.2588 48.5911 27.6012 48.9075 28.0043 49.1277L26.2183 50.7049C26.3143 51.1377 26.5366 51.5324 26.8571 51.8388C27.1776 52.1452 27.5819 52.3496 28.0187 52.426C28.8866 52.552 29.771 52.5006 30.6185 52.2748C33.2183 51.7563 35.9477 51.1802 37.9497 49.3942C40.1102 47.4929 41.0464 44.5331 41.4785 41.6596C41.8746 38.9806 41.9034 36.2584 42.1987 33.565C42.4286 30.8591 43.2948 28.2459 44.7265 25.9384C46.246 23.7203 48.7522 22.0639 51.4096 22.1432C52.7779 22.1864 54.1174 22.6689 55.4713 22.5609C56.8252 22.4528 58.3015 21.4014 58.1575 20.0187" fill="#263238"/>
<path d="M39.6779 42.9558C38.504 46.5566 41.4495 60.1677 43.7468 62.0546C43.4952 62.1757 43.2166 62.2301 42.9378 62.2124C42.6591 62.1948 42.3896 62.1057 42.1552 61.9537C43.2991 63.5456 43.8749 65.4757 43.79 67.4342C42.7476 67.421 41.7349 67.0849 40.8914 66.4723C40.048 65.8597 39.4151 65.0006 39.0801 64.0134C38.2382 65.6976 36.82 67.0238 35.0832 67.751L36.0554 64.5535C35.3006 64.983 34.4529 65.2231 33.585 65.2532C32.717 65.2833 31.8547 65.1025 31.0719 64.7264C31.7852 64.5058 32.4356 64.1182 32.9692 63.596C33.5027 63.0737 33.904 62.4317 34.1398 61.7233C33.8209 62.0936 33.4219 62.3867 32.9731 62.5803C32.7461 62.6684 32.496 62.6773 32.2633 62.6054C32.0306 62.5335 31.829 62.385 31.6913 62.1842C31.1439 61.1904 32.8507 60.1605 32.5699 59.0659C31.9149 59.5626 31.14 59.877 30.3241 59.9769C29.5081 60.0768 28.6803 59.9588 27.9248 59.6348C31.4824 56.9126 30.3878 50.8992 31.5256 46.5206" fill="#263238"/>
<path d="M39.0371 40.853C38.9075 40.7954 33.8592 39.1895 33.9024 44.3818C33.9456 49.5742 39.1524 48.458 39.1596 48.3067C39.1668 48.1555 39.0371 40.853 39.0371 40.853Z" fill="#FFBE9D"/>
<path d="M37.5535 46.3549C37.5535 46.3549 37.4671 46.4197 37.3159 46.4917C37.0982 46.5769 36.8565 46.5769 36.6389 46.4917C36.3018 46.283 36.0267 45.988 35.8418 45.6373C35.657 45.2866 35.5692 44.8929 35.5875 44.4969C35.5695 44.0525 35.6507 43.6097 35.8251 43.2006C35.8703 43.0342 35.9557 42.8816 36.0737 42.756C36.1918 42.6304 36.3389 42.5358 36.5021 42.4804C36.6047 42.4495 36.7149 42.4565 36.8127 42.5001C36.9106 42.5438 36.9895 42.6211 37.035 42.7181C37.107 42.8621 37.0782 42.9701 37.107 42.9773C37.1358 42.9845 37.215 42.8909 37.1718 42.6748C37.1399 42.5467 37.0665 42.4328 36.963 42.3508C36.8208 42.244 36.6423 42.1974 36.4661 42.2211C36.2526 42.2654 36.0539 42.3633 35.8889 42.5057C35.7238 42.6481 35.5977 42.8303 35.5227 43.0349C35.3095 43.4842 35.2082 43.9784 35.2274 44.4753C35.2634 45.5195 35.8107 46.4917 36.5597 46.7006C36.6997 46.7401 36.8468 46.7476 36.9902 46.7227C37.1335 46.6978 37.2694 46.641 37.3879 46.5565C37.5463 46.4845 37.5751 46.3621 37.5535 46.3549Z" fill="#EB996E"/>
<path d="M36.9198 48.5012C36.9558 48.5012 36.9198 48.71 36.6101 48.8108C36.4454 48.8734 36.2635 48.8734 36.0988 48.8108C35.9961 48.7698 35.9033 48.7075 35.8263 48.6281C35.7494 48.5487 35.6901 48.4539 35.6523 48.3499C35.6059 48.2495 35.5818 48.1401 35.5818 48.0295C35.5818 47.9188 35.6059 47.8094 35.6523 47.709C35.7317 47.5535 35.861 47.4292 36.0196 47.3561C36.2933 47.2481 36.4661 47.3561 36.4589 47.3561C36.4517 47.3561 36.3077 47.4353 36.1564 47.565C36.0611 47.6352 35.9915 47.7348 35.9584 47.8484C35.9252 47.9621 35.9303 48.0834 35.9728 48.1939C36.0154 48.3044 36.093 48.3978 36.1939 48.4598C36.2947 48.5219 36.4131 48.549 36.5309 48.5372C36.7542 48.5444 36.8766 48.458 36.9198 48.5012Z" fill="#E0E0E0"/>
<path d="M38.9436 48.6453C38.9868 48.6453 39.1092 48.9693 38.7347 49.315C38.626 49.4099 38.4949 49.4756 38.3538 49.5059C38.2127 49.5361 38.0662 49.5299 37.9281 49.4879C37.7659 49.4367 37.617 49.3501 37.4925 49.2342C37.3679 49.1184 37.2707 48.9762 37.208 48.8181C37.0857 48.5387 37.0583 48.227 37.1298 47.9305C37.2013 47.634 37.3679 47.3691 37.6041 47.1761C38.0145 46.9097 38.3242 47.0609 38.3242 47.1041C38.3242 47.1473 38.0506 47.1041 37.7913 47.385C37.6387 47.5583 37.5376 47.7709 37.4994 47.9987C37.4612 48.2265 37.4875 48.4604 37.5752 48.6741C37.6046 48.7797 37.6577 48.8772 37.7305 48.9592C37.8033 49.0412 37.8939 49.1055 37.9953 49.1472C38.0967 49.1889 38.2063 49.2068 38.3157 49.1997C38.4252 49.1926 38.5315 49.1606 38.6267 49.1062C38.8499 48.8829 38.8859 48.6021 38.9436 48.6453Z" fill="#E0E0E0"/>
<path d="M29.5886 50.8057C29.5886 50.8057 29.5886 50.8057 29.4878 50.7121C29.3897 50.6172 29.3005 50.5135 29.2213 50.4024C28.8901 49.986 28.6231 49.5223 28.4292 49.0269C27.7164 47.163 27.7655 45.0935 28.566 43.2656C29.0971 42.0177 29.8457 40.874 30.7769 39.888C31.8662 38.8037 33.018 37.7841 34.2265 36.8345C34.8519 36.3061 35.4214 35.7149 35.9261 35.0701C36.4349 34.3819 36.8289 33.6158 37.0927 32.8016C37.5898 31.0643 37.9273 29.2854 38.101 27.4868C38.3304 25.6561 38.8711 23.8781 39.6997 22.2296C40.4945 20.7103 41.6339 19.3982 43.0269 18.3983C44.2915 17.4713 45.7859 16.9085 47.3479 16.7707C48.7028 16.6844 50.0613 16.868 51.3448 17.3109C52.3983 17.6658 53.41 18.1343 54.3622 18.708C55.1037 19.1131 55.7671 19.6472 56.3211 20.2851C56.6845 20.693 56.9331 21.19 57.0412 21.7255C57.0712 21.9091 57.0712 22.0964 57.0412 22.28C57.0412 22.28 57.0412 22.0855 56.962 21.7399C56.8376 21.236 56.5901 20.7708 56.2419 20.386C55.6781 19.7847 55.0187 19.2809 54.2902 18.8952C53.3389 18.3535 52.3351 17.9096 51.2943 17.5701C50.0421 17.1565 48.7208 16.9926 47.4055 17.0876C45.8984 17.2321 44.4592 17.7849 43.2429 18.6864C41.8907 19.6735 40.7943 20.9699 40.0454 22.4672C39.2362 24.0775 38.7077 25.814 38.4826 27.602C38.2923 29.4128 37.933 31.2017 37.4096 32.9456C37.1275 33.7846 36.7116 34.5726 36.1781 35.2789C35.6712 35.9526 35.0942 36.5706 34.4569 37.1226C33.2483 38.0594 32.0942 39.0644 31.0001 40.1328C30.0978 41.088 29.3669 42.1916 28.8396 43.3952C28.2702 44.5825 28.0414 45.9045 28.1787 47.2141C28.3161 48.5237 28.8141 49.7695 29.6174 50.8129L29.5886 50.8057Z" fill="#455A64"/>
</g>
<defs>
<filter id="filter0_b_859_18278" x="-50" y="-50" width="200" height="200" filterUnits="userSpaceOnUse" color-interpolation-filters="sRGB">
<feFlood flood-opacity="0" result="BackgroundImageFix"/>
<feGaussianBlur in="BackgroundImage" stdDeviation="25"/>
<feComposite in2="SourceAlpha" operator="in" result="effect1_backgroundBlur_859_18278"/>
<feBlend mode="normal" in="SourceGraphic" in2="effect1_backgroundBlur_859_18278" result="shape"/>
</filter>
<linearGradient id="paint0_linear_859_18278" x1="0" y1="0" x2="102.135" y2="2.22982" gradientUnits="userSpaceOnUse">
<stop stop-color="#FE6B00"/>
<stop offset="1" stop-color="#FE0000"/>
</linearGradient>
<linearGradient id="paint1_linear_859_18278" x1="0" y1="0" x2="102.135" y2="2.22982" gradientUnits="userSpaceOnUse">
<stop stop-color="#FE6B00"/>
<stop offset="1" stop-color="#FE0000"/>
</linearGradient>
<radialGradient id="paint2_angular_859_18278" cx="0" cy="0" r="1" gradientUnits="userSpaceOnUse" gradientTransform="translate(83.0385 138.133) rotate(63.1033) scale(44.6236 842.62)">
<stop stop-color="#FE8900"/>
<stop offset="1" stop-color="#FE0000"/>
</radialGradient>
<radialGradient id="paint3_angular_859_18278" cx="0" cy="0" r="1" gradientUnits="userSpaceOnUse" gradientTransform="translate(67.8211 84.1778) rotate(69.5556) scale(20.4136 312.71)">
<stop stop-color="#FE8900"/>
<stop offset="1" stop-color="#FE0000"/>
</radialGradient>
</defs>
</svg>
